<svg width="116" height="36" viewBox="0 0 116 36" fill="none" xmlns="http://www.w3.org/2000/svg">
<g clip-path="url(#clip0_30_359)">
<path d="M61.0917 9.04504C61.0917 10.3423 60.0466 11.3874 58.7493 11.3874C57.4521 11.3874 56.407 10.3423 56.407 9.04504C56.407 7.74775 57.416 6.7027 58.7493 6.7027C60.0827 6.73874 61.0917 7.78378 61.0917 9.04504ZM51.434 13.7658C51.434 13.982 51.434 14.3423 51.434 14.3423C51.434 14.3423 50.3169 12.9009 47.9385 12.9009C44.0106 12.9009 40.9475 15.8919 40.9475 20.036C40.9475 24.1441 43.9746 27.1712 47.9385 27.1712C50.353 27.1712 51.434 25.6937 51.434 25.6937V26.3063C51.434 26.5946 51.6503 26.8108 51.9385 26.8108H54.8575V13.2613C54.8575 13.2613 52.1908 13.2613 51.9385 13.2613C51.6503 13.2613 51.434 13.5135 51.434 13.7658ZM51.434 22.4504C50.8935 23.2432 49.8124 23.9279 48.5151 23.9279C46.2088 23.9279 44.443 22.4865 44.443 20.036C44.443 17.5856 46.2088 16.1441 48.5151 16.1441C49.7764 16.1441 50.9295 16.8649 51.434 17.6216V22.4504ZM57.0196 13.2613H60.4791V26.8108H57.0196V13.2613ZM108.695 12.9009C106.317 12.9009 105.2 14.3423 105.2 14.3423V6.73874H101.74V26.8108C101.74 26.8108 104.407 26.8108 104.659 26.8108C104.948 26.8108 105.164 26.5586 105.164 26.3063V25.6937C105.164 25.6937 106.281 27.1712 108.659 27.1712C112.587 27.1712 115.65 24.1441 115.65 20.036C115.65 15.9279 112.587 12.9009 108.695 12.9009ZM108.119 23.8919C106.785 23.8919 105.74 23.2072 105.2 22.4144V17.5856C105.74 16.8649 106.894 16.1081 108.119 16.1081C110.425 16.1081 112.191 17.5495 112.191 20C112.191 22.4505 110.425 23.8919 108.119 23.8919ZM99.9385 18.7748V26.8468H96.4791V19.1712C96.4791 16.9369 95.7584 16.036 93.8124 16.036C92.7674 16.036 91.6863 16.5766 91.0016 17.3694V26.8108H87.5421V13.2613H90.2809C90.5692 13.2613 90.7854 13.5135 90.7854 13.7658V14.3423C91.7944 13.2973 93.1277 12.9009 94.4611 12.9009C95.9746 12.9009 97.2358 13.3333 98.2448 14.1982C99.4701 15.2072 99.9385 16.5045 99.9385 18.7748ZM79.1457 12.9009C76.7674 12.9009 75.6503 14.3423 75.6503 14.3423V6.73874H72.1908V26.8108C72.1908 26.8108 74.8575 26.8108 75.1097 26.8108C75.398 26.8108 75.6142 26.5586 75.6142 26.3063V25.6937C75.6142 25.6937 76.7313 27.1712 79.1097 27.1712C83.0376 27.1712 86.1007 24.1441 86.1007 20.036C86.1367 15.9279 83.0737 12.9009 79.1457 12.9009ZM78.5692 23.8919C77.2358 23.8919 76.1908 23.2072 75.6503 22.4144V17.5856C76.1908 16.8649 77.3439 16.1081 78.5692 16.1081C80.8755 16.1081 82.6412 17.5495 82.6412 20C82.6412 22.4505 80.8755 23.8919 78.5692 23.8919ZM69.1998 12.9009C70.2448 12.9009 70.7854 13.0811 70.7854 13.0811V16.2883C70.7854 16.2883 67.9025 15.3153 66.1007 17.3694V26.8468H62.6412V13.2613C62.6412 13.2613 65.3079 13.2613 65.5602 13.2613C65.8484 13.2613 66.0647 13.5135 66.0647 13.7658V14.3423C66.7133 13.5856 68.1187 12.9009 69.1998 12.9009ZM33.2719 25.5856C33.0917 25.1532 32.9115 24.6847 32.7313 24.2883C32.443 23.6396 32.1548 23.027 31.9025 22.4504L31.8665 22.4144C29.38 17.009 26.7133 11.5315 23.9025 6.12613L23.7944 5.90991C23.5061 5.36937 23.2178 4.79279 22.9295 4.21622C22.5692 3.56757 22.2088 2.88288 21.6322 2.23423C20.4791 0.792793 18.8214 0 17.0557 0C15.2539 0 13.6322 0.792793 12.443 2.16216C11.9025 2.81081 11.5061 3.4955 11.1457 4.14414C10.8575 4.72072 10.5692 5.2973 10.2809 5.83784L10.1728 6.05405C7.398 11.4595 4.6953 16.9369 2.20881 22.3423L2.17278 22.4144C1.92052 22.991 1.63223 23.6036 1.34395 24.2523C1.16377 24.6486 0.983586 25.0811 0.803406 25.5495C0.334937 26.8829 0.190793 28.1441 0.370974 29.4414C0.76737 32.1441 2.56917 34.4144 5.05566 35.4234C5.99259 35.8198 6.96557 36 7.97458 36C8.26287 36 8.62323 35.964 8.91151 35.9279C10.1007 35.7838 11.3259 35.3874 12.5151 34.7027C13.9926 33.8739 15.398 32.6847 16.9836 30.955C18.5692 32.6847 20.0106 33.8739 21.4521 34.7027C22.6412 35.3874 23.8665 35.7838 25.0557 35.9279C25.3439 35.964 25.7043 36 25.9926 36C27.0016 36 28.0106 35.8198 28.9115 35.4234C31.434 34.4144 33.1998 32.1081 33.5962 29.4414C33.8845 28.1802 33.7403 26.9189 33.2719 25.5856ZM17.0196 27.4595C15.0737 25.009 13.8124 22.7027 13.38 20.7568C13.1998 19.9279 13.1638 19.2072 13.2719 18.5586C13.3439 17.982 13.5602 17.4775 13.8485 17.045C14.5331 16.0721 15.6863 15.4595 17.0196 15.4595C18.353 15.4595 19.5421 16.036 20.1908 17.045C20.4791 17.4775 20.6953 17.982 20.7674 18.5586C20.8755 19.2072 20.8394 19.964 20.6593 20.7568C20.2268 22.6667 18.9656 24.973 17.0196 27.4595ZM31.398 29.1532C31.1457 31.027 29.8845 32.6486 28.1187 33.3694C27.2539 33.7297 26.3169 33.8378 25.38 33.7297C24.4791 33.6216 23.5782 33.3333 22.6412 32.7928C21.3439 32.0721 20.0466 30.955 18.5331 29.2973C20.9115 26.3784 22.353 23.7117 22.8935 21.3333C23.1457 20.2162 23.1818 19.2072 23.0737 18.2703C22.9295 17.3694 22.6052 16.5405 22.1007 15.8198C20.9836 14.1982 19.1097 13.2613 17.0196 13.2613C14.9295 13.2613 13.0557 14.2342 11.9385 15.8198C11.434 16.5405 11.1097 17.3694 10.9656 18.2703C10.8214 19.2072 10.8575 20.2523 11.1457 21.3333C11.6863 23.7117 13.1638 26.4144 15.5061 29.3333C14.0286 30.991 12.6953 32.1081 11.398 32.8288C10.4611 33.3694 9.56016 33.6577 8.65926 33.7658C7.68629 33.8739 6.74935 33.7297 5.92052 33.4054C4.15476 32.6847 2.8935 31.0631 2.64124 29.1892C2.53314 28.2883 2.60521 27.3874 2.96557 26.3784C3.07368 26.018 3.25386 25.6577 3.43404 25.2252C3.68629 24.6486 3.97458 24.036 4.26287 23.4234L4.2989 23.3514C6.78539 17.982 9.45205 12.5045 12.2268 7.17117L12.3349 6.95495C12.6232 6.41441 12.9115 5.83784 13.1998 5.2973C13.4881 4.72072 13.8124 4.18018 14.2088 3.71171C14.9656 2.84685 15.9746 2.37838 17.0917 2.37838C18.2088 2.37838 19.2178 2.84685 19.9746 3.71171C20.371 4.18018 20.6953 4.72072 20.9836 5.2973C21.2719 5.83784 21.5602 6.41441 21.8485 6.95495L21.9566 7.17117C24.6953 12.5405 27.362 18.018 29.8484 23.3874V23.4234C30.1367 24 30.389 24.6486 30.6773 25.2252C30.8575 25.6577 31.0376 26.018 31.1457 26.3784C31.434 27.3153 31.5421 28.2162 31.398 29.1532Z" fill="#FF385C"/>
</g>
<defs>
<clipPath id="clip0_30_359">
<rect width="115.351" height="36" fill="white" transform="translate(0.298828)"/>
</clipPath>
</defs>
</svg>
