<svg width="31" height="31" viewBox="0 0 31 31" fill="none" xmlns="http://www.w3.org/2000/svg">
<path d="M15.4 0.0292969C17.3699 0.0292968 19.3204 0.417283 21.1403 1.1711C22.9602 1.92492 24.6137 3.02982 26.0066 4.4227C27.3995 5.81557 28.5044 7.46916 29.2582 9.28905C30.012 11.1089 30.4 13.0595 30.4 15.0293C30.4 16.9991 30.012 18.9497 29.2582 20.7695C28.5044 22.5894 27.3995 24.243 26.0066 25.6359C24.6137 27.0288 22.9602 28.1337 21.1403 28.8875C19.3204 29.6413 17.3699 30.0293 15.4 30.0293C11.4218 30.0293 7.60647 28.4489 4.79342 25.6359C1.98038 22.8229 0.400024 19.0075 0.400024 15.0293C0.400024 11.051 1.98038 7.23574 4.79342 4.4227C7.60647 1.60965 11.4218 0.0292969 15.4 0.0292969ZM15.4 2.0293C11.9522 2.0293 8.64561 3.39894 6.20764 5.83691C3.76966 8.27488 2.40002 11.5815 2.40002 15.0293C2.40002 18.4771 3.76966 21.7837 6.20764 24.2217C8.64561 26.6597 11.9522 28.0293 15.4 28.0293C18.8478 28.0293 22.1544 26.6597 24.5924 24.2217C27.0304 21.7837 28.4 18.4771 28.4 15.0293C28.4 11.5815 27.0304 8.27488 24.5924 5.83691C22.1544 3.39894 18.8478 2.0293 15.4 2.0293ZM22.4 9.6193L23.81 11.0293L12.9 21.9393L6.99002 16.0293L8.40002 14.6193L12.9 19.1193L22.4 9.6193Z" fill="black"/>
</svg>
