<svg width="22" height="22" viewBox="0 0 22 22" fill="none" xmlns="http://www.w3.org/2000/svg">
<path d="M17.1111 9.77778C17.5267 9.77778 17.93 9.82667 18.3333 9.88778V3.99667L9.16667 0L0 3.99667V9.99778C0 15.5467 3.91111 20.7411 9.16667 22C9.83889 21.8411 10.4867 21.6089 11.1222 21.3278C10.2789 20.13 9.77778 18.6756 9.77778 17.1111C9.77778 13.0656 13.0656 9.77778 17.1111 9.77778Z" fill="white"/>
<path d="M17.1106 12.2222C14.4095 12.2222 12.2217 14.4099 12.2217 17.1111C12.2217 19.8122 14.4095 21.9999 17.1106 21.9999C19.8117 21.9999 21.9995 19.8122 21.9995 17.1111C21.9995 14.4099 19.8117 12.2222 17.1106 12.2222ZM17.1106 13.9088C17.8683 13.9088 18.4795 14.5322 18.4795 15.2777C18.4795 16.0233 17.8561 16.6466 17.1106 16.6466C16.365 16.6466 15.7417 16.0233 15.7417 15.2777C15.7417 14.5322 16.3528 13.9088 17.1106 13.9088ZM17.1106 20.4722C15.9739 20.4722 14.9839 19.9099 14.3728 19.0422C14.4339 18.1622 16.2183 17.7222 17.1106 17.7222C18.0028 17.7222 19.7872 18.1622 19.8483 19.0422C19.2372 19.9099 18.2472 20.4722 17.1106 20.4722Z" fill="white"/>
</svg>
