<svg width="15" height="12" viewBox="0 0 15 12" fill="none" xmlns="http://www.w3.org/2000/svg">
<path d="M12.3129 1.08358e-06C12.9077 -0.000574993 13.4798 0.228569 13.9098 0.639623C14.3398 1.05068 14.5944 1.61189 14.6206 2.20615V9.69231C14.6211 10.2872 14.392 10.8592 13.9809 11.2892C13.5699 11.7192 13.0087 11.9738 12.4144 12H3.08211C2.48726 12.0006 1.91517 11.7714 1.4852 11.3604C1.05523 10.9493 0.800588 10.3881 0.774415 9.79385V2.30769C0.773839 1.71285 1.00298 1.14076 1.41404 0.710784C1.82509 0.280812 2.3863 0.026174 2.98057 1.08358e-06H3.08211H12.3129ZM12.3129 0.923078H3.08211C2.72883 0.922441 2.38868 1.05686 2.13128 1.29882C1.87387 1.54078 1.71869 1.87198 1.69749 2.22462V9.69231C1.69686 10.0456 1.83128 10.3857 2.07324 10.6431C2.3152 10.9005 2.64639 11.0557 2.99903 11.0769H12.3129C12.6661 11.0776 13.0063 10.9431 13.2637 10.7012C13.5211 10.4592 13.6763 10.128 13.6975 9.77538V2.30769C13.6981 1.95442 13.5637 1.61427 13.3217 1.35686C13.0798 1.09946 12.7486 0.944274 12.396 0.923078H12.3129ZM9.08211 2.76923V4.61539H10.9283V7.38462H9.08211V9.23077H6.31288V7.38462H4.46672V4.61539H6.31288V2.76923H9.08211ZM8.15903 3.69231H7.23595V5.53846H5.3898V6.46154H7.23595V8.30769H8.15903V6.46154H10.0052V5.53846H8.15903V3.69231Z" fill="black"/>
</svg>
