<svg width="12" height="12" viewBox="0 0 12 12" fill="none" xmlns="http://www.w3.org/2000/svg">
<path d="M5.56649 7.296L6.36649 8.096V9.464L8.37849 10.624L7.97849 11.316L6.36649 10.388V12H5.56649V10.388L3.95449 11.316L3.55449 10.624L5.56649 9.464V7.296ZM1.04649 0.52L11.4465 10.92L10.8865 11.488L0.486492 1.088L1.04649 0.52ZM0.754492 6.228L2.76649 7.384L4.59849 6.328L5.18249 6.912L3.16649 8.08V10.4H2.36649V8.54L0.970492 9.348L0.570492 8.652L1.96649 7.848L0.354492 6.916L0.754492 6.224V6.228ZM11.1785 6.228L11.5785 6.92L9.96649 7.848L11.3625 8.652L10.9785 9.316L8.88649 7.224L9.16649 7.384L11.1785 6.224V6.228ZM9.56649 1.6V3.46L10.9625 2.652L11.3625 3.348L9.96649 4.152L11.5785 5.084L11.1785 5.776L9.16649 4.616L7.33449 5.672L6.75049 5.084L8.76649 3.924V1.6H9.56649ZM0.954492 2.68L3.04249 4.776L2.76649 4.616L0.754492 5.776L0.354492 5.084L1.96649 4.152L0.570492 3.348L0.954492 2.684V2.68ZM6.36649 0V1.612L7.97849 0.684L8.37849 1.376L6.36649 2.536V4.704L5.56649 3.904V2.536L3.55449 1.376L3.95449 0.684L5.56649 1.612V0H6.36649Z" fill="black"/>
</svg>
