<svg width="16" height="16" viewBox="0 0 16 16" fill="none" xmlns="http://www.w3.org/2000/svg">
<path d="M11.42 12.1L11.08 11.76C10.96 11.64 10.8165 11.58 10.6496 11.58C10.4832 11.58 10.34 11.64 10.22 11.76C10.1 11.88 10.04 12.02 10.04 12.18C10.04 12.34 10.1 12.48 10.22 12.6L11 13.38C11.12 13.5 11.26 13.56 11.42 13.56C11.58 13.56 11.72 13.5 11.84 13.38L13.78 11.48C13.9 11.36 13.96 11.2165 13.96 11.0496C13.96 10.8832 13.9 10.74 13.78 10.62C13.66 10.5 13.5168 10.44 13.3504 10.44C13.1835 10.44 13.04 10.5 12.92 10.62L11.42 12.1ZM11.2 4.8C11.4267 4.8 11.6165 4.7232 11.7696 4.5696C11.9232 4.41653 12 4.22667 12 4C12 3.77333 11.9232 3.5832 11.7696 3.4296C11.6165 3.27653 11.4267 3.2 11.2 3.2H3.2C2.97333 3.2 2.7832 3.27653 2.6296 3.4296C2.47653 3.5832 2.4 3.77333 2.4 4C2.4 4.22667 2.47653 4.41653 2.6296 4.5696C2.7832 4.7232 2.97333 4.8 3.2 4.8H11.2ZM12 16C10.8933 16 9.95013 15.6101 9.1704 14.8304C8.39013 14.0501 8 13.1067 8 12C8 10.8933 8.39013 9.94987 9.1704 9.1696C9.95013 8.38987 10.8933 8 12 8C13.1067 8 14.0501 8.38987 14.8304 9.1696C15.6101 9.94987 16 10.8933 16 12C16 13.1067 15.6101 14.0501 14.8304 14.8304C14.0501 15.6101 13.1067 16 12 16ZM1.6 0H12.8C13.24 0 13.6168 0.156533 13.9304 0.4696C14.2435 0.7832 14.4 1.16 14.4 1.6V6.94C14.0267 6.75333 13.6368 6.61653 13.2304 6.5296C12.8235 6.4432 12.4133 6.4 12 6.4H3.2C2.97333 6.4 2.7832 6.47653 2.6296 6.6296C2.47653 6.7832 2.4 6.97333 2.4 7.2C2.4 7.42667 2.47653 7.61653 2.6296 7.7696C2.7832 7.9232 2.97333 8 3.2 8H8.08C7.85333 8.22667 7.6432 8.47333 7.4496 8.74C7.25653 9.00667 7.08667 9.29333 6.94 9.6H3.2C2.97333 9.6 2.7832 9.67653 2.6296 9.8296C2.47653 9.9832 2.4 10.1733 2.4 10.4C2.4 10.6267 2.47653 10.8165 2.6296 10.9696C2.7832 11.1232 2.97333 11.2 3.2 11.2H6.46C6.43333 11.3333 6.41653 11.4635 6.4096 11.5904C6.4032 11.7168 6.4 11.8533 6.4 12C6.4 12.56 6.4768 13.0968 6.6304 13.6104C6.78347 14.1235 7.01333 14.6133 7.32 15.08C7.25333 15.0933 7.1832 15.0832 7.1096 15.0496C7.03653 15.0165 6.97333 14.9733 6.92 14.92L6.28 14.28C6.2 14.2 6.10667 14.16 6 14.16C5.89333 14.16 5.8 14.2 5.72 14.28L5.08 14.92C5 15 4.90667 15.04 4.8 15.04C4.69333 15.04 4.6 15 4.52 14.92L3.88 14.28C3.8 14.2 3.70667 14.16 3.6 14.16C3.49333 14.16 3.4 14.2 3.32 14.28L2.68 14.92C2.6 15 2.50667 15.04 2.4 15.04C2.29333 15.04 2.2 15 2.12 14.92L1.48 14.28C1.4 14.2 1.30667 14.16 1.2 14.16C1.09333 14.16 1 14.2 0.92 14.28L0.28 14.92L0 15.1V1.6C0 1.16 0.156533 0.7832 0.4696 0.4696C0.7832 0.156533 1.16 0 1.6 0Z" fill="white"/>
</svg>
