<svg width="20" height="18" viewBox="0 0 20 18" fill="none" xmlns="http://www.w3.org/2000/svg">
<path fill-rule="evenodd" clip-rule="evenodd" d="M0.290562 1.70556C0.197981 1.61232 0.12467 1.50176 0.074816 1.38019C0.0249623 1.25862 -0.000457806 1.12842 6.48542e-06 0.997027C0.000470777 0.865632 0.0268105 0.735615 0.0775221 0.6144C0.128234 0.493184 0.202324 0.383144 0.295563 0.290562C0.388801 0.19798 0.499362 0.12467 0.620933 0.0748161C0.742504 0.0249624 0.872703 -0.000458047 1.0041 6.24709e-06C1.13549 0.000470541 1.26551 0.0268104 1.38673 0.077522C1.50794 0.128234 1.61798 0.202324 1.71056 0.295562L9.71056 8.29556C9.89681 8.48293 10.0014 8.73638 10.0014 9.00056C10.0014 9.26475 9.89681 9.5182 9.71056 9.70556L1.71056 17.7056C1.61798 17.7988 1.50794 17.8729 1.38673 17.9236C1.26551 17.9743 1.13549 18.0007 1.0041 18.0011C0.872703 18.0016 0.742504 17.9762 0.620933 17.9263C0.499362 17.8765 0.388801 17.8031 0.295563 17.7106C0.202324 17.618 0.128234 17.5079 0.0775221 17.3867C0.0268105 17.2655 0.000470538 17.1355 6.247e-06 17.0041C-0.000458044 16.8727 0.0249623 16.7425 0.074816 16.6209C0.12467 16.4994 0.197981 16.3888 0.290562 16.2956L7.58056 9.00556L0.290562 1.70556Z" fill="white"/>
<path fill-rule="evenodd" clip-rule="evenodd" d="M10.292 1.70556C10.1994 1.61232 10.1261 1.50176 10.0763 1.38019C10.0264 1.25862 10.001 1.12842 10.0015 0.997027C10.0019 0.865632 10.0283 0.735615 10.079 0.6144C10.1297 0.493184 10.2038 0.383144 10.297 0.290562C10.3903 0.19798 10.5008 0.12467 10.6224 0.0748161C10.744 0.0249624 10.8742 -0.000458047 11.0056 6.24709e-06C11.137 0.000470541 11.267 0.0268104 11.3882 0.077522C11.5094 0.128234 11.6194 0.202324 11.712 0.295562L19.712 8.29556C19.8983 8.48293 20.0028 8.73638 20.0028 9.00056C20.0028 9.26475 19.8983 9.5182 19.712 9.70556L11.712 17.7056C11.6194 17.7988 11.5094 17.8729 11.3882 17.9236C11.267 17.9743 11.137 18.0007 11.0056 18.0011C10.8742 18.0016 10.744 17.9762 10.6224 17.9263C10.5008 17.8765 10.3903 17.8031 10.297 17.7106C10.2038 17.618 10.1297 17.5079 10.079 17.3867C10.0283 17.2655 10.0019 17.1355 10.0015 17.0041C10.001 16.8727 10.0264 16.7425 10.0763 16.6209C10.1261 16.4994 10.1994 16.3888 10.292 16.2956L17.582 9.00556L10.292 1.70556Z" fill="white"/>
</svg>
