<svg width="24" height="24" viewBox="0 0 24 24" fill="none" xmlns="http://www.w3.org/2000/svg">
<g clip-path="url(#clip0_649_3212)">
<path d="M12 0L14.5035 1.296L17.2905 1.719L18.5535 4.239L20.559 6.219L20.1 9L20.559 11.781L18.5535 13.761L17.2905 16.281L14.5035 16.704L12 18L9.4965 16.704L6.7095 16.281L5.4465 13.761L3.441 11.781L3.9 9L3.441 6.219L5.4465 4.239L6.7095 1.719L9.4965 1.296L12 0Z" fill="url(#paint0_linear_649_3212)"/>
<path d="M6 17.691V24L12 22.5L18 24V17.691L14.973 18.15L12 19.689L9.027 18.15L6 17.691Z" fill="url(#paint1_linear_649_3212)"/>
</g>
<defs>
<linearGradient id="paint0_linear_649_3212" x1="3.441" y1="9" x2="20.559" y2="9" gradientUnits="userSpaceOnUse">
<stop stop-color="#006CE4"/>
<stop offset="1" stop-color="#0797FF"/>
</linearGradient>
<linearGradient id="paint1_linear_649_3212" x1="6" y1="20.8455" x2="18" y2="20.8455" gradientUnits="userSpaceOnUse">
<stop stop-color="#006CE4"/>
<stop offset="1" stop-color="#0797FF"/>
</linearGradient>
<clipPath id="clip0_649_3212">
<rect width="24" height="24" fill="white"/>
</clipPath>
</defs>
</svg>
