<svg width="11" height="12" viewBox="0 0 11 12" fill="none" xmlns="http://www.w3.org/2000/svg">
<path d="M8 3.17606e-06C8.20217 -0.000566186 8.39707 0.0754342 8.54548 0.21272C8.6939 0.350007 8.78484 0.538396 8.8 0.740003V7.2H10.4V8H9.6V11.2H10.4V12H0V11.2H0.8V8H0V7.2H1.6V0.800003C1.59943 0.597827 1.67543 0.402934 1.81272 0.254517C1.95 0.106099 2.13839 0.0151656 2.34 3.17606e-06H2.4H8ZM2.4 8H1.6V11.2H2.4V8ZM4 8H3.2V11.2H4V8ZM5.6 8H4.8V11.2H5.6V8ZM7.2 8H6.4V11.2H7.2V8ZM8.8 8H8V11.2H8.8V8ZM4.8 4.8H2.4V7.2H4.8V4.8ZM8 4.8H5.6V7.2H8V4.8ZM4.8 0.800003H2.4V4H4.8V0.800003ZM8 0.800003H5.6V4H8V0.800003Z" fill="black"/>
</svg>
