<svg width="11" height="10" viewBox="0 0 11 10" fill="none" xmlns="http://www.w3.org/2000/svg">
<path d="M9.5 0H1.5C0.95 0 0.5 0.45 0.5 1V9C0.5 9.55 0.95 10 1.5 10H9.5C10.05 10 10.5 9.55 10.5 9V1C10.5 0.45 10.05 0 9.5 0ZM4 8C3.725 8 3.5 7.775 3.5 7.5C3.5 7.225 3.725 7 4 7C4.275 7 4.5 7.225 4.5 7.5C4.5 7.775 4.275 8 4 8ZM4 6.5C3.725 6.5 3.5 6.275 3.5 6C3.5 5.725 3.725 5.5 4 5.5C4.275 5.5 4.5 5.725 4.5 6C4.5 6.275 4.275 6.5 4 6.5ZM5.5 8C5.225 8 5 7.775 5 7.5C5 7.225 5.225 7 5.5 7C5.775 7 6 7.225 6 7.5C6 7.775 5.775 8 5.5 8ZM5.5 6.5C5.225 6.5 5 6.275 5 6C5 5.725 5.225 5.5 5.5 5.5C5.775 5.5 6 5.725 6 6C6 6.275 5.775 6.5 5.5 6.5ZM7 8C6.725 8 6.5 7.775 6.5 7.5C6.5 7.225 6.725 7 7 7C7.275 7 7.5 7.225 7.5 7.5C7.5 7.775 7.275 8 7 8ZM7 6.5C6.725 6.5 6.5 6.275 6.5 6C6.5 5.725 6.725 5.5 7 5.5C7.275 5.5 7.5 5.725 7.5 6C7.5 6.275 7.275 6.5 7 6.5ZM8 5H3V4.5C3 3.12 4.12 2 5.5 2C6.88 2 8 3.12 8 4.5V5Z" fill="#666666"/>
</svg>
