<svg width="10" height="10" viewBox="0 0 10 10" fill="none" xmlns="http://www.w3.org/2000/svg">
<path d="M9 0H1C0.45 0 0 0.45 0 1V9C0 9.55 0.45 10 1 10H9C9.55 10 10 9.55 10 9V1C10 0.45 9.55 0 9 0ZM3.5 8C3.225 8 3 7.775 3 7.5C3 7.225 3.225 7 3.5 7C3.775 7 4 7.225 4 7.5C4 7.775 3.775 8 3.5 8ZM3.5 6.5C3.225 6.5 3 6.275 3 6C3 5.725 3.225 5.5 3.5 5.5C3.775 5.5 4 5.725 4 6C4 6.275 3.775 6.5 3.5 6.5ZM5 8C4.725 8 4.5 7.775 4.5 7.5C4.5 7.225 4.725 7 5 7C5.275 7 5.5 7.225 5.5 7.5C5.5 7.775 5.275 8 5 8ZM5 6.5C4.725 6.5 4.5 6.275 4.5 6C4.5 5.725 4.725 5.5 5 5.5C5.275 5.5 5.5 5.725 5.5 6C5.5 6.275 5.275 6.5 5 6.5ZM6.5 8C6.225 8 6 7.775 6 7.5C6 7.225 6.225 7 6.5 7C6.775 7 7 7.225 7 7.5C7 7.775 6.775 8 6.5 8ZM6.5 6.5C6.225 6.5 6 6.275 6 6C6 5.725 6.225 5.5 6.5 5.5C6.775 5.5 7 5.725 7 6C7 6.275 6.775 6.5 6.5 6.5ZM7.5 5H2.5V4.5C2.5 3.12 3.62 2 5 2C6.38 2 7.5 3.12 7.5 4.5V5Z" fill="url(#paint0_linear_455_623)"/>
<defs>
<linearGradient id="paint0_linear_455_623" x1="0" y1="5" x2="10" y2="5" gradientUnits="userSpaceOnUse">
<stop stop-color="#006CE4"/>
<stop offset="1" stop-color="#0797FF"/>
</linearGradient>
</defs>
</svg>
