<svg width="11" height="10" viewBox="0 0 11 10" fill="none" xmlns="http://www.w3.org/2000/svg">
<path d="M7.75 5H3.25C2.975 5 2.75 5.225 2.75 5.5V6H8.25V5.5C8.25 5.225 8.025 5 7.75 5Z" fill="#666666"/>
<path d="M5.125 3.25H3.125V4.25H5.125V3.25Z" fill="#666666"/>
<path d="M7.875 3.25H5.875V4.25H7.875V3.25Z" fill="#666666"/>
<path d="M9.5 0H1.5C0.95 0 0.5 0.45 0.5 1V9C0.5 9.55 0.95 10 1.5 10H9.5C10.05 10 10.5 9.55 10.5 9V1C10.5 0.45 10.05 0 9.5 0ZM9 7.5H8.25V6.75H2.75V7.5H2V5.585C2 5.255 2.125 4.955 2.325 4.725V3.5C2.325 2.95 2.775 2.5 3.325 2.5H5C5.185 2.5 5.36 2.56 5.5 2.66C5.64 2.56 5.815 2.5 6 2.5H7.675C8.225 2.5 8.675 2.95 8.675 3.5V4.725C8.875 4.955 9 5.255 9 5.585V7.5Z" fill="#666666"/>
</svg>
