<svg width="12" height="12" viewBox="0 0 12 12" fill="none" xmlns="http://www.w3.org/2000/svg">
<path d="M3.4209 2.08896e-06C3.74894 -0.000588881 4.06479 0.12423 4.30381 0.348907C4.54283 0.573584 4.68693 0.881125 4.70661 1.20857V6H10.7066C10.8119 5.99923 10.9138 6.03726 10.9928 6.10682C11.0719 6.17638 11.1225 6.2726 11.1352 6.37714V6.42857C11.1356 7.31962 10.7891 8.17583 10.1691 8.81582C9.54915 9.45581 8.70436 9.82929 7.81375 9.85713H5.76947L6.39089 11.4128C6.41419 11.4702 6.42476 11.532 6.42188 11.5939C6.41901 11.6558 6.40275 11.7163 6.37424 11.7713C6.34573 11.8263 6.30563 11.8744 6.25671 11.9124C6.2078 11.9504 6.15123 11.9774 6.09089 11.9914L6.04375 11.9957L5.99232 12H0.849471C0.744181 12.0007 0.642295 11.9627 0.56325 11.8932C0.484205 11.8236 0.433533 11.7274 0.420901 11.6228V1.28571C0.42031 0.957677 0.545128 0.641819 0.769805 0.402801C0.994482 0.163783 1.30202 0.0196839 1.62947 2.08896e-06H3.4209ZM10.2395 6.85714H1.27804V11.1428H5.35804L4.73661 9.58714C4.71332 9.52974 4.70275 9.46797 4.70562 9.40609C4.7085 9.34422 4.72475 9.2837 4.75326 9.22871C4.78178 9.17372 4.82187 9.12556 4.87079 9.08755C4.9197 9.04955 4.97628 9.0226 5.03661 9.00856L5.08375 9.00428L5.13518 8.99999H7.70661C8.28948 8.99992 8.85503 8.80183 9.31055 8.43819C9.76608 8.07455 10.0845 7.56694 10.2137 6.99857L10.2352 6.89999L10.2395 6.85714ZM3.4209 0.857144H1.70661C1.60132 0.856383 1.49944 0.89441 1.42039 0.96397C1.34135 1.03353 1.29067 1.12975 1.27804 1.23429V6H3.84947V1.28571C3.84916 1.18942 3.81644 1.09604 3.75657 1.02062C3.6967 0.945207 3.61318 0.892148 3.51947 0.870001L3.47233 0.857144H3.4209ZM8.13518 4.71428C8.24884 4.71428 8.35785 4.75944 8.43822 4.83981C8.5186 4.92018 8.56375 5.02919 8.56375 5.14285C8.56375 5.25652 8.5186 5.36553 8.43822 5.4459C8.35785 5.52627 8.24884 5.57142 8.13518 5.57142C8.02151 5.57142 7.91251 5.52627 7.83213 5.4459C7.75176 5.36553 7.70661 5.25652 7.70661 5.14285C7.70661 5.02919 7.75176 4.92018 7.83213 4.83981C7.91251 4.75944 8.02151 4.71428 8.13518 4.71428ZM8.13518 3.42857C8.24884 3.42857 8.35785 3.47372 8.43822 3.5541C8.5186 3.63447 8.56375 3.74348 8.56375 3.85714C8.56375 3.9708 8.5186 4.07981 8.43822 4.16019C8.35785 4.24056 8.24884 4.28571 8.13518 4.28571C8.02151 4.28571 7.91251 4.24056 7.83213 4.16019C7.75176 4.07981 7.70661 3.9708 7.70661 3.85714C7.70661 3.74348 7.75176 3.63447 7.83213 3.5541C7.91251 3.47372 8.02151 3.42857 8.13518 3.42857ZM9.84946 3.42857C9.96313 3.42857 10.0721 3.47372 10.1525 3.5541C10.2329 3.63447 10.278 3.74348 10.278 3.85714C10.278 3.9708 10.2329 4.07981 10.1525 4.16019C10.0721 4.24056 9.96313 4.28571 9.84946 4.28571C9.7358 4.28571 9.62679 4.24056 9.54642 4.16019C9.46604 4.07981 9.42089 3.9708 9.42089 3.85714C9.42089 3.74348 9.46604 3.63447 9.54642 3.5541C9.62679 3.47372 9.7358 3.42857 9.84946 3.42857ZM6.42089 3.42857C6.53456 3.42857 6.64357 3.47372 6.72394 3.5541C6.80431 3.63447 6.84946 3.74348 6.84946 3.85714C6.84946 3.9708 6.80431 4.07981 6.72394 4.16019C6.64357 4.24056 6.53456 4.28571 6.42089 4.28571C6.30723 4.28571 6.19822 4.24056 6.11785 4.16019C6.03748 4.07981 5.99232 3.9708 5.99232 3.85714C5.99232 3.74348 6.03748 3.63447 6.11785 3.5541C6.19822 3.47372 6.30723 3.42857 6.42089 3.42857ZM8.99232 2.57143C9.10598 2.57143 9.21499 2.61658 9.29537 2.69695C9.37574 2.77733 9.42089 2.88633 9.42089 3C9.42089 3.11366 9.37574 3.22267 9.29537 3.30304C9.21499 3.38342 9.10598 3.42857 8.99232 3.42857C8.87866 3.42857 8.76965 3.38342 8.68927 3.30304C8.6089 3.22267 8.56375 3.11366 8.56375 3C8.56375 2.88633 8.6089 2.77733 8.68927 2.69695C8.76965 2.61658 8.87866 2.57143 8.99232 2.57143ZM7.27804 2.57143C7.3917 2.57143 7.50071 2.61658 7.58108 2.69695C7.66145 2.77733 7.70661 2.88633 7.70661 3C7.70661 3.11366 7.66145 3.22267 7.58108 3.30304C7.50071 3.38342 7.3917 3.42857 7.27804 3.42857C7.16437 3.42857 7.05536 3.38342 6.97499 3.30304C6.89462 3.22267 6.84946 3.11366 6.84946 3C6.84946 2.88633 6.89462 2.77733 6.97499 2.69695C7.05536 2.61658 7.16437 2.57143 7.27804 2.57143ZM2.56376 1.71429C2.67742 1.71429 2.78643 1.75944 2.8668 1.83981C2.94717 1.92018 2.99233 2.02919 2.99233 2.14286C2.99233 2.25652 2.94717 2.36553 2.8668 2.4459C2.78643 2.52627 2.67742 2.57143 2.56376 2.57143C2.45009 2.57143 2.34108 2.52627 2.26071 2.4459C2.18034 2.36553 2.13518 2.25652 2.13518 2.14286C2.13518 2.02919 2.18034 1.92018 2.26071 1.83981C2.34108 1.75944 2.45009 1.71429 2.56376 1.71429Z" fill="black"/>
</svg>
