<svg width="24" height="24" viewBox="0 0 24 24" fill="none" xmlns="http://www.w3.org/2000/svg">
<path d="M21.6 0H2.4C1.08 0 0 1.08 0 2.4V21.6C0 22.92 1.08 24 2.4 24H21.6C22.92 24 24 22.92 24 21.6V2.4C24 1.08 22.92 0 21.6 0ZM8.4 19.2C7.74 19.2 7.2 18.66 7.2 18C7.2 17.34 7.74 16.8 8.4 16.8C9.06 16.8 9.6 17.34 9.6 18C9.6 18.66 9.06 19.2 8.4 19.2ZM8.4 15.6C7.74 15.6 7.2 15.06 7.2 14.4C7.2 13.74 7.74 13.2 8.4 13.2C9.06 13.2 9.6 13.74 9.6 14.4C9.6 15.06 9.06 15.6 8.4 15.6ZM12 19.2C11.34 19.2 10.8 18.66 10.8 18C10.8 17.34 11.34 16.8 12 16.8C12.66 16.8 13.2 17.34 13.2 18C13.2 18.66 12.66 19.2 12 19.2ZM12 15.6C11.34 15.6 10.8 15.06 10.8 14.4C10.8 13.74 11.34 13.2 12 13.2C12.66 13.2 13.2 13.74 13.2 14.4C13.2 15.06 12.66 15.6 12 15.6ZM15.6 19.2C14.94 19.2 14.4 18.66 14.4 18C14.4 17.34 14.94 16.8 15.6 16.8C16.26 16.8 16.8 17.34 16.8 18C16.8 18.66 16.26 19.2 15.6 19.2ZM15.6 15.6C14.94 15.6 14.4 15.06 14.4 14.4C14.4 13.74 14.94 13.2 15.6 13.2C16.26 13.2 16.8 13.74 16.8 14.4C16.8 15.06 16.26 15.6 15.6 15.6ZM18 12H6V10.8C6 7.488 8.688 4.8 12 4.8C15.312 4.8 18 7.488 18 10.8V12Z" fill="black"/>
</svg>
