<svg width="24" height="24" viewBox="0 0 24 24" fill="none" xmlns="http://www.w3.org/2000/svg">
<path d="M17.4006 12H6.60063C5.94063 12 5.40063 12.54 5.40063 13.2V14.4H18.6006V13.2C18.6006 12.54 18.0606 12 17.4006 12Z" fill="black"/>
<path d="M11.1 7.80005H6.30005V10.2H11.1V7.80005Z" fill="black"/>
<path d="M17.7006 7.80005H12.9006V10.2H17.7006V7.80005Z" fill="black"/>
<path d="M21.6 0H2.4C1.08 0 0 1.08 0 2.4V21.6C0 22.92 1.08 24 2.4 24H21.6C22.92 24 24 22.92 24 21.6V2.4C24 1.08 22.92 0 21.6 0ZM20.4 18H18.6V16.2H5.4V18H3.6V13.404C3.6 12.612 3.9 11.892 4.38 11.34V8.4C4.38 7.08 5.46 6 6.78 6H10.8C11.244 6 11.664 6.144 12 6.384C12.336 6.144 12.756 6 13.2 6H17.22C18.54 6 19.62 7.08 19.62 8.4V11.34C20.1 11.892 20.4 12.612 20.4 13.404V18Z" fill="black"/>
</svg>
