<svg width="12" height="13" viewBox="0 0 12 13" fill="none" xmlns="http://www.w3.org/2000/svg">
<path d="M6.89902 0.529297V1.3293H4.09902V2.1293H4.49902C4.7012 2.12873 4.89609 2.20473 5.04451 2.34201C5.19293 2.4793 5.28386 2.66769 5.29902 2.8693V3.7693C5.73569 3.85794 6.13026 4.08986 6.42011 4.42827C6.70997 4.76668 6.87852 5.19219 6.89902 5.6373V11.3293C6.89957 11.6355 6.78308 11.9303 6.57338 12.1533C6.36368 12.3764 6.07664 12.5109 5.77102 12.5293H1.69902C1.39285 12.5298 1.09805 12.4133 0.87497 12.2036C0.651886 11.994 0.517393 11.7069 0.499023 11.4013V5.7293C0.498929 5.26823 0.658137 4.8213 0.949701 4.46413C1.24127 4.10697 1.64728 3.86151 2.09902 3.7693V2.9293C2.09845 2.72712 2.17445 2.53223 2.31174 2.38381C2.44903 2.23539 2.63742 2.14446 2.83902 2.1293H3.29902V1.3293H2.09902V0.529297H6.89902ZM6.09902 6.5533C5.64302 6.6133 5.26702 6.7933 4.66702 7.1733L4.53102 7.2653C3.55102 7.8933 3.01502 8.1293 2.09902 8.1293C1.82991 8.12996 1.56156 8.10044 1.29902 8.0413V11.3293C1.29831 11.4276 1.33381 11.5227 1.39873 11.5964C1.46365 11.6702 1.55346 11.7175 1.65102 11.7293H5.69902C5.79729 11.73 5.89239 11.6945 5.96616 11.6296C6.03994 11.5647 6.08723 11.4749 6.09902 11.3773V6.5533ZM10.499 5.3293C10.8173 5.3293 11.1225 5.45572 11.3475 5.68077C11.5726 5.90581 11.699 6.21104 11.699 6.5293C11.699 6.84756 11.5726 7.15278 11.3475 7.37782C11.1225 7.60287 10.8173 7.7293 10.499 7.7293C10.1808 7.7293 9.87554 7.60287 9.65049 7.37782C9.42545 7.15278 9.29902 6.84756 9.29902 6.5293C9.29902 6.21104 9.42545 5.90581 9.65049 5.68077C9.87554 5.45572 10.1808 5.3293 10.499 5.3293ZM4.89902 4.5293H2.49902C2.19285 4.52874 1.89805 4.64524 1.67497 4.85494C1.45189 5.06464 1.31739 5.35168 1.29902 5.6573V7.21329C1.55849 7.2913 1.82809 7.33039 2.09902 7.3293C2.75102 7.3293 3.15502 7.1853 3.85902 6.7453L4.11502 6.5853C4.91902 6.0573 5.42702 5.8133 6.09902 5.7493V5.7293C6.09902 5.41104 5.97259 5.10581 5.74755 4.88077C5.52251 4.65572 5.21728 4.5293 4.89902 4.5293ZM10.499 6.1293C10.3929 6.1293 10.2912 6.17144 10.2162 6.24645C10.1412 6.32147 10.099 6.42321 10.099 6.5293C10.099 6.63538 10.1412 6.73712 10.2162 6.81214C10.2912 6.88715 10.3929 6.9293 10.499 6.9293C10.6051 6.9293 10.7069 6.88715 10.7819 6.81214C10.8569 6.73712 10.899 6.63538 10.899 6.5293C10.899 6.42321 10.8569 6.32147 10.7819 6.24645C10.7069 6.17144 10.6051 6.1293 10.499 6.1293ZM9.69902 0.929297C10.1234 0.929297 10.5303 1.09787 10.8304 1.39793C11.1305 1.69798 11.299 2.10495 11.299 2.5293C11.299 2.95364 11.1305 3.36061 10.8304 3.66067C10.5303 3.96073 10.1234 4.1293 9.69902 4.1293C9.27468 4.1293 8.86771 3.96073 8.56765 3.66067C8.26759 3.36061 8.09902 2.95364 8.09902 2.5293C8.09902 2.10495 8.26759 1.69798 8.56765 1.39793C8.86771 1.09787 9.27468 0.929297 9.69902 0.929297ZM4.49902 2.9293H2.89902V3.7293H4.49902V2.9293ZM9.69902 1.7293C9.48685 1.7293 9.28337 1.81358 9.13334 1.96361C8.98331 2.11364 8.89902 2.31712 8.89902 2.5293C8.89902 2.74147 8.98331 2.94495 9.13334 3.09498C9.28337 3.24501 9.48685 3.3293 9.69902 3.3293C9.91119 3.3293 10.1147 3.24501 10.2647 3.09498C10.4147 2.94495 10.499 2.74147 10.499 2.5293C10.499 2.31712 10.4147 2.11364 10.2647 1.96361C10.1147 1.81358 9.91119 1.7293 9.69902 1.7293Z" fill="black"/>
</svg>
