<svg width="194" height="32" viewBox="0 0 194 32" fill="none" xmlns="http://www.w3.org/2000/svg">
<g clip-path="url(#clip0_30_361)">
<path d="M76.7144 2.90163C76.7144 1.23496 78.0636 -0.0348811 79.6509 -0.0348811C81.2382 -0.0348811 82.5874 1.31432 82.5874 2.90163C82.5874 4.48893 81.2382 5.83813 79.6509 5.83813C77.9842 5.83813 76.7144 4.48893 76.7144 2.90163Z" fill="#003479"/>
<path d="M123.064 22.4256C123.064 20.7589 124.413 19.489 126 19.489C127.588 19.489 128.937 20.8383 128.937 22.4256C128.937 24.0129 127.588 25.3621 126 25.3621C124.334 25.3621 123.064 24.0922 123.064 22.4256Z" fill="#009FE3"/>
<path d="M28.5398 21.1557C26.0001 21.1557 24.2541 19.1716 24.2541 16.3144C24.2541 13.4573 26.0001 11.4732 28.5398 11.4732C31.0795 11.4732 32.8256 13.4573 32.8256 16.3144C32.8256 19.251 31.0795 21.1557 28.5398 21.1557ZM28.5398 7.10809C23.2224 7.10809 19.3335 10.997 19.3335 16.2351C19.3335 21.4732 23.2224 25.3621 28.5398 25.3621C33.9367 25.3621 37.8256 21.4732 37.8256 16.2351C37.8256 10.997 33.8573 7.10809 28.5398 7.10809Z" fill="#003479"/>
<path d="M71.0001 16.7907C70.762 16.3938 70.524 16.0764 70.2859 15.8383L70.1271 15.6795L70.2859 15.5208C70.524 15.2827 70.762 14.9653 71.0001 14.5684L75.6827 7.5843H69.9684L66.397 13.0605C66.1589 13.378 65.762 13.5367 65.2065 13.5367H64.4128V3.13986C64.4128 1.07637 63.143 0.758905 61.7144 0.758905H59.3335V25.2827H64.4128V17.9018H64.8891C65.4446 17.9018 65.8414 17.9811 66.0795 18.2986L68.8573 23.616C69.651 25.0446 70.4446 25.2827 71.8732 25.2827H75.762L72.8256 20.5208L71.0001 16.7907Z" fill="#003479"/>
<path d="M95.6825 7.10811C93.0635 7.10811 91.4761 8.21922 90.5238 9.25097L90.2063 9.56843L90.1269 9.1716C89.8888 8.13986 88.9365 7.5843 87.5873 7.5843H85.2856V25.2827H90.365V17.0287C90.365 16.2351 90.4444 15.5208 90.6825 14.8859C91.2381 12.9811 92.8253 11.7907 94.7301 11.7907C96.3174 11.7907 96.9523 12.5843 96.9523 14.8065V22.5049C96.9523 24.3303 97.8254 25.2033 99.6508 25.2033H102.032V13.9335C101.952 9.48906 99.8095 7.10811 95.6825 7.10811Z" fill="#003479"/>
<path d="M79.7306 7.50496H77.3496V21.1557V25.2034H79.8893H79.9687H81.1592H82.3496V10.2034C82.3496 8.37797 81.4766 7.50496 79.7306 7.50496Z" fill="#003479"/>
<path d="M48.3015 21.1557C45.7619 21.1557 44.0158 19.1716 44.0158 16.3144C44.0158 13.4573 45.7619 11.4732 48.3015 11.4732C50.8412 11.4732 52.5873 13.4573 52.5873 16.3144C52.6666 19.2509 50.9206 21.1557 48.3015 21.1557ZM48.3015 7.10807C42.9841 7.10807 39.0952 10.997 39.0952 16.2351C39.0952 21.4732 42.9841 25.4414 48.3015 25.4414C53.6984 25.4414 57.5873 21.5525 57.5873 16.3144C57.5873 11.0763 53.6984 7.10807 48.3015 7.10807Z" fill="#003479"/>
<path d="M156.477 21.1557C153.937 21.1557 152.191 19.1716 152.191 16.3144C152.191 13.4573 153.937 11.4732 156.477 11.4732C159.016 11.4732 160.762 13.4573 160.762 16.3144C160.762 19.251 159.016 21.1557 156.477 21.1557ZM156.477 7.1081C151.159 7.1081 147.27 10.997 147.27 16.2351C147.27 21.4732 151.159 25.3621 156.477 25.3621C161.794 25.4414 165.762 21.6319 165.762 16.3144C165.762 10.997 161.794 7.1081 156.477 7.1081Z" fill="#009FE3"/>
<path d="M112.588 20.4415C109.81 20.4415 108.857 18.0606 108.857 15.759C108.857 14.7272 109.096 11.5526 112.35 11.5526C113.937 11.5526 116.08 12.0288 116.08 15.9177C116.08 19.6479 114.175 20.4415 112.588 20.4415ZM118.699 7.42566C117.746 7.42566 117.032 7.82248 116.635 8.53677L116.477 8.77486L116.238 8.53677C115.445 7.82248 113.937 7.02883 111.556 7.02883C106.873 7.02883 103.699 10.6003 103.699 15.8384C103.699 21.0764 106.953 24.8066 111.715 24.8066C113.302 24.8066 114.572 24.4098 115.603 23.6955L116 23.378V23.8542C116 26.2352 114.492 27.505 111.715 27.505C110.365 27.505 109.175 27.1876 108.302 26.8701C107.27 26.5526 106.635 26.7907 106.159 27.9018L105.762 28.8542L105.207 30.2828L105.524 30.4415C107.27 31.3939 109.572 31.9495 111.715 31.9495C116 31.9495 121 29.7272 121 23.5368V7.26692L118.699 7.42566Z" fill="#003479"/>
<path d="M9.73045 20.9973H5.60346V16.0766C5.60346 15.0449 6.00026 14.4893 6.87328 14.3306H9.65106C11.6352 14.3306 12.9051 15.6005 12.9051 17.664C12.9844 19.7274 11.7939 20.9973 9.73045 20.9973ZM5.60346 7.74332V6.47348C5.60346 5.36237 6.07962 4.80681 7.11136 4.72745H9.17489C11.0003 4.72745 12.032 5.83856 12.032 7.58459C12.032 8.93379 11.3177 10.6005 9.25423 10.6005H5.52406L5.60346 7.74332ZM14.9685 12.664L14.2542 12.2671L14.8892 11.7116C15.6035 11.0767 16.8733 9.56872 16.8733 7.1084C16.8733 3.21951 13.8574 0.759192 9.25423 0.759192H4.01616H3.38124C2.03204 0.838558 0.920898 1.94967 0.920898 3.29887V25.1243H3.38124H9.41297C14.5717 25.1243 17.905 22.3465 17.905 17.9814C17.8257 15.6798 16.7939 13.6163 14.9685 12.664Z" fill="#003479"/>
<path d="M188.222 7.18774C186.159 7.18774 184.095 8.14012 182.826 9.80679L182.429 10.283L182.111 9.72742C181.159 8.06076 179.572 7.18774 177.349 7.18774C174.968 7.18774 173.46 8.45758 172.667 9.25123L172.191 9.80679L172.032 9.0925C171.794 8.14012 170.921 7.58457 169.572 7.58457H167.429V25.2036H172.27V17.4258C172.27 16.7115 172.349 16.0766 172.508 15.3623C172.984 13.4576 174.254 11.4735 176.318 11.6322C177.667 11.7909 178.302 12.7433 178.302 14.7274V25.2036H183.143V17.4258C183.143 16.5528 183.222 15.9179 183.381 15.283C183.778 13.4576 185.127 11.6322 187.111 11.6322C188.619 11.6322 189.175 12.5052 189.175 14.7274V22.5846C189.175 24.3306 189.968 25.1242 191.714 25.1242H194.016V13.8544C194.095 9.40996 192.191 7.18774 188.222 7.18774Z" fill="#009FE3"/>
<path d="M144.413 19.0924C144.413 19.0924 142.35 21.3146 139.572 21.3146C137.111 21.3146 134.572 19.8067 134.572 16.394C134.572 13.4575 136.556 11.394 139.334 11.394C140.207 11.394 141.238 11.7115 141.397 12.267V12.3464C141.794 13.6162 142.905 13.6162 143.143 13.6162H145.762V11.3146C145.762 8.29876 141.873 7.18764 139.254 7.18764C133.699 7.18764 129.651 11.0765 129.651 16.394C129.651 21.7115 133.619 25.6003 139.175 25.6003C143.937 25.6003 146.556 22.4257 146.556 22.4257L146.715 22.267L144.651 18.7749L144.413 19.0924Z" fill="#009FE3"/>
</g>
<defs>
<clipPath id="clip0_30_361">
<rect width="193.079" height="32" fill="white" transform="translate(0.920898)"/>
</clipPath>
</defs>
</svg>
