<svg width="12" height="12" viewBox="0 0 12 12" fill="none" xmlns="http://www.w3.org/2000/svg">
<path d="M6.13595 10.324V8.9442L6.03044 8.98072C5.63274 9.11059 5.20663 9.18769 4.76835 9.20392H4.48427C3.30504 9.17416 2.18227 8.69271 1.34778 7.85898C0.5133 7.02525 0.0308309 5.90291 0 4.72371V4.48427C0.0298073 3.30436 0.511825 2.18101 1.34642 1.34642C2.18101 0.511825 3.30436 0.0298073 4.48427 0H4.72371C7.17078 0.0649307 9.14305 2.0372 9.20392 4.48427V4.76023C9.18416 5.32455 9.06034 5.88038 8.83869 6.39973L8.78593 6.52147L11.9959 9.72743V12H9.73149L8.05546 10.324H6.13595ZM3.48597 2.23199C3.65691 2.22227 3.82804 2.24755 3.98888 2.30628C4.14971 2.365 4.29687 2.45594 4.42133 2.57353C4.54579 2.69111 4.64494 2.83287 4.7127 2.99011C4.78047 3.14735 4.81542 3.31677 4.81542 3.48799C4.81542 3.65922 4.78047 3.82864 4.7127 3.98588C4.64494 4.14312 4.54579 4.28487 4.42133 4.40246C4.29687 4.52005 4.14971 4.61099 3.98888 4.66971C3.82804 4.72844 3.65691 4.75372 3.48597 4.744C3.15231 4.744 2.83233 4.61145 2.5964 4.37553C2.36048 4.1396 2.22793 3.81962 2.22793 3.48597C2.22793 3.15231 2.36048 2.83233 2.5964 2.5964C2.83233 2.36048 3.15231 2.22793 3.48597 2.22793V2.23199ZM3.48597 3.06797C3.37511 3.06797 3.26879 3.11201 3.1904 3.1904C3.11201 3.26879 3.06797 3.37511 3.06797 3.48597C3.06797 3.59682 3.11201 3.70314 3.1904 3.78153C3.26879 3.85992 3.37511 3.90396 3.48597 3.90396C3.59682 3.90396 3.70314 3.85992 3.78153 3.78153C3.85992 3.70314 3.90396 3.59682 3.90396 3.48597C3.90396 3.37511 3.85992 3.26879 3.78153 3.1904C3.70314 3.11201 3.59682 3.06797 3.48597 3.06797ZM8.40446 9.48799L10.0764 11.164H11.16V10.0805L7.76327 6.6838L7.91343 6.40785L7.97836 6.2861C8.20561 5.81941 8.34359 5.30402 8.36794 4.75617V4.49645C8.3394 3.53682 7.94544 2.62432 7.26658 1.94546C6.58772 1.2666 5.67522 0.872641 4.71559 0.844099H4.49239C3.53276 0.872641 2.62027 1.2666 1.94141 1.94546C1.26255 2.62432 0.868583 3.53682 0.840041 4.49645V4.71559C0.857794 5.34342 1.03229 5.95685 1.34765 6.50002C1.66301 7.04319 2.10921 7.49887 2.64564 7.82557C3.18207 8.15227 3.79169 8.33961 4.41901 8.37055C5.04633 8.40149 5.67143 8.27504 6.2374 8.00271L6.35915 7.93777L6.97599 7.61312V9.48799H8.40446Z" fill="black"/>
</svg>
