<svg width="11" height="12" viewBox="0 0 11 12" fill="none" xmlns="http://www.w3.org/2000/svg">
<path d="M7.4611 0V2.2395H5.85612C5.90465 2.76205 6.1062 3.25474 6.42346 3.65039L6.49812 3.7325L5.93824 4.22893C5.47319 3.69818 5.18603 3.03511 5.11709 2.33281C4.80729 2.47465 4.6244 2.75832 4.602 3.15397V4.81866L6.14726 6.31913C6.46422 6.6254 6.66256 7.03397 6.70714 7.47247L6.71087 7.56578L6.7146 7.6591V10.8802C6.71475 11.1541 6.61457 11.4184 6.433 11.6234C6.25143 11.8284 6.00106 11.9597 5.72922 11.9925L5.66203 11.9963L5.58365 12L1.10465 11.9515C0.82089 11.9492 0.5486 11.8392 0.342817 11.6438C0.137035 11.4484 0.0131102 11.1822 -0.00390621 10.8989V10.8317V7.73375C-0.00400211 7.25428 0.180442 6.79317 0.511179 6.44603L0.582097 6.37885L2.2356 4.81493V3.30327L0.738862 2.03421L0.746327 1.77294C0.769095 1.30881 0.964198 0.869864 1.29347 0.541969C1.62275 0.214075 2.06251 0.0208176 2.52673 0L2.60885 0H7.4611ZM5.58365 9.5888C4.73457 9.58958 3.91684 9.26809 3.29563 8.68927L3.20978 8.60342C2.89307 8.28523 2.49941 8.05441 2.06708 7.93341C1.63475 7.81241 1.17846 7.80535 0.742594 7.91291V10.8317C0.742594 11.0221 0.88443 11.1788 1.06732 11.205H1.11584L5.57992 11.2535H5.62844C5.71426 11.2463 5.79496 11.2097 5.85686 11.1499C5.91876 11.09 5.95806 11.0106 5.9681 10.925L5.97183 10.8802V9.56641C5.84493 9.58134 5.71429 9.5888 5.58738 9.5888H5.58365ZM5.09843 0.746501H2.60885C2.35713 0.746265 2.11267 0.830851 1.91493 0.986607C1.71718 1.14236 1.57769 1.36021 1.51896 1.60498L1.50403 1.67216L1.50029 1.70202L2.87012 2.8591H3.88536L3.89283 2.82177C3.94893 2.51606 4.09279 2.23328 4.30687 2.00793C4.52095 1.78258 4.79599 1.62442 5.09843 1.55272V0.746501ZM9.7006 1.493C9.7996 1.493 9.89453 1.53233 9.96453 1.60232C10.0345 1.67232 10.0739 1.76726 10.0739 1.86625C10.0739 1.96524 10.0345 2.06018 9.96453 2.13018C9.89453 2.20018 9.7996 2.2395 9.7006 2.2395C9.60161 2.2395 9.50667 2.20018 9.43668 2.13018C9.36668 2.06018 9.32735 1.96524 9.32735 1.86625C9.32735 1.76726 9.36668 1.67232 9.43668 1.60232C9.50667 1.53233 9.60161 1.493 9.7006 1.493ZM8.58085 0.746501C8.67984 0.746501 8.77478 0.785825 8.84478 0.855823C8.91478 0.925821 8.9541 1.02076 8.9541 1.11975C8.9541 1.21874 8.91478 1.31368 8.84478 1.38368C8.77478 1.45368 8.67984 1.493 8.58085 1.493C8.48186 1.493 8.38692 1.45368 8.31692 1.38368C8.24693 1.31368 8.2076 1.21874 8.2076 1.11975C8.2076 1.02076 8.24693 0.925821 8.31692 0.855823C8.38692 0.785825 8.48186 0.746501 8.58085 0.746501ZM6.7146 0.746501H5.84493V1.493H6.7146V0.746501ZM9.7006 0C9.7996 0 9.89453 0.0393245 9.96453 0.109323C10.0345 0.179321 10.0739 0.274258 10.0739 0.37325C10.0739 0.472243 10.0345 0.56718 9.96453 0.637178C9.89453 0.707176 9.7996 0.746501 9.7006 0.746501C9.60161 0.746501 9.50667 0.707176 9.43668 0.637178C9.36668 0.56718 9.32735 0.472243 9.32735 0.37325C9.32735 0.274258 9.36668 0.179321 9.43668 0.109323C9.50667 0.0393245 9.60161 0 9.7006 0ZM5.9681 7.6591C5.96748 7.38337 5.86514 7.11756 5.6807 6.9126L5.62844 6.85661L3.85177 5.13593V3.6056H2.9821V5.13593L1.09345 6.92006C1.02998 6.97927 0.973618 7.04566 0.925487 7.11788C1.41592 7.05468 1.91425 7.10016 2.38513 7.2511C2.85602 7.40204 3.28792 7.65475 3.65021 7.99129L3.73606 8.07714C4.02484 8.36533 4.37727 8.58167 4.76496 8.70874C5.15265 8.83581 5.56476 8.87005 5.9681 8.80871V7.6591Z" fill="black"/>
</svg>
