<svg width="27" height="33" viewBox="0 0 27 33" fill="none" xmlns="http://www.w3.org/2000/svg">
<path d="M20 0.0292969V6.0293H15.7C15.83 7.4293 16.37 8.7493 17.22 9.8093L17.42 10.0293L15.92 11.3593C14.674 9.93733 13.9047 8.16086 13.72 6.2793C12.89 6.6593 12.4 7.4193 12.34 8.4793V12.9393L16.48 16.9593C17.3292 17.7799 17.8606 18.8745 17.98 20.0493L17.99 20.2993L18 20.5493V29.1793C18.0004 29.9129 17.732 30.6212 17.2456 31.1703C16.7591 31.7194 16.0883 32.0713 15.36 32.1593L15.18 32.1693L14.97 32.1793L2.97 32.0493C2.20977 32.0431 1.48026 31.7484 0.92893 31.2249C0.377605 30.7015 0.04559 29.9882 1.00136e-07 29.2293V29.0493V20.7493C-0.000256825 19.4647 0.493901 18.2293 1.38 17.2993L1.57 17.1193L6 12.9293V8.8793L1.99 5.4793L2.01 4.7793C2.071 3.53581 2.59371 2.35981 3.4759 1.48132C4.35808 0.602839 5.53627 0.0850708 6.78 0.0292969L7 0.0292969H20ZM14.97 25.7193C12.6952 25.7214 10.5043 24.8601 8.84 23.3093L8.61 23.0793C7.76149 22.2268 6.7068 21.6084 5.54852 21.2842C4.39023 20.96 3.16776 20.9411 2 21.2293V29.0493C2 29.5593 2.38 29.9793 2.87 30.0493H3L14.96 30.1793H15.09C15.3199 30.1601 15.5361 30.062 15.702 29.9016C15.8678 29.7412 15.9731 29.5284 16 29.2993L16.01 29.1793V25.6593C15.67 25.6993 15.32 25.7193 14.98 25.7193H14.97ZM13.67 2.0293H7C6.3256 2.02867 5.67066 2.25528 5.14088 2.67258C4.61109 3.08988 4.23736 3.67351 4.08 4.3293L4.04 4.5093L4.03 4.5893L7.7 7.6893H10.42L10.44 7.5893C10.5903 6.77023 10.9757 6.01262 11.5493 5.40888C12.1228 4.80514 12.8597 4.38138 13.67 4.1893V2.0293ZM26 4.0293C26.2652 4.0293 26.5196 4.13465 26.7071 4.32219C26.8946 4.50973 27 4.76408 27 5.0293C27 5.29451 26.8946 5.54887 26.7071 5.7364C26.5196 5.92394 26.2652 6.0293 26 6.0293C25.7348 6.0293 25.4804 5.92394 25.2929 5.7364C25.1054 5.54887 25 5.29451 25 5.0293C25 4.76408 25.1054 4.50973 25.2929 4.32219C25.4804 4.13465 25.7348 4.0293 26 4.0293ZM23 2.0293C23.2652 2.0293 23.5196 2.13465 23.7071 2.32219C23.8946 2.50973 24 2.76408 24 3.0293C24 3.29451 23.8946 3.54887 23.7071 3.7364C23.5196 3.92394 23.2652 4.0293 23 4.0293C22.7348 4.0293 22.4804 3.92394 22.2929 3.7364C22.1054 3.54887 22 3.29451 22 3.0293C22 2.76408 22.1054 2.50973 22.2929 2.32219C22.4804 2.13465 22.7348 2.0293 23 2.0293ZM18 2.0293H15.67V4.0293H18V2.0293ZM26 0.0292969C26.2652 0.0292969 26.5196 0.134654 26.7071 0.32219C26.8946 0.509726 27 0.76408 27 1.0293C27 1.29451 26.8946 1.54887 26.7071 1.7364C26.5196 1.92394 26.2652 2.0293 26 2.0293C25.7348 2.0293 25.4804 1.92394 25.2929 1.7364C25.1054 1.54887 25 1.29451 25 1.0293C25 0.76408 25.1054 0.509726 25.2929 0.32219C25.4804 0.134654 25.7348 0.0292969 26 0.0292969ZM16 20.5493C15.9983 19.8106 15.7242 19.0984 15.23 18.5493L15.09 18.3993L10.33 13.7893V9.6893H8V13.7893L2.94 18.5693C2.76997 18.7279 2.61895 18.9058 2.49 19.0993C3.80394 18.93 5.13905 19.0518 6.40064 19.4562C7.66222 19.8606 8.81936 20.5376 9.79 21.4393L10.02 21.6693C10.7937 22.4414 11.7379 23.021 12.7766 23.3615C13.8153 23.7019 14.9194 23.7936 16 23.6293V20.5493Z" fill="black"/>
</svg>
