<svg width="24" height="24" viewBox="0 0 24 24" fill="none" xmlns="http://www.w3.org/2000/svg">
<path d="M9 13.8C7.84 13.8 6.85 13.39 6.03 12.57C5.21 11.75 4.8 10.76 4.8 9.6C4.8 8.44 5.21 7.45 6.03 6.63C6.85 5.81 7.84 5.4 9 5.4C10.16 5.4 11.15 5.81 11.97 6.63C12.79 7.45 13.2 8.44 13.2 9.6C13.2 10.76 12.79 11.75 11.97 12.57C11.15 13.39 10.16 13.8 9 13.8ZM9 11.4C9.5 11.4 9.9248 11.2248 10.2744 10.8744C10.6248 10.5248 10.8 10.1 10.8 9.6C10.8 9.1 10.6248 8.6752 10.2744 8.3256C9.9248 7.9752 9.5 7.8 9 7.8C8.5 7.8 8.0752 7.9752 7.7256 8.3256C7.3752 8.6752 7.2 9.1 7.2 9.6C7.2 10.1 7.3752 10.5248 7.7256 10.8744C8.0752 11.2248 8.5 11.4 9 11.4ZM17.4 15C16.56 15 15.85 14.71 15.27 14.13C14.69 13.55 14.4 12.84 14.4 12C14.4 11.16 14.69 10.45 15.27 9.87C15.85 9.29 16.56 9 17.4 9C18.24 9 18.95 9.29 19.53 9.87C20.11 10.45 20.4 11.16 20.4 12C20.4 12.84 20.11 13.55 19.53 14.13C18.95 14.71 18.24 15 17.4 15ZM9.96 21.36C10.86 19.54 12.06 18.3248 13.56 17.7144C15.06 17.1048 16.34 16.8 17.4 16.8C17.86 16.8 18.31 16.84 18.75 16.92C19.19 17 19.62 17.1 20.04 17.22C20.52 16.46 20.9 15.64 21.18 14.76C21.46 13.88 21.6 12.96 21.6 12C21.6 9.32 20.67 7.05 18.81 5.19C16.95 3.33 14.68 2.4 12 2.4C9.32 2.4 7.05 3.33 5.19 5.19C3.33 7.05 2.4 9.32 2.4 12C2.4 12.9 2.5148 13.76 2.7444 14.58C2.9748 15.4 3.32 16.16 3.78 16.86C4.56 16.46 5.3852 16.15 6.2556 15.93C7.1252 15.71 8.04 15.6 9 15.6C9.64 15.6 10.2552 15.6548 10.8456 15.7644C11.4352 15.8748 12.02 16.02 12.6 16.2C12.14 16.44 11.7052 16.72 11.2956 17.04C10.8852 17.36 10.5 17.7 10.14 18.06C9.9 18.02 9.6952 18 9.5256 18H9C8.34 18 7.7 18.07 7.08 18.21C6.46 18.35 5.86 18.56 5.28 18.84C5.92 19.48 6.6352 20.0152 7.4256 20.4456C8.2152 20.8752 9.06 21.18 9.96 21.36ZM12 24C10.34 24 8.78 23.6848 7.32 23.0544C5.86 22.4248 4.59 21.57 3.51 20.49C2.43 19.41 1.5752 18.14 0.9456 16.68C0.3152 15.22 0 13.66 0 12C0 10.34 0.3152 8.78 0.9456 7.32C1.5752 5.86 2.43 4.59 3.51 3.51C4.59 2.43 5.86 1.5748 7.32 0.9444C8.78 0.3148 10.34 0 12 0C13.66 0 15.22 0.3148 16.68 0.9444C18.14 1.5748 19.41 2.43 20.49 3.51C21.57 4.59 22.4248 5.86 23.0544 7.32C23.6848 8.78 24 10.34 24 12C24 13.66 23.6848 15.22 23.0544 16.68C22.4248 18.14 21.57 19.41 20.49 20.49C19.41 21.57 18.14 22.4248 16.68 23.0544C15.22 23.6848 13.66 24 12 24Z" fill="white"/>
</svg>
