<svg width="10" height="13" viewBox="0 0 10 13" fill="none" xmlns="http://www.w3.org/2000/svg">
<path d="M8.4 0.529299C8.70617 0.528747 9.00097 0.645245 9.22406 0.854944C9.44714 1.06464 9.58163 1.35168 9.6 1.6573V10.5293C9.60055 10.8355 9.48405 11.1303 9.27436 11.3534C9.06466 11.5764 8.77762 11.7109 8.472 11.7293H8.4V12.5293H7.6V11.7293H2V12.5293H1.2V11.7293C0.893833 11.7298 0.599032 11.6134 0.375948 11.4037C0.152864 11.194 0.0183716 10.9069 1.9497e-06 10.6013V1.7293C-0.000549623 1.42313 0.115948 1.12833 0.325647 0.905245C0.535345 0.682161 0.822384 0.547669 1.128 0.529299H8.4ZM8.8 8.5293H0.800002V10.5293C0.799292 10.6276 0.834784 10.7227 0.899706 10.7964C0.964628 10.8702 1.05444 10.9175 1.152 10.9293H8.4C8.49827 10.93 8.59337 10.8945 8.66714 10.8296C8.74092 10.7647 8.78821 10.6749 8.8 10.5773V8.5293ZM4.8 9.3293C4.90609 9.3293 5.00783 9.37144 5.08284 9.44645C5.15786 9.52147 5.2 9.62321 5.2 9.7293C5.2 9.83538 5.15786 9.93713 5.08284 10.0121C5.00783 10.0872 4.90609 10.1293 4.8 10.1293C4.69391 10.1293 4.59217 10.0872 4.51716 10.0121C4.44214 9.93713 4.4 9.83538 4.4 9.7293C4.4 9.62321 4.44214 9.52147 4.51716 9.44645C4.59217 9.37144 4.69391 9.3293 4.8 9.3293ZM8.4 1.3293H5.2V7.7293H8.8V1.7293C8.80071 1.63103 8.76522 1.53593 8.7003 1.46216C8.63538 1.38838 8.54557 1.34109 8.448 1.3293H8.4ZM4.4 1.3293H1.2C1.10173 1.32859 1.00664 1.36408 0.932861 1.429C0.859086 1.49393 0.811792 1.58373 0.800002 1.6813V7.7293H4.4V1.3293ZM3.2 4.5293C3.30609 4.5293 3.40783 4.57144 3.48284 4.64646C3.55786 4.72147 3.6 4.82321 3.6 4.9293C3.6 5.03538 3.55786 5.13713 3.48284 5.21214C3.40783 5.28716 3.30609 5.3293 3.2 5.3293C3.09391 5.3293 2.99217 5.28716 2.91716 5.21214C2.84214 5.13713 2.8 5.03538 2.8 4.9293C2.8 4.82321 2.84214 4.72147 2.91716 4.64646C2.99217 4.57144 3.09391 4.5293 3.2 4.5293ZM6.4 4.5293C6.50609 4.5293 6.60783 4.57144 6.68284 4.64646C6.75786 4.72147 6.8 4.82321 6.8 4.9293C6.8 5.03538 6.75786 5.13713 6.68284 5.21214C6.60783 5.28716 6.50609 5.3293 6.4 5.3293C6.29391 5.3293 6.19217 5.28716 6.11716 5.21214C6.04214 5.13713 6 5.03538 6 4.9293C6 4.82321 6.04214 4.72147 6.11716 4.64646C6.19217 4.57144 6.29391 4.5293 6.4 4.5293Z" fill="black"/>
</svg>
