<svg width="89" height="64" viewBox="0 0 89 64" fill="none" xmlns="http://www.w3.org/2000/svg">
<path d="M22.5 64C16.4333 64 11.2507 61.9 6.952 57.7C2.65067 53.5 0.5 48.3667 0.5 42.3C0.5 37.1 2.06667 32.4667 5.2 28.4C8.33333 24.3333 12.4333 21.7333 17.5 20.6C19.1667 14.4667 22.5 9.5 27.5 5.7C32.5 1.9 38.1667 0 44.5 0C52.3 0 58.916 2.716 64.348 8.148C69.7827 13.5827 72.5 20.2 72.5 28C77.1 28.5333 80.9173 30.516 83.952 33.948C86.984 37.3827 88.5 41.4 88.5 46C88.5 51 86.7507 55.2507 83.252 58.752C79.7507 62.2507 75.5 64 70.5 64H48.5V35.4L52.1 38.9C52.8333 39.6333 53.7507 40 54.852 40C55.9507 40 56.9 39.6 57.7 38.8C58.4333 38.0667 58.8 37.1333 58.8 36C58.8 34.8667 58.4333 33.9333 57.7 33.2L47.3 22.8C46.5 22 45.5667 21.6 44.5 21.6C43.4333 21.6 42.5 22 41.7 22.8L31.3 33.2C30.5667 33.9333 30.184 34.8493 30.152 35.948C30.1173 37.0493 30.5 38 31.3 38.8C32.0333 39.5333 32.9493 39.9173 34.048 39.952C35.1493 39.984 36.1 39.6333 36.9 38.9L40.5 35.4V64H22.5Z" fill="url(#paint0_linear_228_5849)"/>
<defs>
<linearGradient id="paint0_linear_228_5849" x1="0.5" y1="32" x2="88.5" y2="32" gradientUnits="userSpaceOnUse">
<stop stop-color="#006CE4"/>
<stop offset="1" stop-color="#0797FF"/>
</linearGradient>
</defs>
</svg>
