<svg width="12" height="12" viewBox="0 0 12 12" fill="none" xmlns="http://www.w3.org/2000/svg">
<path d="M9.42857 2.26222e-06C9.51614 -0.000282185 9.60169 0.026264 9.67372 0.0760683C9.74574 0.125873 9.80078 0.196545 9.83143 0.278573L9.84429 0.321431L10.2729 2.03571C10.2886 2.09542 10.2914 2.15782 10.2808 2.21867C10.2702 2.27951 10.2466 2.33735 10.2116 2.38822C10.1766 2.4391 10.131 2.48181 10.078 2.51343C10.0249 2.54505 9.96569 2.56484 9.90429 2.57143H9.85714H6V3.42857H5.14286V2.57143H0.857153V11.1428H2.14287C1.93113 10.861 1.7922 10.5313 1.73837 10.1829C1.68455 9.83457 1.71749 9.4783 1.8343 9.14571L1.87715 9.03428L2.95715 6.44571L2.18572 4.90285C2.15586 4.84142 2.14112 4.77374 2.14272 4.70545C2.14432 4.63716 2.16223 4.57025 2.19493 4.51028C2.22764 4.45031 2.27421 4.39904 2.33076 4.36072C2.3873 4.3224 2.45219 4.29815 2.52001 4.29L2.57144 4.28571H8.57143C8.64023 4.28574 8.70802 4.30234 8.76906 4.33409C8.83009 4.36585 8.88259 4.41184 8.9221 4.46816C8.96161 4.52449 8.98698 4.5895 8.99607 4.6577C9.00515 4.72591 8.99768 4.79529 8.97429 4.86L8.95286 4.90285L8.40857 6H9C9.55236 5.99946 10.0836 6.21224 10.4828 6.59393C10.8821 6.97562 11.1186 7.49674 11.1429 8.04856V9.85713H10.2857V8.14285C10.2863 7.81481 10.1615 7.49895 9.93681 7.25994C9.71213 7.02092 9.40459 6.87682 9.07714 6.85714H8.35715L9.26572 9.03428C9.40862 9.3785 9.45928 9.75404 9.41268 10.1238C9.36608 10.4936 9.22384 10.8448 9 11.1428H10.2857V12H0.428582C0.323292 12.0007 0.221406 11.9627 0.142361 11.8932C0.0633156 11.8236 0.0126436 11.7274 1.1191e-05 11.6228V0.428573C-0.000749338 0.323283 0.0372773 0.221397 0.106837 0.142352C0.176397 0.0633067 0.272621 0.0126347 0.377154 2.26222e-06H0.428582H9.42857ZM4.13572 8.57142C3.70493 8.56586 3.2785 8.65818 2.88858 8.84142L2.67429 9.36428C2.63431 9.45769 2.60553 9.55552 2.58858 9.65571L2.57572 9.75428L2.57144 9.85713C2.57085 10.1852 2.69566 10.501 2.92034 10.74C3.14502 10.9791 3.45256 11.1232 3.78001 11.1428H7.29L7.38857 11.1386C7.63849 11.1186 7.87711 11.026 8.07509 10.8722C8.27307 10.7184 8.42176 10.5101 8.50286 10.2728C7.77429 10.2214 7.24715 9.98571 6.42858 9.45856L6.27 9.35999C5.35286 8.75999 4.90715 8.57142 4.13572 8.57142ZM7.42715 6.85714H3.71572L3.32144 7.79571C3.58924 7.73996 3.86218 7.71266 4.13572 7.71428C5.07429 7.71428 5.64 7.93714 6.6 8.54999L6.76286 8.65714C7.50857 9.14142 7.93715 9.35142 8.49 9.41142L8.47286 9.36428L7.42715 6.85714ZM7.87715 5.14285H3.26572L3.69429 6H7.44857L7.87715 5.14285ZM9.09429 0.857144H0.857153V1.71429H9.30857L9.09429 0.857144Z" fill="black"/>
</svg>
