<svg width="31" height="30" viewBox="0 0 31 30" fill="none" xmlns="http://www.w3.org/2000/svg">
<path d="M25.5 1.0293C26.5609 1.0293 27.5783 1.45072 28.3284 2.20087C29.0786 2.95102 29.5 3.96843 29.5 5.0293V19.0293C29.5 20.0902 29.0786 21.1076 28.3284 21.8577C27.5783 22.6079 26.5609 23.0293 25.5 23.0293H19.18L15.5 27.5293L11.82 23.0293H5.5C4.43913 23.0293 3.42172 22.6079 2.67157 21.8577C1.92143 21.1076 1.5 20.0902 1.5 19.0293V5.0293C1.5 3.96843 1.92143 2.95102 2.67157 2.20087C3.42172 1.45072 4.43913 1.0293 5.5 1.0293H25.5Z" stroke="black" stroke-width="2"/>
</svg>
