<svg width="12" height="12" viewBox="0 0 12 12" fill="none" xmlns="http://www.w3.org/2000/svg">
<path d="M11.2454 0V0.799979C9.86634 0.784066 8.53741 1.31665 7.55099 2.28056C6.56458 3.24447 6.00148 4.56075 5.98557 5.93984C5.96965 7.31893 6.50223 8.64786 7.46614 9.63427C8.43006 10.6207 9.74634 11.1838 11.1254 11.1997H11.2454V11.9997C9.65417 12.0161 8.12155 11.3998 6.98474 10.2862C5.84792 9.17265 5.20003 7.65309 5.18359 6.06184C5.16714 4.47058 5.7835 2.93797 6.89706 1.80115C8.01062 0.664337 9.53017 0.016443 11.1214 0H11.2454ZM0.845703 0H1.64568V2.39994H2.44566V0H3.24564V2.39994H4.04562V0H4.8456V3.5999C4.84569 4.06095 4.68649 4.50787 4.39493 4.86503C4.10337 5.22219 3.69737 5.46764 3.24564 5.55985V11.9997H2.44566V5.55985C2.02505 5.47345 1.64332 5.25423 1.35671 4.93449C1.0701 4.61476 0.893772 4.21142 0.853703 3.7839L0.845703 3.6879V3.5999V0ZM11.2454 2.39994V3.19991C10.8777 3.19361 10.5124 3.25979 10.1703 3.39468C9.82817 3.52956 9.51597 3.73051 9.25152 3.98605C8.71743 4.50214 8.41023 5.20925 8.3975 5.95184C8.38477 6.69443 8.66755 7.41166 9.18364 7.94575C9.69973 8.47983 10.4068 8.78703 11.1494 8.79976H11.2454V9.59974C10.7727 9.60683 10.3032 9.52074 9.86369 9.34638C9.42422 9.17202 9.02339 8.91281 8.68409 8.58354C7.99885 7.91855 7.60584 7.00859 7.59152 6.05384C7.5772 5.09908 7.94274 4.17775 8.60773 3.49251C9.27271 2.80727 10.1827 2.41426 11.1374 2.39994H11.2454ZM4.04562 3.19991H1.64568V3.6599C1.64489 3.81748 1.67515 3.97368 1.73473 4.11957C1.7943 4.26546 1.88203 4.39818 1.9929 4.51017C2.21681 4.73633 2.5214 4.86428 2.83965 4.86587C3.1579 4.86746 3.46375 4.74256 3.68991 4.51865C3.91608 4.29474 4.04403 3.99015 4.04562 3.6719V3.5999V3.19991Z" fill="black"/>
</svg>
