<svg width="12" height="13" viewBox="0 0 12 13" fill="none" xmlns="http://www.w3.org/2000/svg">
<path d="M10.41 0.529297C10.719 0.530374 11.0173 0.642727 11.2503 0.845784C11.4833 1.04884 11.6353 1.32902 11.6786 1.63501C11.8929 3.16073 12 4.79358 12 6.5293C12 8.26501 11.8929 9.89787 11.6786 11.4236C11.6366 11.7168 11.4948 11.9866 11.2769 12.1873C11.059 12.388 10.7785 12.5073 10.4829 12.525L10.41 12.5293H1.58571C1.27668 12.5282 0.978368 12.4159 0.745403 12.2128C0.512438 12.0098 0.360406 11.7296 0.317143 11.4236C0.107143 9.89787 0 8.26501 0 6.5293C0 4.79358 0.107143 3.16073 0.321429 1.63501C0.363353 1.34178 0.505243 1.07202 0.723111 0.871329C0.94098 0.670641 1.22146 0.551336 1.51714 0.533583L1.58571 0.529297H10.41ZM10.41 1.38644H1.59429C1.49029 1.38542 1.38947 1.42224 1.31062 1.49005C1.23177 1.55787 1.18027 1.65204 1.16571 1.75501C0.95264 3.3374 0.849536 4.93265 0.857143 6.5293C0.857143 8.22644 0.96 9.81644 1.17 11.3036C1.18346 11.3968 1.22728 11.4831 1.29468 11.5489C1.36208 11.6148 1.4493 11.6566 1.54286 11.6679L1.59 11.6722H10.4057C10.5097 11.6732 10.6105 11.6364 10.6894 11.5685C10.7682 11.5007 10.8197 11.4066 10.8343 11.3036C11.04 9.81644 11.1429 8.22644 11.1429 6.5293C11.1429 4.83215 11.04 3.24215 10.83 1.75501C10.8165 1.66175 10.7727 1.57552 10.7053 1.50966C10.6379 1.44381 10.5507 1.40201 10.4571 1.39073L10.41 1.38644ZM6 2.67215C7.02298 2.67215 8.00406 3.07853 8.72741 3.80188C9.45077 4.52524 9.85714 5.50632 9.85714 6.5293C9.85714 7.55227 9.45077 8.53335 8.72741 9.25671C8.00406 9.98006 7.02298 10.3864 6 10.3864C4.97702 10.3864 3.99594 9.98006 3.27259 9.25671C2.54923 8.53335 2.14286 7.55227 2.14286 6.5293C2.14286 5.50632 2.54923 4.52524 3.27259 3.80188C3.99594 3.07853 4.97702 2.67215 6 2.67215ZM6 3.5293C5.20435 3.5293 4.44129 3.84537 3.87868 4.40798C3.31607 4.97059 3 5.73365 3 6.5293C3 7.32495 3.31607 8.08801 3.87868 8.65062C4.44129 9.21323 5.20435 9.5293 6 9.5293C6.79565 9.5293 7.55871 9.21323 8.12132 8.65062C8.68393 8.08801 9 7.32495 9 6.5293C9 5.73365 8.68393 4.97059 8.12132 4.40798C7.55871 3.84537 6.79565 3.5293 6 3.5293ZM3.94286 5.92073C4.52571 6.00644 5.07429 6.26358 5.52 6.67073L5.71714 6.86358C6.26739 7.37591 6.95579 7.71563 7.69714 7.84073C7.47164 8.13229 7.17502 8.36103 6.83571 8.50501C6.14765 8.27241 5.52277 7.88369 5.01 7.3693C4.70007 7.05933 4.30189 6.85276 3.87 6.77787C3.83201 6.49025 3.85687 6.19781 3.94286 5.92073ZM5.26714 4.51501C5.84143 4.75073 6.37286 5.09787 6.82714 5.55215C7.17207 5.8995 7.6261 6.11743 8.11286 6.1693C8.16084 6.45411 8.15063 6.74568 8.08286 7.02644C7.42674 6.97048 6.80749 6.69928 6.32143 6.25501L6.12 6.06215C5.62969 5.60525 5.02834 5.28463 4.37571 5.13215C4.61504 4.85343 4.92201 4.64091 5.26714 4.51501ZM2.14286 2.24358C2.25652 2.24358 2.36553 2.28874 2.4459 2.36911C2.52628 2.44948 2.57143 2.55849 2.57143 2.67215C2.57143 2.78582 2.52628 2.89483 2.4459 2.9752C2.36553 3.05557 2.25652 3.10073 2.14286 3.10073C2.02919 3.10073 1.92018 3.05557 1.83981 2.9752C1.75944 2.89483 1.71429 2.78582 1.71429 2.67215C1.71429 2.55849 1.75944 2.44948 1.83981 2.36911C1.92018 2.28874 2.02919 2.24358 2.14286 2.24358Z" fill="black"/>
</svg>
