<svg width="16" height="16" viewBox="0 0 16 16" fill="none" xmlns="http://www.w3.org/2000/svg">
<path d="M8.15771 14.304V16H9.85372L13.9897 11.864L12.2937 10.168L8.15771 14.304Z" fill="white"/>
<path d="M12.9577 4.8L8.15771 0H1.75771C0.877715 0 0.165715 0.72 0.165715 1.6L0.157715 14.4C0.157715 15.28 0.869715 16 1.74971 16H6.55771V13.64L12.9577 7.24V4.8ZM7.35772 5.6V1.2L11.7577 5.6H7.35772Z" fill="white"/>
<path d="M15.1258 9.59985L14.5578 9.03185C14.2458 8.71985 13.7418 8.71985 13.4298 9.03185L12.8618 9.59985L14.5578 11.2959L15.1258 10.7279C15.4378 10.4159 15.4378 9.91185 15.1258 9.59985Z" fill="white"/>
</svg>
