<svg width="16" height="13" viewBox="0 0 16 13" fill="none" xmlns="http://www.w3.org/2000/svg">
<path d="M8.23242 11.228V12.5H9.92842L14.0644 9.39798L12.3684 8.12598L8.23242 11.228Z" fill="white"/>
<path d="M13.0324 4.1L8.23242 0.5H1.83242C0.952422 0.5 0.240422 1.04 0.240422 1.7L0.232422 11.3C0.232422 11.96 0.944422 12.5 1.82442 12.5H6.63242V10.73L13.0324 5.93V4.1ZM7.43242 4.7V1.4L11.8324 4.7H7.43242Z" fill="white"/>
<path d="M15.2005 7.70013L14.6325 7.27413C14.3205 7.04013 13.8165 7.04013 13.5045 7.27413L12.9365 7.70013L14.6325 8.97213L15.2005 8.54613C15.5125 8.31213 15.5125 7.93413 15.2005 7.70013Z" fill="white"/>
</svg>
