<svg width="12" height="12" viewBox="0 0 12 12" fill="none" xmlns="http://www.w3.org/2000/svg">
<path d="M11.6 1.0445e-05C11.6983 -0.000699381 11.7934 0.0347921 11.8671 0.0997144C11.9409 0.164637 11.9882 0.254446 12 0.35201V11.6C12.0007 11.6983 11.9652 11.7934 11.9003 11.8671C11.8354 11.9409 11.7456 11.9882 11.648 12H0.40001C0.301739 12.0007 0.206645 11.9652 0.13287 11.9003C0.0590945 11.8354 0.0118007 11.7456 1.0445e-05 11.648V0.40001C-0.000699381 0.301739 0.0347921 0.206645 0.0997144 0.13287C0.164637 0.0590945 0.254446 0.0118007 0.35201 1.0445e-05H0.40001H11.6ZM0.800009 0.800009V11.2H5.6V0.800009H0.800009ZM3.6 4.4V7.032L4.32 6.316L4.88 6.884L3.48 8.284C3.4112 8.35162 3.32028 8.39211 3.22399 8.39799C3.1277 8.40387 3.03252 8.37475 2.95601 8.316L2.91601 8.284L1.51601 6.884L2.08401 6.316L2.80001 7.04V4.4H3.6ZM8.556 3.8C8.62594 3.74616 8.71173 3.71696 8.8 3.71696C8.88826 3.71696 8.97405 3.74616 9.044 3.8L9.08399 3.836L10.484 5.236L9.91599 5.8L9.2 5.08V7.6H8.4V5.08L7.68 5.8L7.12 5.236L8.52 3.836L8.556 3.8ZM6.4 11.2H11.2V0.800009H6.4V11.2Z" fill="black"/>
</svg>
