<svg width="12" height="13" viewBox="0 0 12 13" fill="none" xmlns="http://www.w3.org/2000/svg">
<path d="M3.96 0.5293V3.3293L4.72 11.6573V11.7253C4.72 11.9247 4.64591 12.1169 4.51212 12.2648C4.37834 12.4126 4.19439 12.5055 3.996 12.5253C3.97207 12.5277 3.94805 12.529 3.924 12.5293H0.728C0.528888 12.5104 0.343971 12.4179 0.209357 12.27C0.0747437 12.1221 9.94839e-05 11.9293 0 11.7293V11.6933L0.76 3.2933V0.5293H3.96ZM6.36 0.5293H6.42C6.61031 0.544003 6.78909 0.626267 6.92406 0.761238C7.05903 0.896208 7.1413 1.07499 7.156 1.2653L7.16 1.3293V4.1773L6.36 7.3773V12.5293H5.56V7.3133L5.572 7.2493L5.584 7.1853L6.248 4.5293H4.76V0.5293H6.36ZM10.76 0.5293C10.9622 0.528731 11.1571 0.604731 11.3055 0.742017C11.4539 0.879303 11.5448 1.06769 11.56 1.2693V11.7293C11.5606 11.9315 11.4846 12.1264 11.3473 12.2748C11.21 12.4232 11.0216 12.5141 10.82 12.5293H7.96V11.7293H10.76V10.9293H7.96V10.1293H10.76V9.3293H7.96V8.5293H10.76V7.7293H7.96V6.9293H10.76V6.1293H7.96V5.3293H10.76V4.5293H7.96V3.7293H10.76V2.9293H7.96V2.1293H10.76V1.3293H7.96V0.5293H10.76ZM3.196 3.7293H1.52L0.8 11.7293H3.924V11.7053L3.196 3.7293ZM6.36 1.3293H5.56V3.7293H6.36V1.3293ZM3.16 1.3293H1.56V2.9293H3.16V1.3293Z" fill="black"/>
</svg>
