<svg width="11" height="12" viewBox="0 0 11 12" fill="none" xmlns="http://www.w3.org/2000/svg">
<path d="M8.40098 9.39102e-07C8.91651 -0.000498328 9.41232 0.198093 9.78496 0.55434C10.1576 0.910586 10.3783 1.39697 10.401 1.912V10C10.4015 10.5155 10.2029 11.0113 9.84664 11.384C9.49039 11.7566 9.00401 11.9773 8.48898 12H6.40098V11.2H8.40098C8.70715 11.2006 9.00195 11.0841 9.22503 10.8744C9.44811 10.6647 9.58261 10.3776 9.60098 10.072V2C9.60153 1.69383 9.48503 1.39903 9.27533 1.17595C9.06563 0.952863 8.77859 0.818371 8.47298 0.800001H2.00098C1.69481 0.799449 1.40001 0.915947 1.17692 1.12565C0.95384 1.33534 0.819347 1.62238 0.800977 1.928V10C0.800426 10.3062 0.916924 10.601 1.12662 10.8241C1.33632 11.0471 1.62336 11.1816 1.92898 11.2H4.80098V8H4.00098C3.7988 8.00057 3.60391 7.92457 3.45549 7.78728C3.30707 7.65 3.21614 7.46161 3.20098 7.26V4.8C3.20041 4.59782 3.27641 4.40293 3.41369 4.25451C3.55098 4.1061 3.73937 4.01516 3.94098 4H6.40098C6.60315 3.99943 6.79805 4.07543 6.94646 4.21272C7.09488 4.35 7.18581 4.53839 7.20098 4.74V7.2C7.20155 7.40218 7.12555 7.59707 6.98826 7.74549C6.85097 7.8939 6.66258 7.98484 6.46098 8H5.60098V11.2C5.60155 11.4022 5.52555 11.5971 5.38826 11.7455C5.25097 11.8939 5.06258 11.9848 4.86098 12H2.00098C1.48545 12.0005 0.989632 11.8019 0.616989 11.4457C0.244347 11.0894 0.0236607 10.603 0.000977502 10.088V2C0.000478235 1.48447 0.19907 0.988655 0.555316 0.616013C0.911562 0.24337 1.39794 0.0226841 1.91298 9.39102e-07H2.00098H8.40098ZM6.40098 4.8H4.00098V7.2H4.80098V5.6H5.60098V7.2H6.40098V4.8Z" fill="black"/>
</svg>
