<svg width="179" height="64" viewBox="0 0 179 64" fill="none" xmlns="http://www.w3.org/2000/svg">
<path d="M47.7036 37.0928C50.5499 28.7529 46.0967 19.6846 37.7567 16.8381C29.4169 13.9918 20.3487 18.4451 17.5022 26.785C14.6558 35.1248 19.1091 44.193 27.4489 47.0395C35.7888 49.886 44.8571 45.4326 47.7036 37.0928Z" fill="#202843"/>
<path d="M19.0924 40.4287C21.5754 39.2437 30.0271 35.0954 31.6925 34.1192C33.0608 33.3219 35.0978 32.1465 35.0978 32.1465L35.9621 33.9077L37.2815 42.5868L38.2893 42.0049L38.9598 29.8824C40.9958 28.6092 42.7902 27.3705 44.6683 26.0741C45.3564 25.599 46.056 25.1162 46.7827 24.6209C46.5527 24.1762 46.3021 23.7428 46.0322 23.3223C45.24 23.7041 44.4722 24.0684 43.7167 24.4266C41.6549 25.4049 39.685 26.3395 37.5646 27.4663L26.731 21.9856L25.7232 22.5673L32.5798 28.0496L33.6713 29.6756L33.673 29.6785C33.673 29.6785 31.6366 30.8551 30.2618 31.6413C28.5835 32.5956 20.7638 37.8419 18.4971 39.3992C18.6829 39.7498 18.8815 40.0931 19.0924 40.4287Z" fill="#FFC94C"/>
<path fill-rule="evenodd" clip-rule="evenodd" d="M159.821 28.3878V26.6361H162.909V42.5928H159.732V40.7806C158.599 42.1002 157.006 42.9723 154.702 42.9723C150.166 42.9723 147.251 39.3569 147.251 34.6239C147.251 29.924 150.166 26.2756 154.702 26.2756C156.718 26.2756 158.587 27.0362 159.821 28.3878ZM159.609 31.5193C158.668 30.128 157.078 29.2717 155.209 29.2717C152.401 29.2717 150.466 31.6494 150.466 34.6239C150.466 37.5984 152.33 40.0472 155.209 40.0472C157.132 40.0472 158.689 38.9511 159.609 37.5303V31.5193Z" fill="#202843"/>
<path d="M140.858 22.5284C140.858 21.3022 141.863 20.3108 143.102 20.3108C144.302 20.3108 145.32 21.3283 145.32 22.5284C145.32 23.7677 144.328 24.7722 143.102 24.7722C141.863 24.7722 140.858 23.7677 140.858 22.5284Z" fill="#202843"/>
<path d="M141.439 26.636H144.739V42.5926H141.439V26.636Z" fill="#202843"/>
<path fill-rule="evenodd" clip-rule="evenodd" d="M134.988 20.7197H138.218V42.5928H135.041V40.7805C133.909 42.1002 132.315 42.9724 130.011 42.9724C125.475 42.9724 122.56 39.3569 122.56 34.6239C122.56 29.924 125.475 26.2757 130.011 26.2757C131.951 26.2757 133.755 26.98 134.988 28.2377V20.7197ZM134.917 31.5194C133.977 30.128 132.388 29.2717 130.518 29.2717C127.71 29.2717 125.775 31.6494 125.775 34.6239C125.775 37.5984 127.639 40.0473 130.518 40.0473C132.441 40.0473 133.998 38.9512 134.917 37.5303V31.5194Z" fill="#202843"/>
<path fill-rule="evenodd" clip-rule="evenodd" d="M113.262 42.9984C114.703 42.995 116.011 42.7254 117.186 42.1894C118.368 41.6501 119.405 40.8722 120.297 39.8558L118.326 37.7556L118.322 37.7604C117.667 38.4558 116.931 38.9887 116.111 39.4194C115.298 39.8257 114.371 40.0301 113.328 40.0301C110.864 40.0301 108.719 38.1734 108.409 35.7293H120.817C120.82 35.6938 120.822 35.6582 120.825 35.6226C120.853 35.2418 120.868 34.8618 120.868 34.4783C120.868 29.9211 117.598 26.2224 113.074 26.2224C108.517 26.2224 105.083 29.822 105.083 34.6104C105.083 39.4944 108.512 42.9934 113.262 42.9984ZM108.488 33.0029H117.495C117.177 30.7836 115.352 29.1283 113.006 29.1283C111.831 29.1283 110.757 29.6371 109.945 30.3942C109.166 31.1207 108.635 32.0701 108.488 33.0029Z" fill="#202843"/>
<path fill-rule="evenodd" clip-rule="evenodd" d="M91.0756 40.9932V48.5112H87.8462V26.6381H91.0225V28.4503C92.1555 27.1307 93.749 26.2585 96.053 26.2585C100.589 26.2585 103.504 29.874 103.504 34.6068C103.504 39.3069 100.589 42.9552 96.053 42.9552C94.1126 42.9552 92.3087 42.2508 91.0756 40.9932ZM91.1469 37.7114C92.0869 39.1029 93.6765 39.959 95.5462 39.959C98.3543 39.959 100.289 37.5813 100.289 34.6068C100.289 31.6323 98.4253 29.1836 95.5462 29.1836C93.6226 29.1836 92.0662 30.2797 91.1469 31.7006V37.7114Z" fill="#202843"/>
<path d="M76.3952 34.3892L70.767 26.637H74.751L78.5053 31.925L82.2595 26.637H86.1904L80.5376 34.423L86.4521 42.593H82.4636L78.463 36.9457L74.4623 42.593H70.4561L76.3952 34.3892Z" fill="#202843"/>
<path d="M60.1339 33.2323H68.4226V30.1014H60.1339V24.4131H69.1401V21.2822H56.5273V42.593H69.2052V39.4622H60.1339V33.2323Z" fill="#202843"/>
</svg>
