<svg width="24" height="24" viewBox="0 0 24 24" fill="none" xmlns="http://www.w3.org/2000/svg">
<g clip-path="url(#clip0_258_3342)">
<path d="M22.5 0C22.8978 0 23.2794 0.158035 23.5607 0.43934C23.842 0.720644 24 1.10218 24 1.5V22.5C24 22.8978 23.842 23.2794 23.5607 23.5607C23.2794 23.842 22.8978 24 22.5 24H1.5C1.10218 24 0.720644 23.842 0.43934 23.5607C0.158035 23.2794 0 22.8978 0 22.5V1.5C0 1.10218 0.158035 0.720644 0.43934 0.43934C0.720644 0.158035 1.10218 0 1.5 0L22.5 0Z" fill="url(#paint0_linear_258_3342)"/>
<path d="M17.205 12H13.875V9.75C13.875 8.7975 14.34 7.875 15.825 7.875H17.34V4.92C17.34 4.92 15.9675 4.6875 14.655 4.6875C11.9175 4.6875 10.125 6.345 10.125 9.3525V12H7.07996V15.465H10.125V24H13.875V15.465H16.6725L17.205 12Z" fill="white"/>
</g>
<defs>
<linearGradient id="paint0_linear_258_3342" x1="0" y1="12" x2="24" y2="12" gradientUnits="userSpaceOnUse">
<stop stop-color="#006CE4"/>
<stop offset="1" stop-color="#0797FF"/>
</linearGradient>
<clipPath id="clip0_258_3342">
<rect width="24" height="24" rx="8" fill="white"/>
</clipPath>
</defs>
</svg>
