<svg width="9" height="12" viewBox="0 0 9 12" fill="none" xmlns="http://www.w3.org/2000/svg">
<path d="M4.68665 3.36087e-08C5.78624 -0.000137587 6.84381 0.422376 7.64061 1.18014C8.43742 1.93791 8.91247 2.97295 8.96752 4.07116C9.02257 5.16937 8.6534 6.24673 7.93637 7.08038C7.21934 7.91403 6.20931 8.44018 5.11522 8.55V11.1429H7.68665V12H1.68665V11.1429H4.25807V8.55C3.16398 8.44018 2.15396 7.91403 1.43692 7.08038C0.719894 6.24673 0.350721 5.16937 0.405769 4.07116C0.460817 2.97295 0.935875 1.93791 1.73268 1.18014C2.52948 0.422376 3.58705 -0.000137587 4.68665 3.36087e-08ZM5.30379 5.41286C5.14264 5.50132 4.96429 5.55394 4.78093 5.56714L4.68665 5.57143V5.57571C4.54538 5.57628 4.40561 5.60466 4.27531 5.65924C4.14502 5.71382 4.02675 5.79352 3.92725 5.89381C3.82776 5.9941 3.749 6.113 3.69546 6.24373C3.64192 6.37446 3.61465 6.51445 3.61522 6.65571C3.61522 7.15714 3.9495 7.58143 4.40807 7.70143C4.9747 7.74831 5.54409 7.65337 6.06484 7.42516C6.5856 7.19696 7.04134 6.84267 7.39093 6.39429C6.98408 6.46988 6.56377 6.41582 6.18929 6.23973C5.81481 6.06364 5.50508 5.77441 5.30379 5.41286ZM2.33807 3.42857C2.07794 3.42797 1.82633 3.52128 1.62949 3.69135C1.43265 3.86142 1.30381 4.09682 1.26665 4.35429L1.25807 4.39714C1.27631 4.95103 1.42854 5.49224 1.70172 5.97442C1.97491 6.4566 2.3609 6.86537 2.82665 7.16571C2.78126 6.99951 2.7582 6.828 2.75807 6.65571C2.75807 5.97429 3.1095 5.37429 3.63665 5.02714C3.54506 4.89767 3.47822 4.75236 3.4395 4.59857L3.41807 4.49571L3.41379 4.44429L3.40093 4.31571C3.35575 4.06676 3.22459 3.84157 3.03035 3.67944C2.8361 3.51731 2.59109 3.42852 2.33807 3.42857ZM7.03093 5.57143C7.27779 5.57226 7.51748 5.48851 7.71009 5.33411C7.9027 5.17971 8.03661 4.96398 8.0895 4.72286C8.17845 4.02721 8.05193 3.32101 7.727 2.69951C7.40207 2.07801 6.89437 1.5711 6.27236 1.24714C6.35807 1.46143 6.40093 1.69714 6.40093 1.94143C6.40111 2.23277 6.33571 2.52042 6.20959 2.78305C6.08347 3.04568 5.89985 3.27656 5.67236 3.45857C5.80357 3.61572 5.89535 3.80193 5.94008 4.0017C5.98481 4.20148 5.98118 4.40905 5.9295 4.60714V4.57714C5.95525 4.85069 6.0827 5.10461 6.28664 5.28872C6.49059 5.47283 6.75619 5.57371 7.03093 5.57143ZM4.68665 3.85714C4.57298 3.85714 4.46397 3.9023 4.3836 3.98267C4.30323 4.06304 4.25807 4.17205 4.25807 4.28571C4.25807 4.39938 4.30323 4.50839 4.3836 4.58876C4.46397 4.66913 4.57298 4.71429 4.68665 4.71429C4.80031 4.71429 4.90932 4.66913 4.98969 4.58876C5.07006 4.50839 5.11522 4.39938 5.11522 4.28571C5.11522 4.17205 5.07006 4.06304 4.98969 3.98267C4.90932 3.9023 4.80031 3.85714 4.68665 3.85714ZM4.5495 0.857143C3.94647 0.881769 3.36063 1.06514 2.85117 1.38872C2.34172 1.71231 1.92671 2.16464 1.64807 2.7L1.71665 2.67C1.91707 2.60365 2.12696 2.57035 2.33807 2.57143C2.95093 2.57143 3.50379 2.85857 3.8595 3.3C4.09098 3.10518 4.3841 2.99887 4.68665 3C4.93007 2.94867 5.14832 2.81487 5.30449 2.62121C5.46067 2.42756 5.54519 2.18592 5.54379 1.93714C5.54439 1.67701 5.45108 1.4254 5.28101 1.22856C5.11094 1.03172 4.87554 0.902876 4.61807 0.865714L4.5495 0.861429V0.857143Z" fill="black"/>
</svg>
