<svg width="8" height="12" viewBox="0 0 8 12" fill="none" xmlns="http://www.w3.org/2000/svg">
<path d="M1.72832 10.4887H0.972656V5.57683C0.972642 4.66813 1.27043 3.78448 1.82044 3.06114C2.37045 2.33781 3.14236 1.81466 4.018 1.57179C4.05528 1.38866 4.13726 1.21759 4.25665 1.07381C4.37603 0.93003 4.52912 0.817999 4.70227 0.74769C4.87543 0.677381 5.06328 0.650976 5.2491 0.670826C5.43493 0.690675 5.61297 0.756164 5.76737 0.861461L6.7724 0L7.26359 0.574307L6.27744 1.42065H7.77366V2.17632H6.1981C6.14176 2.33587 6.05042 2.48079 5.93077 2.60043C5.81113 2.72008 5.66621 2.81142 5.50666 2.86776V2.95844C6.10513 3.04514 6.65581 3.33431 7.06695 3.77776C7.47808 4.22121 7.72484 4.79216 7.76611 5.39546L7.77366 5.48615V11.2443C7.7742 11.4353 7.70241 11.6194 7.57273 11.7596C7.44305 11.8998 7.2651 11.9857 7.07467 12H3.23966C3.04869 12.0005 2.86459 11.9287 2.7244 11.7991C2.58421 11.6694 2.49831 11.4914 2.48399 11.301V8.97733H1.72832V10.4887ZM5.12883 3.68766C4.65601 3.6878 4.20043 3.86523 3.85207 4.18491C3.5037 4.5046 3.28788 4.94329 3.24722 5.41436L3.23966 5.49748V11.2443H7.01799V5.50881C7.00037 5.01966 6.79358 4.55643 6.44119 4.21672C6.08879 3.87701 5.6183 3.68734 5.12883 3.68766ZM4.12757 2.32746C3.44923 2.5361 2.85317 2.95175 2.42292 3.51615C1.99267 4.08056 1.74979 4.76544 1.72832 5.47481V8.22166H2.48399V5.47859C2.5069 4.85953 2.74639 4.26815 3.16069 3.80759C3.57498 3.34703 4.1378 3.04651 4.75099 2.95844V2.86776C4.48288 2.77203 4.26043 2.57924 4.12757 2.32746ZM5.12883 1.42065C5.02862 1.42065 4.93252 1.46046 4.86166 1.53132C4.7908 1.60218 4.75099 1.69828 4.75099 1.79849C4.75099 1.8987 4.7908 1.9948 4.86166 2.06566C4.93252 2.13651 5.02862 2.17632 5.12883 2.17632C5.22903 2.17632 5.32514 2.13651 5.396 2.06566C5.46685 1.9948 5.50666 1.8987 5.50666 1.79849C5.50666 1.69828 5.46685 1.60218 5.396 1.53132C5.32514 1.46046 5.22903 1.42065 5.12883 1.42065Z" fill="black"/>
</svg>
