<svg width="10" height="13" viewBox="0 0 10 13" fill="none" xmlns="http://www.w3.org/2000/svg">
<path d="M8.85449 0.5293C9.05667 0.528731 9.25156 0.604731 9.39998 0.742017C9.5484 0.879303 9.63933 1.06769 9.65449 1.2693V11.7293C9.65506 11.9315 9.57906 12.1264 9.44177 12.2748C9.30449 12.4232 9.1161 12.5141 8.91449 12.5293H1.6545C1.45232 12.5299 1.25743 12.4539 1.10901 12.3166C0.960591 12.1793 0.869658 11.9909 0.854495 11.7893V1.3293C0.853926 1.12712 0.929926 0.932231 1.06721 0.783813C1.2045 0.635396 1.39289 0.544462 1.59449 0.5293H1.6545H8.85449ZM8.85449 4.5293H1.6545V11.7293H8.85449V4.5293ZM2.85449 5.3293C2.96058 5.3293 3.06232 5.37144 3.13734 5.44646C3.21235 5.52147 3.25449 5.62321 3.25449 5.7293C3.25449 5.83538 3.21235 5.93713 3.13734 6.01214C3.06232 6.08715 2.96058 6.1293 2.85449 6.1293C2.74841 6.1293 2.64667 6.08715 2.57165 6.01214C2.49664 5.93713 2.45449 5.83538 2.45449 5.7293C2.45449 5.62321 2.49664 5.52147 2.57165 5.44646C2.64667 5.37144 2.74841 5.3293 2.85449 5.3293ZM8.85449 1.3293H1.6545V3.7293H8.85449V1.3293ZM2.85449 2.1293C2.96058 2.1293 3.06232 2.17144 3.13734 2.24646C3.21235 2.32147 3.25449 2.42321 3.25449 2.5293C3.25449 2.63539 3.21235 2.73713 3.13734 2.81214C3.06232 2.88716 2.96058 2.9293 2.85449 2.9293C2.74841 2.9293 2.64667 2.88716 2.57165 2.81214C2.49664 2.73713 2.45449 2.63539 2.45449 2.5293C2.45449 2.42321 2.49664 2.32147 2.57165 2.24646C2.64667 2.17144 2.74841 2.1293 2.85449 2.1293Z" fill="black"/>
</svg>
