<svg width="12" height="12" viewBox="0 0 12 12" fill="none" xmlns="http://www.w3.org/2000/svg">
<path d="M11.5526 5.6V12H10.7526V9.6H8.35263V12H7.55263V9.54C7.56734 9.34969 7.6496 9.17091 7.78457 9.03594C7.91954 8.90097 8.09832 8.8187 8.28863 8.804L8.35263 8.8H10.7526V5.6H11.5526ZM1.95263 5.6V8.8H4.35263C4.55481 8.79943 4.7497 8.87543 4.89812 9.01272C5.04654 9.15 5.13747 9.33839 5.15264 9.54V12H4.35263V9.6H1.95263V12H1.15264V5.6H1.95263ZM6.35263 8.66121e-07C7.48849 -0.000609329 8.60119 0.321211 9.56136 0.928044C10.5215 1.53488 11.2897 2.40179 11.7766 3.428C11.8038 3.48574 11.8167 3.54914 11.8144 3.61291C11.812 3.67668 11.7945 3.73895 11.7632 3.79455C11.7318 3.85014 11.6877 3.89743 11.6343 3.93248C11.581 3.96752 11.5201 3.9893 11.4566 3.996L11.4166 4H6.75264V7.2H9.95263V8H6.75264V12H5.95263V8H2.75263V7.2H5.95263V4H1.29263C1.22903 4.00016 1.16631 3.98516 1.10966 3.95623C1.05302 3.9273 1.00409 3.88528 0.966941 3.83366C0.929788 3.78204 0.905481 3.7223 0.896036 3.6594C0.886592 3.5965 0.892282 3.53226 0.912635 3.472L0.928635 3.432C1.41497 2.40505 2.18292 1.5373 3.14313 0.929735C4.10334 0.322165 5.21635 -0.000250543 6.35263 8.66121e-07ZM6.35263 0.800001C5.52257 0.799817 4.70452 0.99835 3.96688 1.379C3.22923 1.75965 2.59344 2.31136 2.11264 2.988L2.03263 3.1L1.96863 3.2H10.7366L10.6686 3.1C10.219 2.43096 9.61991 1.87562 8.91877 1.47785C8.21763 1.08007 7.43361 0.850754 6.62863 0.808001L6.48864 0.800001H6.35263Z" fill="black"/>
</svg>
