<svg width="54" height="48" viewBox="0 0 54 48" fill="none" xmlns="http://www.w3.org/2000/svg">
<path d="M21.6667 21.3333C27.5577 21.3333 32.3333 16.5577 32.3333 10.6667C32.3333 4.77563 27.5577 0 21.6667 0C15.7756 0 11 4.77563 11 10.6667C11 16.5577 15.7756 21.3333 21.6667 21.3333Z" fill="#181818"/>
<path d="M22.6002 26.6934C15.3202 26.4267 0.333496 30.0534 0.333496 37.3334V42.6667H25.7735C19.1868 35.3067 22.4935 26.9601 22.6002 26.6934Z" fill="#181818"/>
<path d="M46.8133 37.3866C47.7733 35.8133 48.3333 33.9733 48.3333 31.9999C48.3333 26.1066 43.56 21.3333 37.6667 21.3333C31.7733 21.3333 27 26.1066 27 31.9999C27 37.8933 31.7733 42.6666 37.6667 42.6666C39.64 42.6666 41.48 42.0799 43.0533 41.1466L49.9067 47.9999L53.6667 44.2399L46.8133 37.3866ZM37.6667 37.3333C34.7333 37.3333 32.3333 34.9333 32.3333 31.9999C32.3333 29.0666 34.7333 26.6666 37.6667 26.6666C40.6 26.6666 43 29.0666 43 31.9999C43 34.9333 40.6 37.3333 37.6667 37.3333Z" fill="#181818"/>
</svg>
