<svg width="18" height="12" viewBox="0 0 18 12" fill="none" xmlns="http://www.w3.org/2000/svg">
<path d="M6.00001 4.33099e-06C6.27571 -0.000772072 6.54147 0.102865 6.74386 0.290073C6.94624 0.477281 7.07024 0.734176 7.09092 1.00909V5.45455H11.4546V1.09091C11.4538 0.815219 11.5574 0.549455 11.7446 0.347068C11.9318 0.144681 12.1887 0.0206803 12.4636 4.33099e-06H13.6364C13.9121 -0.000772072 14.1778 0.102865 14.3802 0.290073C14.5826 0.477281 14.7066 0.734176 14.7273 1.00909V2.18182H15.8182C16.0939 2.18104 16.3596 2.28468 16.562 2.47189C16.7644 2.6591 16.8884 2.91599 16.9091 3.19091V5.45455H18V6.54545H16.9091V8.72727C16.9099 9.00296 16.8062 9.26873 16.619 9.47112C16.4318 9.6735 16.1749 9.7975 15.9 9.81818H14.7273V10.9091C14.7281 11.1848 14.6244 11.4505 14.4372 11.6529C14.25 11.8553 13.9931 11.9793 13.7182 12H12.5455C12.2698 12.0008 12.004 11.8971 11.8016 11.7099C11.5992 11.5227 11.4752 11.2658 11.4546 10.9909V6.54545H7.09092V10.9091C7.0917 11.1848 6.98806 11.4505 6.80085 11.6529C6.61364 11.8553 6.35675 11.9793 6.08183 12H4.9091C4.63341 12.0008 4.36765 11.8971 4.16526 11.7099C3.96287 11.5227 3.83887 11.2658 3.8182 10.9909V9.81818H2.72729C2.45159 9.81896 2.18583 9.71532 1.98344 9.52811C1.78106 9.3409 1.65706 9.08401 1.63638 8.80909V6.54545H0.545471V5.45455H1.63638V3.27273C1.6356 2.99704 1.73924 2.73127 1.92645 2.52888C2.11366 2.3265 2.37055 2.2025 2.64547 2.18182H3.8182V1.09091C3.81742 0.815219 3.92106 0.549455 4.10826 0.347068C4.29547 0.144681 4.55237 0.0206803 4.82729 4.33099e-06H4.9091H6.00001ZM13.6364 1.09091H12.5455V10.9091H13.6364V1.09091ZM6.00001 1.09091H4.9091V10.9091H6.00001V1.09091ZM15.8182 3.27273H14.7273V8.72727H15.8182V3.27273ZM3.8182 3.27273H2.72729V8.72727H3.8182V3.27273Z" fill="black"/>
</svg>
