<svg width="13" height="13" viewBox="0 0 13 13" fill="none" xmlns="http://www.w3.org/2000/svg">
<path d="M5.92835 10.9293V11.0093C5.90896 11.4062 5.7426 11.7816 5.46164 12.0626C5.18068 12.3435 4.80523 12.5099 4.40837 12.5293H1.92839V11.7293H4.38837C4.57868 11.7146 4.75746 11.6323 4.89243 11.4974C5.0274 11.3624 5.10966 11.1836 5.12436 10.9933L5.12836 10.9293H5.92835ZM4.32837 0.529417C4.54437 0.529417 4.75637 0.549417 4.96036 0.585417L5.11236 0.613416L12.0923 2.0734C12.2606 2.10893 12.413 2.19777 12.5269 2.32675C12.6407 2.45572 12.7099 2.61796 12.7243 2.78939L12.7283 2.85339V5.40537C12.7277 5.57727 12.6717 5.7444 12.5687 5.882C12.4657 6.01961 12.3211 6.12037 12.1563 6.16936L12.0923 6.18536L6.67235 7.31735L7.37634 9.91732C7.40792 10.0305 7.41421 10.1491 7.39475 10.265C7.37529 10.3808 7.33056 10.4909 7.26375 10.5875C7.19693 10.6841 7.10966 10.7648 7.00814 10.8239C6.90662 10.883 6.79334 10.919 6.67635 10.9293L6.60435 10.9333H5.03236C4.86795 10.9332 4.70756 10.8825 4.573 10.788C4.43845 10.6936 4.33627 10.5599 4.28037 10.4053L4.26037 10.3453L3.50838 7.64135C2.64163 7.44624 1.87763 6.93752 1.36337 6.21304C0.849114 5.48857 0.620915 4.59952 0.722676 3.71692C0.824437 2.83433 1.24897 2.02054 1.91461 1.4321C2.58024 0.843668 3.43996 0.522156 4.32837 0.529417ZM6.60835 10.1293L5.88835 7.48135L5.16436 7.63335C4.94507 7.68484 4.72142 7.71565 4.49637 7.72535H4.36437L5.03236 10.1293H6.60835ZM4.32837 1.32941C3.93933 1.33106 3.5549 1.41377 3.1996 1.57227C2.8443 1.73076 2.52593 1.96155 2.26479 2.24993C2.00365 2.53832 1.80548 2.87795 1.6829 3.24718C1.56033 3.61642 1.51604 4.00714 1.55288 4.39444C1.58971 4.78174 1.70685 5.15711 1.89683 5.49662C2.0868 5.83613 2.34545 6.13232 2.65626 6.36631C2.96708 6.6003 3.32325 6.76694 3.70205 6.85562C4.08086 6.9443 4.47398 6.95306 4.85637 6.88135L4.98836 6.85335L11.9283 5.40137V2.84939L4.94436 1.39741C4.74217 1.35212 4.53558 1.32931 4.32837 1.32941ZM4.32837 2.1294C4.8588 2.1294 5.3675 2.34011 5.74257 2.71518C6.11764 3.09025 6.32835 3.59895 6.32835 4.12938C6.32835 4.65981 6.11764 5.16851 5.74257 5.54358C5.3675 5.91865 4.8588 6.12936 4.32837 6.12936C3.79794 6.12936 3.28924 5.91865 2.91417 5.54358C2.5391 5.16851 2.32839 4.65981 2.32839 4.12938C2.32839 3.59895 2.5391 3.09025 2.91417 2.71518C3.28924 2.34011 3.79794 2.1294 4.32837 2.1294ZM4.32837 2.92939C4.01011 2.92939 3.70489 3.05582 3.47985 3.28086C3.25481 3.5059 3.12838 3.81112 3.12838 4.12938C3.12838 4.44764 3.25481 4.75286 3.47985 4.9779C3.70489 5.20294 4.01011 5.32937 4.32837 5.32937C4.64663 5.32937 4.95185 5.20294 5.17689 4.9779C5.40193 4.75286 5.52836 4.44764 5.52836 4.12938C5.52836 3.81112 5.40193 3.5059 5.17689 3.28086C4.95185 3.05582 4.64663 2.92939 4.32837 2.92939Z" fill="black"/>
</svg>
