<svg width="15" height="13" viewBox="0 0 15 13" fill="none" xmlns="http://www.w3.org/2000/svg">
<path d="M7.76855 0.529302C8.31405 0.528178 8.84231 0.720328 9.2596 1.07166C9.67689 1.42299 9.95623 1.91079 10.0481 2.4485C10.1399 2.98621 10.0383 3.53907 9.76124 4.00898C9.4842 4.47889 9.04966 4.83547 8.53471 5.01545C8.45526 5.04432 8.38527 5.09445 8.33237 5.16038C8.27947 5.2263 8.24568 5.30549 8.23471 5.3893L8.23009 5.4493V5.82315L14.3362 10.0001C14.5095 10.1185 14.6535 10.2748 14.7574 10.4571C14.8614 10.6394 14.9225 10.843 14.9362 11.0524V11.1447C14.9362 11.5119 14.7904 11.8641 14.5307 12.1238C14.271 12.3834 13.9189 12.5293 13.5516 12.5293H1.98548C1.68937 12.5295 1.401 12.4347 1.1627 12.259C0.924404 12.0832 0.748728 11.8357 0.661466 11.5527C0.574203 11.2698 0.57995 10.9663 0.677863 10.6868C0.775776 10.4074 0.960697 10.1667 1.20548 10.0001L7.30701 5.82315V5.4493C7.30685 5.17803 7.38637 4.91269 7.53571 4.68623C7.68504 4.45976 7.89761 4.28215 8.14701 4.17545L8.22548 4.14315C8.46192 4.06004 8.67137 3.91431 8.8315 3.72151C8.99163 3.52871 9.09642 3.29606 9.1347 3.04837C9.17298 2.80069 9.14332 2.54726 9.04888 2.31511C8.95444 2.08296 8.79875 1.8808 8.59843 1.73018C8.39812 1.57957 8.16067 1.48614 7.91143 1.45988C7.66218 1.43362 7.41048 1.4755 7.18317 1.58106C6.95586 1.68661 6.76146 1.85189 6.6207 2.05926C6.47995 2.26662 6.39812 2.50831 6.38394 2.75853V2.83699H5.46086C5.46086 2.22496 5.70399 1.63798 6.13677 1.20521C6.56955 0.772433 7.15652 0.529302 7.76855 0.529302ZM7.76855 6.62622L1.7224 10.7616C1.64023 10.8168 1.57799 10.897 1.54488 10.9903C1.51176 11.0836 1.50952 11.1851 1.53849 11.2797C1.56746 11.3744 1.6261 11.4572 1.70576 11.516C1.78542 11.5748 1.88186 11.6064 1.98086 11.6062H13.5516C13.6497 11.606 13.7452 11.5745 13.8242 11.5163C13.9033 11.4581 13.9617 11.3763 13.991 11.2826C14.0203 11.189 14.019 11.0884 13.9873 10.9956C13.9556 10.9027 13.8952 10.8224 13.8147 10.7662L7.76855 6.62622Z" fill="black"/>
</svg>
