<svg width="19" height="17" viewBox="0 0 19 17" fill="none" xmlns="http://www.w3.org/2000/svg">
<path d="M9.5 15C13.5818 12.2418 17.6637 9.16881 17.6637 5.08698C17.6652 4.55052 17.5607 4.01904 17.3561 3.52311C17.1515 3.02719 16.8509 2.5766 16.4716 2.19726C16.0922 1.81792 15.6416 1.51731 15.1457 1.31273C14.6498 1.10814 14.1183 1.00361 13.5818 1.00515C12.5322 1.00515 11.4943 1.40167 10.6954 2.20054L9.5 3.39594L8.30461 2.20054C7.92635 1.82007 7.47661 1.51814 6.98124 1.3121C6.48588 1.10607 5.95467 1 5.41817 1C4.88167 1 4.35046 1.10607 3.85509 1.3121C3.35973 1.51814 2.90999 1.82007 2.53173 2.20054C2.15219 2.57922 1.8512 3.02916 1.64606 3.5245C1.44092 4.01985 1.33566 4.55084 1.33634 5.08698C1.33634 9.16881 5.41817 12.2418 9.5 15Z" stroke="#181818" stroke-width="2"/>
</svg>
