<svg width="21" height="19" viewBox="0 0 21 19" fill="none" xmlns="http://www.w3.org/2000/svg">
<path d="M10.6701 17.5C15.3351 14.3478 20 10.8358 20 6.17084C20.0018 5.55773 19.8823 4.95033 19.6485 4.38356C19.4147 3.81679 19.0711 3.30183 18.6376 2.86829C18.2041 2.43476 17.6891 2.09121 17.1223 1.8574C16.5556 1.62359 15.9482 1.50413 15.3351 1.50589C14.1355 1.50589 12.9493 1.95905 12.0363 2.87205L10.6701 4.23821L9.30395 2.87205C8.87166 2.43723 8.35767 2.09216 7.79154 1.85669C7.22541 1.62122 6.61831 1.5 6.00516 1.5C5.39202 1.5 4.78492 1.62122 4.21879 1.85669C3.65266 2.09216 3.13867 2.43723 2.70638 2.87205C2.27262 3.30483 1.92863 3.81904 1.69418 4.38514C1.45974 4.95125 1.33944 5.5581 1.34021 6.17084C1.34021 10.8358 6.00516 14.3478 10.6701 17.5Z" fill="#FF385C" stroke="#FF385C" stroke-width="2"/>
</svg>
