<svg width="182" height="48" viewBox="0 0 182 48" fill="none" xmlns="http://www.w3.org/2000/svg">
<g clip-path="url(#clip0_46_265)">
<path d="M55.6919 19.6114C54.7319 18.7886 54.5947 18.6514 54.5947 18.3771C54.5947 18.24 55.0062 14.2629 54.7319 10.56C54.0462 1.92 50.069 0 48.6976 0C48.5604 0 48.5604 0 48.4233 0.137143C48.0119 0.685714 48.0119 2.33143 48.5604 5.34857C48.8347 6.58286 49.5204 8.77714 50.2062 11.1086C51.029 13.7143 51.8519 16.32 52.1262 17.8286L52.2633 18.1029L50.2062 18.7886L50.069 18.5143C49.6576 17.4171 48.9719 15.7714 48.4233 13.7143C47.3262 10.4229 45.9547 6.30857 44.8576 4.66286C44.0347 3.29143 42.2519 1.50857 41.429 1.50857H41.2919C40.8804 1.64571 40.469 2.05714 40.3319 2.88C39.7833 5.07429 40.469 9.18857 43.349 13.3029C46.229 17.1429 47.6004 19.3371 47.7376 20.0229L47.8747 20.2971L47.7376 20.4343C47.7376 20.4343 47.189 21.12 46.3662 21.12C45.9547 21.12 45.5433 20.9829 45.269 20.5714C38.8233 14.2629 32.2404 11.1086 25.9319 11.1086C22.0919 11.1086 19.2119 12.2057 17.8404 12.8914C17.2919 13.1657 16.8804 13.3029 16.6062 13.3029C16.3319 13.3029 16.3319 13.1657 16.1947 13.1657C16.0576 13.0286 16.0576 13.0286 16.0576 12.7543C16.0576 10.9714 15.9204 8.91429 15.509 8.36571C15.3719 8.22857 15.2347 8.22857 15.0976 8.22857C12.629 8.09143 9.0633 9.87429 7.82901 12.48C7.00616 13.9886 7.28044 15.4971 8.24044 17.0057C9.20044 18.3771 10.709 18.3771 11.669 18.5143C12.2176 18.5143 12.629 18.6514 12.7662 18.9257C12.9033 19.3371 12.4919 19.4743 12.2176 19.8857C2.75473 27.2914 0.423299 33.6 1.10901 35.7943C1.24616 36.0686 1.3833 36.3429 1.65759 36.3429C1.93187 36.3429 2.06901 36.2057 2.3433 36.0686C9.74901 29.76 17.2919 26.4686 24.9719 26.4686C38.9604 26.4686 48.8347 36.8914 51.5776 40.1829C52.1262 40.8686 52.8119 41.6914 53.3604 42.5143C54.869 44.4343 56.3776 46.3543 57.749 47.3143C58.8462 48 60.0804 48.1371 60.629 47.4514C61.0404 47.04 61.1776 46.08 60.9033 44.8457C60.3547 41.9657 57.749 38.8114 55.9662 37.0286C54.4576 35.3829 53.909 34.6971 54.0462 34.1486C54.1833 34.0114 54.1833 33.7371 54.5947 33.7371C58.9833 32.7771 61.589 31.2686 62.0004 29.0743C62.6862 25.5086 57.749 21.3943 55.6919 19.6114ZM99.5776 16.32C94.9147 16.32 91.0747 19.8857 91.0747 24.1371C91.0747 25.0971 91.349 26.0571 91.6233 27.0171L91.7604 27.1543L91.6233 27.2914C90.6633 28.3886 89.8404 29.0743 89.0176 29.0743C87.3719 29.0743 87.3719 26.7429 87.3719 23.8629C87.2347 20.2971 87.2347 16.32 84.0804 16.32C80.3776 16.32 77.4976 21.12 75.7147 25.2343L75.029 26.6057L75.3033 21.9429C75.5776 17.1429 75.7147 12.6171 75.7147 8.09143C75.7147 3.97714 75.5776 1.64571 75.4404 1.09714C75.3033 0.822857 74.4804 0.274286 73.7947 0.274286C73.3833 0.274286 71.8747 0.96 71.6004 1.23429C71.3262 1.78286 71.0519 7.40571 71.0519 12.7543C71.0519 25.3714 71.8747 30.72 72.0119 31.4057V31.5429C72.149 31.8171 72.8347 31.9543 73.3833 31.9543C73.9319 31.9543 74.7547 31.8171 74.8919 31.5429L75.029 31.2686C76.5376 27.2914 79.4176 20.5714 81.8862 20.5714C83.2576 20.5714 83.2576 22.3543 83.3947 24.4114C83.5319 27.7029 83.669 31.8171 88.1947 31.8171C89.8404 31.8171 91.4862 30.8571 92.9947 29.0743L93.269 28.8L93.5433 29.0743C95.189 30.72 97.5204 31.8171 99.989 31.8171C104.789 31.8171 108.629 28.2514 108.629 24C108.08 19.8857 104.24 16.32 99.5776 16.32ZM99.5776 28.9371C97.3833 28.9371 95.7376 26.7429 95.7376 24.1371C95.7376 21.5314 97.5204 19.3371 99.5776 19.3371C101.772 19.3371 103.555 21.5314 103.555 24.1371C103.555 26.7429 101.772 28.9371 99.5776 28.9371ZM118.366 16.32C116.72 16.32 114.938 16.8686 113.566 17.8286L113.155 18.1029L113.018 17.6914C112.88 17.1429 112.88 16.7314 112.88 16.7314C112.743 16.4571 111.92 16.32 111.372 16.32C110.96 16.32 110.138 16.4571 110 16.7314C109.863 17.28 109.178 23.4514 109.178 34.56V34.6971C109.315 34.8343 109.315 34.9714 109.315 35.52C109.452 41.0057 109.863 46.3543 110.138 47.04C110.412 47.3143 111.92 48 112.332 48H112.469C113.292 48 113.978 47.4514 113.978 47.1771C113.978 47.04 114.115 46.4914 114.115 42.9257V40.1829C114.115 38.2629 113.978 37.0286 113.978 35.3829C113.84 34.2857 113.84 33.0514 113.703 31.1314V30.72L114.115 30.9943C115.486 31.68 116.858 32.0914 118.229 32.0914C123.029 32.0914 126.869 28.5257 126.869 24.2743C127.006 19.8857 123.166 16.32 118.366 16.32ZM118.366 28.9371C114.8 28.9371 113.566 26.4686 113.566 24.1371C113.566 21.2571 115.349 19.3371 118.366 19.3371C120.56 19.3371 122.343 21.5314 122.343 24.1371C122.343 26.7429 120.56 28.9371 118.366 28.9371ZM137.292 16.32C135.646 16.32 133.863 16.8686 132.492 17.8286L132.08 18.1029L131.943 17.6914C131.806 17.1429 131.806 16.7314 131.806 16.7314C131.669 16.4571 130.846 16.32 130.298 16.32C129.886 16.32 129.063 16.4571 128.926 16.7314C128.789 17.28 128.103 23.4514 128.103 34.56V34.6971C128.24 34.8343 128.24 34.9714 128.24 35.52C128.378 41.0057 128.789 46.3543 129.063 47.04C129.338 47.3143 130.846 48 131.258 48H131.395C132.218 48 132.903 47.4514 132.903 47.1771C132.903 47.04 133.04 46.4914 133.04 42.9257V40.1829C133.04 38.2629 132.903 37.0286 132.903 35.3829C132.766 34.2857 132.766 33.0514 132.629 31.2686V30.8571L133.04 31.1314C134.412 31.8171 135.783 32.2286 137.155 32.2286C141.955 32.2286 145.795 28.6629 145.795 24.4114C145.932 19.8857 142.092 16.32 137.292 16.32ZM137.292 28.9371C133.726 28.9371 132.492 26.4686 132.492 24.1371C132.492 21.2571 134.275 19.3371 137.292 19.3371C139.486 19.3371 141.269 21.5314 141.269 24.1371C141.269 26.7429 139.486 28.9371 137.292 28.9371ZM181.589 22.2171C181.589 22.2171 181.452 22.3543 181.452 22.4914C180.218 24.96 177.612 29.0743 175.692 29.0743C175.143 29.0743 174.869 28.6629 174.869 28.1143C174.869 27.4286 175.418 26.0571 176.103 24.5486C176.652 23.04 177.475 21.3943 177.475 20.4343C177.475 18.7886 176.378 17.9657 174.458 17.9657C174.32 17.9657 170.206 17.9657 168.972 17.1429L168.835 17.0057V16.8686C168.835 15.9086 168.56 13.44 166.503 13.44C165.406 13.44 164.72 15.0857 164.72 15.9086C164.72 18.1029 165.818 19.0629 166.366 19.3371C166.503 19.4743 166.503 19.4743 166.503 19.4743L166.64 19.6114L166.503 19.7486C165.955 21.8057 164.72 23.5886 164.172 24.6857C162.252 27.4286 159.92 28.6629 156.766 28.6629C154.435 28.6629 152.652 27.4286 152.103 25.3714L151.966 24.8229L152.378 24.96C153.612 25.3714 154.709 25.5086 155.806 25.5086C158.823 25.5086 161.978 24 161.978 20.7086C161.978 17.9657 159.372 15.9086 155.806 15.9086C151.143 15.9086 147.303 19.4743 147.303 23.7257C147.303 26.88 149.772 31.5429 156.629 31.5429C162.115 31.5429 164.858 26.6057 165.68 25.0971L165.818 24.96C166.778 23.3143 167.6 21.2571 167.875 20.4343L168.012 20.16L168.286 20.2971C168.698 20.4343 170.618 20.8457 171.852 20.8457C172.4 20.8457 172.812 21.12 172.812 21.6686C172.812 21.8057 172.675 21.9429 172.675 22.08L172.538 22.2171L172.263 22.6286C171.578 24.1371 170.618 26.3314 170.618 27.84C170.618 29.76 171.852 31.68 174.595 31.68C178.435 31.68 180.766 26.88 181.589 25.3714L181.726 25.2343C181.863 24.8229 182 24.2743 182 23.5886C181.863 23.04 181.726 22.2171 181.589 22.2171ZM151.966 23.5886C152.24 21.2571 154.023 19.3371 155.806 19.3371C157.452 19.3371 158.549 20.16 158.549 21.6686C158.549 23.4514 156.08 24.1371 154.023 24.1371C153.2 24.1371 152.515 24 152.103 23.8629L151.829 23.7257L151.966 23.5886Z" fill="#FA6866"/>
</g>
<defs>
<clipPath id="clip0_46_265">
<rect width="181.029" height="48" fill="white" transform="translate(0.97168)"/>
</clipPath>
</defs>
</svg>
