<svg width="12" height="12" viewBox="0 0 12 12" fill="none" xmlns="http://www.w3.org/2000/svg">
<path d="M1.18052 0V0.857143H2.03767L2.0381 1.71429H1.6091C1.13571 1.71429 0.751953 2.09804 0.751953 2.57143V9.59341C0.751953 10.91 1.69663 12 2.89481 12H9.75195C10.9501 12 11.8948 10.91 11.8948 9.59341V5.57143H11.0377L11.0379 6.53322C10.9112 6.60449 10.763 6.64279 10.6092 6.64286C10.4476 6.64279 10.2922 6.60054 10.1614 6.52227L10.0982 6.48024L10.0683 6.457L10.0396 6.43233C9.96785 6.36732 9.89078 6.3093 9.80948 6.25849C9.75516 6.22456 9.69908 6.19391 9.64144 6.16653L9.55396 6.12797C9.34702 6.04368 9.12282 6 8.89486 6C8.82964 6 8.76483 6.00356 8.70064 6.01062L8.6049 6.02382C8.32268 6.07063 8.0559 6.18574 7.83196 6.3629L7.75004 6.43223C7.60033 6.56773 7.39596 6.64276 7.18034 6.64286C6.96514 6.64276 6.76077 6.56773 6.61106 6.43223C6.29984 6.15059 5.88965 6 5.46624 6C5.04288 6 4.63252 6.15065 4.32167 6.43214C4.17177 6.56772 3.96735 6.64276 3.75209 6.64286C3.53659 6.64276 3.33218 6.56771 3.18248 6.43233C2.87143 6.15065 2.46108 6 2.03772 6C1.89198 6 1.74781 6.01784 1.6087 6.05273L1.6091 2.57143H3.32338V3.42857H4.18052V2.57143C4.18052 2.09804 3.79677 1.71429 3.32338 1.71429H2.89524L2.89481 0.856714L3.75195 0.857143V0H1.18052ZM10.6092 7.5C10.7548 7.49994 10.8988 7.48209 11.0377 7.44727V9.59341C11.0377 10.4617 10.4473 11.1429 9.75195 11.1429H2.89481C2.19944 11.1429 1.6091 10.4617 1.6091 9.59341L1.60846 6.96691C1.73528 6.89548 1.88364 6.85714 2.03772 6.85714C2.25312 6.85714 2.45751 6.93218 2.60734 7.06786C2.91848 7.34925 3.32854 7.49981 3.75209 7.5C4.17539 7.49981 4.58546 7.34927 4.89682 7.06767C5.04645 6.93217 5.25083 6.85714 5.46624 6.85714C5.68175 6.85714 5.88605 6.93215 6.03591 7.06777C6.34693 7.34924 6.75704 7.49981 7.18077 7.5C7.60401 7.49981 8.01425 7.34921 8.32524 7.06777C8.47509 6.93216 8.67939 6.85714 8.89476 6.85714C9.11027 6.85714 9.31457 6.93215 9.46443 7.06777C9.7515 7.32756 10.1231 7.47587 10.5115 7.4973L10.6092 7.5ZM7.17811 0.857123L6.32122 0.857591C6.32196 1.5723 6.15347 2.00395 5.63139 2.81885L5.44465 3.10739C4.93099 3.91012 4.69128 4.4396 4.62725 5.14264L5.49032 5.14298C5.55742 4.60202 5.77389 4.1699 6.25263 3.43637L6.35689 3.27531C6.95932 2.33376 7.17932 1.77295 7.17811 0.857123ZM8.46408 0.857133C8.46325 1.58061 8.29295 2.01353 7.75534 2.85788L7.58945 3.11624C7.07372 3.92726 6.83488 4.45144 6.77048 5.14271H7.63401C7.69382 4.67676 7.86883 4.28784 8.23809 3.69474L8.56452 3.18139C9.11903 2.29005 9.32029 1.74048 9.32122 0.857592L8.46408 0.857133ZM10.6069 0.857133C10.6061 1.58061 10.4358 2.01353 9.89819 2.85788L9.7323 3.11624C9.21658 3.92726 8.97774 4.45144 8.91334 5.14271H9.77686C9.83668 4.67676 10.0117 4.28784 10.3809 3.69474L10.7074 3.18139C11.2619 2.29005 11.4631 1.74048 11.4641 0.857592L10.6069 0.857133Z" fill="black"/>
</svg>
