<svg width="24" height="24" viewBox="0 0 24 24" fill="none" xmlns="http://www.w3.org/2000/svg">
<g clip-path="url(#clip0_258_3348)">
<path d="M22.5 0H1.5C1.10218 0 0.720644 0.158035 0.43934 0.43934C0.158035 0.720644 0 1.10218 0 1.5L0 22.5C0 23.325 0.675 24 1.5 24H22.5C22.8978 24 23.2794 23.842 23.5607 23.5607C23.842 23.2794 24 22.8978 24 22.5V1.5C24 1.10218 23.842 0.720644 23.5607 0.43934C23.2794 0.158035 22.8978 0 22.5 0Z" fill="url(#paint0_linear_258_3348)"/>
<path d="M11.7825 3H12.72C14.52 3 14.8575 3.015 15.7125 3.0525C16.6725 3.0975 17.325 3.2475 17.895 3.4725C18.4875 3.6975 18.99 4.0125 19.4925 4.5075C19.9425 4.9575 20.3025 5.505 20.5275 6.105L20.5425 6.15C20.7525 6.705 20.9025 7.335 20.9475 8.25L20.955 8.55C20.9925 9.315 21 9.7725 21 11.85V12.54C21 14.49 20.985 14.8275 20.9475 15.7125C20.9322 16.4585 20.7902 17.1966 20.5275 17.895C20.3025 18.495 19.95 19.0425 19.4925 19.4925C19.0417 19.9497 18.4965 20.3029 17.895 20.5275L17.85 20.5425C17.295 20.7525 16.6575 20.9025 15.75 20.94L15.45 20.955C14.685 20.9925 14.2275 21 12.15 21H11.46C10.4022 21.0131 9.34429 20.9956 8.28752 20.9475C7.54148 20.9322 6.80347 20.7901 6.10502 20.5275C5.50502 20.3025 4.95752 19.95 4.50752 19.4925C4.05034 19.0417 3.69712 18.4965 3.47252 17.895L3.45752 17.85C3.20976 17.1765 3.07298 16.4673 3.05252 15.75L3.04502 15.4725C3.00223 14.3881 2.98723 13.3027 3.00002 12.2175V11.4675C3.00002 9.5025 3.01502 9.1725 3.05252 8.2875C3.09752 7.3425 3.24752 6.69 3.46502 6.1275L3.47252 6.105C3.69752 5.505 4.05002 4.9575 4.50752 4.5075C4.95833 4.05032 5.50353 3.6971 6.10502 3.4725L6.15002 3.4575C6.82349 3.20974 7.53271 3.07296 8.25002 3.0525L8.52752 3.045C9.29252 3 9.74252 3 11.7825 3ZM12.465 4.62H11.535C9.81002 4.62 9.35252 4.6275 8.67752 4.6575L8.36252 4.6725C7.48502 4.71 7.01252 4.86 6.69002 4.98C6.27002 5.145 5.97002 5.34 5.65502 5.655C5.35502 5.9625 5.15252 6.255 4.99502 6.6675L4.97252 6.7125C4.7808 7.24181 4.67939 7.79958 4.67252 8.3625L4.65752 8.7C4.62752 9.375 4.62002 9.8475 4.62002 11.655V12.465C4.62002 14.445 4.63502 14.7525 4.67252 15.6375V15.69C4.71752 16.5375 4.86002 16.995 4.98752 17.31C5.14502 17.73 5.34002 18.03 5.66252 18.345C5.96252 18.645 6.26252 18.8475 6.66752 19.005L6.71252 19.0275C7.24183 19.2192 7.7996 19.3206 8.36252 19.3275L8.70002 19.3425C9.37502 19.3725 9.84752 19.38 11.655 19.38H12.465C14.445 19.38 14.7525 19.365 15.6375 19.3275H15.69C16.244 19.3152 16.7918 19.2087 17.31 19.0125C17.7 18.87 18.0525 18.6375 18.345 18.3375C18.645 18.0375 18.8475 17.7375 19.005 17.3325L19.0275 17.2875C19.2192 16.7582 19.3207 16.2004 19.3275 15.6375L19.3425 15.3C19.3725 14.625 19.38 14.1525 19.38 12.345V11.5275C19.38 9.555 19.365 9.2475 19.3275 8.3625V8.31C19.3152 7.75604 19.2087 7.20821 19.0125 6.69C18.87 6.3 18.6375 5.9475 18.3375 5.655C18.0548 5.3642 17.7117 5.13891 17.3325 4.995L17.2875 4.9725C16.768 4.78311 16.2204 4.68172 15.6675 4.6725L15.3225 4.6575C14.6475 4.6275 14.1975 4.62 12.4725 4.62H12.465ZM12 7.38C13.2253 7.38 14.4004 7.86675 15.2669 8.73317C16.1333 9.59958 16.62 10.7747 16.62 12C16.62 13.2253 16.1333 14.4004 15.2669 15.2668C14.4004 16.1333 13.2253 16.62 12 16.62C10.7747 16.62 9.5996 16.1333 8.73319 15.2668C7.86677 14.4004 7.38002 13.2253 7.38002 12C7.38002 10.7747 7.86677 9.59958 8.73319 8.73317C9.5996 7.86675 10.7747 7.38 12 7.38ZM12 9C11.2044 9 10.4413 9.31607 9.8787 9.87868C9.31609 10.4413 9.00002 11.2044 9.00002 12C9.00002 12.7956 9.31609 13.5587 9.8787 14.1213C10.4413 14.6839 11.2044 15 12 15C12.7957 15 13.5587 14.6839 14.1213 14.1213C14.6839 13.5587 15 12.7956 15 12C15 11.2044 14.6839 10.4413 14.1213 9.87868C13.5587 9.31607 12.7957 9 12 9ZM16.8 6.1125C17.0865 6.1125 17.3612 6.22629 17.5637 6.42882C17.7662 6.63136 17.88 6.90607 17.88 7.1925C17.88 7.47893 17.7662 7.75364 17.5637 7.95617C17.3612 8.15871 17.0865 8.2725 16.8 8.2725C16.5136 8.2725 16.2389 8.15871 16.0363 7.95617C15.8338 7.75364 15.72 7.47893 15.72 7.1925C15.72 6.90607 15.8338 6.63136 16.0363 6.42882C16.2389 6.22629 16.5136 6.1125 16.8 6.1125Z" fill="white"/>
</g>
<defs>
<linearGradient id="paint0_linear_258_3348" x1="0" y1="12" x2="24" y2="12" gradientUnits="userSpaceOnUse">
<stop stop-color="#006CE4"/>
<stop offset="1" stop-color="#0797FF"/>
</linearGradient>
<clipPath id="clip0_258_3348">
<rect width="24" height="24" rx="8" fill="white"/>
</clipPath>
</defs>
</svg>
