<svg width="14" height="12" viewBox="0 0 14 12" fill="none" xmlns="http://www.w3.org/2000/svg">
<path d="M5.83746 11.1111C5.95533 11.1111 6.06838 11.1579 6.15173 11.2413C6.23508 11.3246 6.2819 11.4377 6.2819 11.5556C6.2819 11.6734 6.23508 11.7865 6.15173 11.8698C6.06838 11.9532 5.95533 12 5.83746 12C5.71958 12 5.60654 11.9532 5.52319 11.8698C5.43984 11.7865 5.39301 11.6734 5.39301 11.5556C5.39301 11.4377 5.43984 11.3246 5.52319 11.2413C5.60654 11.1579 5.71958 11.1111 5.83746 11.1111ZM7.61523 11.1111C7.73311 11.1111 7.84615 11.1579 7.9295 11.2413C8.01285 11.3246 8.05968 11.4377 8.05968 11.5556C8.05968 11.6734 8.01285 11.7865 7.9295 11.8698C7.84615 11.9532 7.73311 12 7.61523 12C7.49736 12 7.38431 11.9532 7.30096 11.8698C7.21761 11.7865 7.17079 11.6734 7.17079 11.5556C7.17079 11.4377 7.21761 11.3246 7.30096 11.2413C7.38431 11.1579 7.49736 11.1111 7.61523 11.1111ZM9.39301 11.1111C9.51089 11.1111 9.62393 11.1579 9.70728 11.2413C9.79063 11.3246 9.83746 11.4377 9.83746 11.5556C9.83746 11.6734 9.79063 11.7865 9.70728 11.8698C9.62393 11.9532 9.51089 12 9.39301 12C9.27514 12 9.16209 11.9532 9.07874 11.8698C8.99539 11.7865 8.94857 11.6734 8.94857 11.5556C8.94857 11.4377 8.99539 11.3246 9.07874 11.2413C9.16209 11.1579 9.27514 11.1111 9.39301 11.1111ZM6.72635 9.77778C6.84422 9.77778 6.95727 9.8246 7.04061 9.90795C7.12396 9.9913 7.17079 10.1043 7.17079 10.2222C7.17079 10.3401 7.12396 10.4531 7.04061 10.5365C6.95727 10.6198 6.84422 10.6667 6.72635 10.6667C6.60847 10.6667 6.49543 10.6198 6.41208 10.5365C6.32873 10.4531 6.2819 10.3401 6.2819 10.2222C6.2819 10.1043 6.32873 9.9913 6.41208 9.90795C6.49543 9.8246 6.60847 9.77778 6.72635 9.77778ZM8.50412 9.77778C8.622 9.77778 8.73504 9.8246 8.81839 9.90795C8.90174 9.9913 8.94857 10.1043 8.94857 10.2222C8.94857 10.3401 8.90174 10.4531 8.81839 10.5365C8.73504 10.6198 8.622 10.6667 8.50412 10.6667C8.38625 10.6667 8.2732 10.6198 8.18985 10.5365C8.1065 10.4531 8.05968 10.3401 8.05968 10.2222C8.05968 10.1043 8.1065 9.9913 8.18985 9.90795C8.2732 9.8246 8.38625 9.77778 8.50412 9.77778ZM7.62857 0H7.7619C8.97807 0.0302346 10.1507 0.45883 11.0997 1.21998C12.0487 1.98112 12.7217 3.03273 13.0152 4.21333L13.0463 4.34667L13.8152 7.80889L13.8286 7.87111C13.8466 7.99205 13.8396 8.11542 13.8078 8.2335C13.776 8.35158 13.7202 8.46183 13.6438 8.55735C13.5675 8.65288 13.4723 8.73163 13.3641 8.78868C13.2559 8.84572 13.1372 8.87984 13.0152 8.88889H1.43746C1.22521 8.87357 1.0255 8.78261 0.874623 8.63255C0.723744 8.48248 0.631706 8.28327 0.615234 8.07111V4.79111C0.640193 4.23688 0.871561 3.71203 1.26386 3.31974C1.65616 2.92744 2.181 2.69607 2.73523 2.67111L2.83746 2.66667H6.83746V0.888889H0.615234V0H7.62857ZM12.753 7.11111H1.50412V8H12.9486L12.753 7.11111ZM7.7219 0.888889V3.55556H2.75746C2.43127 3.5746 2.12342 3.71277 1.89238 3.94381C1.66133 4.17486 1.52317 4.4827 1.50412 4.80889V6.22222H12.5486L12.1752 4.54222L12.1441 4.41778C11.9011 3.45281 11.3561 2.59078 10.5885 1.95752C9.82092 1.32427 8.87101 0.95295 7.87746 0.897778L7.75746 0.888889H7.7219Z" fill="black"/>
</svg>
