<svg width="12" height="12" viewBox="0 0 12 12" fill="none" xmlns="http://www.w3.org/2000/svg">
<path d="M10.5092 11.1724V12H2.2333V11.1724H10.5092ZM6.37123 0C7.05226 0.000458443 7.71899 0.195422 8.29298 0.561951C8.86696 0.92848 9.32432 1.45132 9.61123 2.06897H11.3367C11.394 2.06878 11.4506 2.08048 11.5031 2.10331C11.5556 2.12614 11.6028 2.15962 11.6417 2.20162C11.6806 2.24362 11.7103 2.29324 11.7291 2.34733C11.7478 2.40142 11.7551 2.4588 11.7505 2.51586C11.6264 4.11724 11.0967 5.18483 10.1367 5.64414L10.5092 9.89379C10.5185 10.001 10.4857 10.1076 10.4177 10.1911C10.3497 10.2745 10.2519 10.3282 10.145 10.3407L10.0954 10.3448H2.64709C2.53947 10.3449 2.43605 10.303 2.3588 10.2281C2.28155 10.1531 2.23653 10.051 2.2333 9.94345V9.89379L2.81261 3.26897C2.82089 3.14483 2.83744 3.02069 2.86226 2.90069H1.81951C1.71785 2.89996 1.61947 2.93667 1.54315 3.00383C1.46683 3.07099 1.41791 3.1639 1.40571 3.26483V7.44828H0.578127V3.31034C0.577556 2.99362 0.698071 2.68865 0.915001 2.45788C1.13193 2.2271 1.42887 2.08797 1.74502 2.06897H3.13123C3.41815 1.45132 3.8755 0.92848 4.44949 0.561951C5.02347 0.195422 5.6902 0.000458443 6.37123 0ZM9.03192 2.89655H3.71054C3.68606 2.992 3.66672 3.08869 3.65261 3.18621L3.63606 3.33517L3.10227 9.51724H9.64847L9.10227 3.33517C9.09064 3.18731 9.06712 3.04063 9.03192 2.89655ZM6.77675 4.13793C6.68089 5.03729 6.28772 5.87897 5.65951 6.52966L5.56433 6.62897C5.11855 7.07361 4.83076 7.6521 4.74502 8.27586H3.90916C3.99478 7.47714 4.33748 6.72783 4.88571 6.14069L4.98089 6.04552C5.50461 5.53394 5.84371 4.863 5.94502 4.13793H6.77675ZM8.43192 4.13793L8.4402 4.34483C8.397 5.31989 7.99635 6.24493 7.31468 6.94345L7.21951 7.04276C6.87543 7.38557 6.62351 7.80971 6.48709 8.27586H5.63468C5.77815 7.63164 6.09099 7.03739 6.54089 6.55448L6.63192 6.45931C7.23606 5.85931 7.61261 5.04828 7.61261 4.34483C7.61197 4.2757 7.60783 4.20664 7.6002 4.13793H8.43192ZM10.8733 2.89655H9.8802L9.92158 3.15724L9.92985 3.26483L10.054 4.71724C10.4636 4.39034 10.7326 3.82345 10.865 2.99172L10.8774 2.89655H10.8733ZM6.37123 0.827586C5.91544 0.827447 5.4668 0.940869 5.06584 1.15761C4.66487 1.37434 4.32423 1.68756 4.07468 2.06897H8.66778C8.43776 1.71748 8.1301 1.42352 7.76852 1.20972C7.40694 0.995931 7.00109 0.868023 6.58227 0.835862L6.4664 0.827586H6.37123Z" fill="black"/>
</svg>
