<svg width="31" height="31" viewBox="0 0 31 31" fill="none" xmlns="http://www.w3.org/2000/svg">
<path d="M15.64 26.1893V22.7893L15.38 22.8793C14.4 23.1993 13.35 23.3893 12.27 23.4293H11.57C8.6642 23.3559 5.89749 22.1695 3.84119 20.1151C1.78488 18.0607 0.595992 15.295 0.52002 12.3893V11.7993C0.59347 8.89177 1.78124 6.12363 3.83781 4.06706C5.89438 2.01049 8.66252 0.822718 11.57 0.749268H12.16C18.19 0.909268 23.05 5.76927 23.2 11.7993V12.4793C23.1513 13.8699 22.8462 15.2395 22.3 16.5193L22.17 16.8193L30.08 24.7193V30.3193H24.5L20.37 26.1893H15.64ZM9.11002 6.24927C9.53126 6.22531 9.95295 6.2876 10.3493 6.43231C10.7456 6.57703 11.1082 6.80112 11.4149 7.09087C11.7216 7.38062 11.9659 7.72993 12.1329 8.1174C12.2999 8.50487 12.386 8.92235 12.386 9.34427C12.386 9.76619 12.2999 10.1837 12.1329 10.5711C11.9659 10.9586 11.7216 11.3079 11.4149 11.5977C11.1082 11.8874 10.7456 12.1115 10.3493 12.2562C9.95295 12.4009 9.53126 12.4632 9.11002 12.4393C8.28785 12.4393 7.49935 12.1127 6.91799 11.5313C6.33663 10.9499 6.01002 10.1614 6.01002 9.33927C6.01002 8.5171 6.33663 7.7286 6.91799 7.14724C7.49935 6.56587 8.28785 6.23927 9.11002 6.23927V6.24927ZM9.11002 8.30927C8.83685 8.30927 8.57486 8.41779 8.3817 8.61095C8.18854 8.80411 8.08002 9.06609 8.08002 9.33927C8.08002 9.61244 8.18854 9.87442 8.3817 10.0676C8.57486 10.2607 8.83685 10.3693 9.11002 10.3693C9.38319 10.3693 9.64518 10.2607 9.83834 10.0676C10.0315 9.87442 10.14 9.61244 10.14 9.33927C10.14 9.06609 10.0315 8.80411 9.83834 8.61095C9.64518 8.41779 9.38319 8.30927 9.11002 8.30927ZM21.23 24.1293L25.35 28.2593H28.02V25.5893L19.65 17.2193L20.02 16.5393L20.18 16.2393C20.74 15.0893 21.08 13.8193 21.14 12.4693V11.8293C21.0697 9.46458 20.0989 7.21604 18.4261 5.54321C16.7533 3.87039 14.5047 2.8996 12.14 2.82927H11.59C9.22534 2.8996 6.97679 3.87039 5.30397 5.54321C3.63114 7.21604 2.66035 9.46458 2.59002 11.8293V12.3693C2.63377 13.9164 3.06376 15.4279 3.84085 16.7664C4.61794 18.1049 5.71746 19.2277 7.03931 20.0328C8.36117 20.8378 9.86338 21.2995 11.4092 21.3757C12.955 21.4519 14.4954 21.1403 15.89 20.4693L16.19 20.3093L17.71 19.5093V24.1293H21.23Z" fill="black"/>
</svg>
