<svg width="12" height="12" viewBox="0 0 12 12" fill="none" xmlns="http://www.w3.org/2000/svg">
<path d="M9.99999 9.39102e-07C10.2626 9.39102e-07 10.5227 0.0517325 10.7654 0.152242C11.008 0.252751 11.2285 0.40007 11.4142 0.585787C11.5999 0.771505 11.7472 0.991983 11.8478 1.23463C11.9483 1.47729 12 1.73736 12 2C12 4.556 11.36 7.276 10.4 7.88V12H9.59999V7.88C8.65599 7.288 8.02399 4.652 7.99999 2.136V1.912C8.02268 1.39697 8.24336 0.910586 8.616 0.55434C8.98865 0.198093 9.48446 -0.000498328 9.99999 9.39102e-07ZM6.39999 9.39102e-07V7.248C7.32799 7.468 7.99999 8.448 7.99999 9.6C7.99999 10.908 7.12799 12 5.99999 12C4.87199 12 3.99999 10.908 3.99999 9.6C3.99999 8.452 4.67199 7.468 5.59999 7.248V9.39102e-07H6.39999ZM0.399994 9.39102e-07H0.799994C2.58799 9.39102e-07 3.57199 2.548 3.59999 7.4V8H1.19999V12H0.399994V9.39102e-07ZM5.99999 8C5.35999 8 4.79999 8.7 4.79999 9.6C4.79999 10.5 5.35999 11.2 5.99999 11.2C6.63999 11.2 7.19999 10.5 7.19999 9.6C7.19999 8.7 6.63999 8 5.99999 8ZM1.19999 0.896001V7.2H2.79999L2.79199 6.816L2.77999 6.436C2.66799 3.264 2.09599 1.448 1.28799 0.944001L1.23999 0.920001L1.19999 0.896001ZM8.79999 1.928V2.124C8.81999 3.852 9.21199 5.776 9.59999 6.68V0.868001C9.37711 0.94632 9.18231 1.08868 9.04 1.27725C8.89768 1.46581 8.81419 1.69219 8.79999 1.928ZM10.4 0.868001V6.68C10.796 5.756 11.2 3.76 11.2 2C11.2001 1.75174 11.1233 1.50955 10.98 1.30681C10.8367 1.10407 10.6341 0.950755 10.4 0.868001Z" fill="black"/>
</svg>
