<svg width="12" height="12" viewBox="0 0 12 12" fill="none" xmlns="http://www.w3.org/2000/svg">
<path d="M7.53857 0C7.73938 0.00081126 7.93353 0.0720999 8.08714 0.201429L8.14286 0.252857L11.7471 3.85714C11.8899 3.99953 11.9779 4.1877 11.9957 4.38857L12 4.46143V9.85714C12.0005 10.4095 11.7878 10.9407 11.4061 11.34C11.0244 11.7392 10.5032 11.9757 9.95143 12H0.857144C0.640527 12.0006 0.431713 11.9192 0.272694 11.7721C0.113675 11.625 0.0162465 11.4231 1.00618e-06 11.2071V2.14286C-0.000533922 1.5905 0.212243 1.05927 0.593935 0.660012C0.975627 0.260753 1.49675 0.0243034 2.04857 0H2.14286H7.53857ZM2.14286 0.857143C1.81482 0.856552 1.49896 0.981371 1.25994 1.20605C1.02092 1.43072 0.876825 1.73827 0.857144 2.06571V8.14285C0.856553 8.47089 0.981372 8.78675 1.20605 9.02577C1.43073 9.26479 1.73827 9.40889 2.06571 9.42857H10.2857V10.2857H2.14286C1.67911 10.2863 1.22777 10.1359 0.857144 9.85714V11.1429H9.85714C10.1852 11.1434 10.501 11.0186 10.7401 10.7939C10.9791 10.5693 11.1232 10.2617 11.1429 9.93428V8.57143H1.71429V7.71428H11.1429V5.14286H9C8.44764 5.14339 7.91641 4.93061 7.51715 4.54892C7.11789 4.16723 6.88145 3.64611 6.85714 3.09429V0.857143H2.14286ZM10.9671 4.28571L7.71428 1.03714V3C7.71369 3.32804 7.83851 3.6439 8.06319 3.88291C8.28787 4.12193 8.59541 4.26603 8.92286 4.28571H9H10.9671Z" fill="black"/>
</svg>
