<svg width="32" height="32" viewBox="0 0 32 32" fill="none" xmlns="http://www.w3.org/2000/svg">
<path d="M28.4444 3.55556V28.4444H3.55556V3.55556H28.4444ZM30.4 0H1.6C0.711111 0 0 0.711111 0 1.6V30.4C0 31.1111 0.711111 32 1.6 32H30.4C31.1111 32 32 31.1111 32 30.4V1.6C32 0.711111 31.1111 0 30.4 0ZM14.2222 7.11111H24.8889V10.6667H14.2222V7.11111ZM14.2222 14.2222H24.8889V17.7778H14.2222V14.2222ZM14.2222 21.3333H24.8889V24.8889H14.2222V21.3333ZM7.11111 7.11111H10.6667V10.6667H7.11111V7.11111ZM7.11111 14.2222H10.6667V17.7778H7.11111V14.2222ZM7.11111 21.3333H10.6667V24.8889H7.11111V21.3333Z" fill="white"/>
</svg>
