<svg width="120" height="120" viewBox="0 0 120 120" fill="none" xmlns="http://www.w3.org/2000/svg">
<g clip-path="url(#clip0_669_3251)">
<path d="M112.5 67.5002H97.5C93.3525 67.5002 90 64.1477 90 60.0002C90 58.0111 90.7902 56.1035 92.1967 54.6969C93.6032 53.2904 95.5109 52.5002 97.5 52.5002H112.5C114.489 52.5002 116.397 53.2904 117.803 54.6969C119.21 56.1035 120 58.0111 120 60.0002C120 64.1477 116.648 67.5002 112.5 67.5002ZM91.815 38.7902C88.8825 41.7227 84.1425 41.7227 81.21 38.7902C78.2775 35.8577 78.2775 31.1177 81.21 28.1852L91.815 17.5727C93.2223 16.1664 95.1306 15.3768 97.1201 15.3775C99.1097 15.3782 101.017 16.1692 102.424 17.5765C103.83 18.9838 104.62 20.8921 104.619 22.8816C104.618 24.8712 103.827 26.7789 102.42 28.1852L91.815 38.7902ZM60 120C58.0109 120 56.1032 119.21 54.6967 117.804C53.2902 116.397 52.5 114.489 52.5 112.5V97.5002C52.5505 95.5447 53.3628 93.6861 54.7639 92.3208C56.1649 90.9555 58.0438 90.1914 60 90.1914C61.9562 90.1914 63.8351 90.9555 65.2361 92.3208C66.6372 93.6861 67.4495 95.5447 67.5 97.5002V112.5C67.5 116.648 64.1475 120 60 120ZM60 30.0002C58.0109 30.0002 56.1032 29.2101 54.6967 27.8035C53.2902 26.397 52.5 24.4894 52.5 22.5002V7.50024C52.5505 5.54464 53.3628 3.68611 54.7639 2.3208C56.1649 0.955496 58.0438 0.191406 60 0.191406C61.9562 0.191406 63.8351 0.955496 65.2361 2.3208C66.6372 3.68611 67.4495 5.54464 67.5 7.50024V22.5002C67.5 26.6477 64.1475 30.0002 60 30.0002ZM28.1775 102.428C25.245 105.36 20.505 105.36 17.5725 102.428C14.64 99.4952 14.64 94.7477 17.5725 91.8227L28.1775 81.2102C28.8743 80.5139 29.7015 79.9616 30.6117 79.585C31.522 79.2083 32.4975 79.0146 33.4827 79.015C34.4678 79.0153 35.4432 79.2097 36.3532 79.587C37.2632 79.9643 38.0899 80.5172 38.7862 81.214C39.4826 81.9108 40.0348 82.738 40.4115 83.6482C40.7882 84.5585 40.9819 85.534 40.9815 86.5191C40.9812 87.5043 40.7868 88.4797 40.4095 89.3897C40.0322 90.2996 39.4793 91.1264 38.7825 91.8227L28.1775 102.428ZM28.1775 38.7902L17.5725 28.1852C16.8757 27.4889 16.3228 26.6621 15.9455 25.7521C15.5682 24.8422 15.3738 23.8668 15.3735 22.8816C15.3731 21.8965 15.5668 20.921 15.9435 20.0107C16.3202 19.1005 16.8724 18.2733 17.5688 17.5765C18.2651 16.8797 19.0918 16.3268 20.0018 15.9495C20.9118 15.5722 21.8872 15.3778 22.8723 15.3775C23.8575 15.3771 24.833 15.5708 25.7433 15.9475C26.6535 16.3241 27.4807 16.8764 28.1775 17.5727L38.7825 28.1852C39.4796 28.8811 40.0326 29.7077 40.41 30.6175C40.7873 31.5274 40.9815 32.5027 40.9815 33.4877C40.9815 34.4727 40.7873 35.4481 40.41 36.3579C40.0326 37.2678 39.4796 38.0943 38.7825 38.7902C37.3754 40.1951 35.4683 40.9841 33.48 40.9841C31.4917 40.9841 29.5846 40.1951 28.1775 38.7902ZM30 60.0002C30 61.9894 29.2098 63.897 27.8033 65.3035C26.3968 66.7101 24.4891 67.5002 22.5 67.5002H7.5C5.51088 67.5002 3.60322 66.7101 2.1967 65.3035C0.790176 63.897 0 61.9894 0 60.0002C0 58.0111 0.790176 56.1035 2.1967 54.6969C3.60322 53.2904 5.51088 52.5002 7.5 52.5002H22.5C26.64 52.5002 30 55.8602 30 60.0002ZM91.815 81.2102L102.42 91.8227C105.352 94.7477 105.352 99.4952 102.42 102.428C99.4875 105.36 94.7475 105.36 91.815 102.428L81.21 91.8227C80.5132 91.1264 79.9603 90.2996 79.583 89.3897C79.2057 88.4797 79.0113 87.5043 79.011 86.5191C79.0106 85.534 79.2043 84.5585 79.581 83.6482C79.9577 82.738 80.5099 81.9108 81.2062 81.214C81.9026 80.5172 82.7294 79.9643 83.6393 79.587C84.5493 79.2097 85.5247 79.0153 86.5098 79.015C87.495 79.0146 88.4705 79.2083 89.3808 79.585C90.291 79.9616 91.1182 80.5139 91.815 81.2102Z" fill="url(#paint0_linear_669_3251)"/>
</g>
<defs>
<linearGradient id="paint0_linear_669_3251" x1="0" y1="60.0958" x2="120" y2="60.0958" gradientUnits="userSpaceOnUse">
<stop stop-color="#006CE4"/>
<stop offset="1" stop-color="#0797FF"/>
</linearGradient>
<clipPath id="clip0_669_3251">
<rect width="120" height="120" fill="white"/>
</clipPath>
</defs>
</svg>
