<svg width="12" height="12" viewBox="0 0 12 12" fill="none" xmlns="http://www.w3.org/2000/svg">
<path d="M4.28686 0V0.660732H7.71318V0H8.50447V0.660732H10.8784C11.0783 0.660169 11.2711 0.735342 11.4179 0.871135C11.5647 1.00693 11.6547 1.19327 11.6697 1.39268V7.75074C11.67 7.93563 11.6056 8.11481 11.4877 8.25717L11.4402 8.30861L7.97826 11.7705C7.84681 11.9023 7.67309 11.9836 7.48766 12H2.30863C1.7987 12.0005 1.30828 11.8041 0.939696 11.4517C0.571108 11.0993 0.352823 10.6182 0.330386 10.1088V1.45203C0.329823 1.25205 0.404997 1.05928 0.540789 0.912476C0.676582 0.765674 0.862922 0.675729 1.06234 0.660732H3.49557V0H4.28686ZM10.8784 4.61721H1.12168V10.0218C1.12114 10.3246 1.23637 10.6162 1.44378 10.8368C1.6512 11.0575 1.93512 11.1905 2.23741 11.2087H6.66075V8.96934C6.66026 8.45941 6.85669 7.969 7.20906 7.60041C7.56143 7.23182 8.04252 7.01353 8.55195 6.9911H10.8784V4.61721ZM10.8467 7.78239H8.63899C8.33615 7.78185 8.04456 7.89708 7.8239 8.1045C7.60325 8.31191 7.47022 8.59583 7.45205 8.89812V11.1771L10.8467 7.78239ZM3.49557 1.45203H1.12168V3.82591H10.8784V1.45203H8.50447V2.1088H7.71318V1.45203H4.28686V2.1088H3.49557V1.45203Z" fill="black"/>
</svg>
