<svg width="19" height="16" viewBox="0 0 19 16" fill="none" xmlns="http://www.w3.org/2000/svg">
<path d="M14.2222 13.3333C14.7111 13.3333 15.1296 13.1593 15.4778 12.8111C15.8259 12.463 16 12.0444 16 11.5556C16 11.0667 15.8259 10.6481 15.4778 10.3C15.1296 9.95185 14.7111 9.77778 14.2222 9.77778C13.7333 9.77778 13.3148 9.95185 12.9667 10.3C12.6185 10.6481 12.4444 11.0667 12.4444 11.5556C12.4444 12.0444 12.6185 12.463 12.9667 12.8111C13.3148 13.1593 13.7333 13.3333 14.2222 13.3333ZM14.0444 16C13.837 16 13.6556 15.9333 13.5 15.8C13.3444 15.6667 13.2444 15.4963 13.2 15.2889L13.0667 14.6667C12.8889 14.5926 12.7222 14.5148 12.5667 14.4333C12.4111 14.3519 12.2519 14.2519 12.0889 14.1333L11.4444 14.3333C11.2519 14.3926 11.063 14.3852 10.8778 14.3111C10.6926 14.237 10.5481 14.1185 10.4444 13.9556L10.2667 13.6444C10.163 13.4667 10.1259 13.2741 10.1556 13.0667C10.1852 12.8593 10.2815 12.6889 10.4444 12.5556L10.9333 12.1333C10.9037 11.9556 10.8889 11.763 10.8889 11.5556C10.8889 11.3481 10.9037 11.1556 10.9333 10.9778L10.4444 10.5556C10.2815 10.4222 10.1852 10.2556 10.1556 10.0556C10.1259 9.85556 10.163 9.66667 10.2667 9.48889L10.4667 9.15556C10.5704 8.99259 10.7111 8.87407 10.8889 8.8C11.0667 8.72593 11.2519 8.71852 11.4444 8.77778L12.0889 8.97778C12.2519 8.85926 12.4111 8.75926 12.5667 8.67778C12.7222 8.5963 12.8889 8.51852 13.0667 8.44444L13.2 7.8C13.2444 7.59259 13.3444 7.42593 13.5 7.3C13.6556 7.17407 13.837 7.11111 14.0444 7.11111H14.4C14.6074 7.11111 14.7889 7.17778 14.9444 7.31111C15.1 7.44444 15.2 7.61482 15.2444 7.82222L15.3778 8.44444C15.5556 8.51852 15.7222 8.5963 15.8778 8.67778C16.0333 8.75926 16.1926 8.85926 16.3556 8.97778L17 8.77778C17.1926 8.71852 17.3815 8.72593 17.5667 8.8C17.7519 8.87407 17.8963 8.99259 18 9.15556L18.1778 9.46667C18.2815 9.64444 18.3185 9.83704 18.2889 10.0444C18.2593 10.2519 18.163 10.4222 18 10.5556L17.5111 10.9778C17.5407 11.1556 17.5556 11.3481 17.5556 11.5556C17.5556 11.763 17.5407 11.9556 17.5111 12.1333L18 12.5556C18.163 12.6889 18.2593 12.8556 18.2889 13.0556C18.3185 13.2556 18.2815 13.4444 18.1778 13.6222L17.9778 13.9556C17.8741 14.1185 17.7333 14.237 17.5556 14.3111C17.3778 14.3852 17.1926 14.3926 17 14.3333L16.3556 14.1333C16.1926 14.2519 16.0333 14.3519 15.8778 14.4333C15.7222 14.5148 15.5556 14.5926 15.3778 14.6667L15.2444 15.3111C15.2 15.5185 15.1 15.6852 14.9444 15.8111C14.7889 15.937 14.6074 16 14.4 16H14.0444ZM1.77778 14.2222C1.28889 14.2222 0.87037 14.0481 0.522222 13.7C0.174074 13.3519 0 12.9333 0 12.4444V1.77778C0 1.28889 0.174074 0.87037 0.522222 0.522222C0.87037 0.174074 1.28889 0 1.77778 0H6.37778C6.61481 0 6.84074 0.0444444 7.05556 0.133333C7.27037 0.222222 7.45926 0.348148 7.62222 0.511111L8.88889 1.77778H16C16.4889 1.77778 16.9074 1.95185 17.2556 2.3C17.6037 2.64815 17.7778 3.06667 17.7778 3.55556V6.44444C17.2593 6.07407 16.6963 5.7963 16.0889 5.61111C15.4815 5.42593 14.8593 5.33333 14.2222 5.33333C12.4889 5.33333 11.0185 5.93704 9.81111 7.14444C8.6037 8.35185 8 9.82222 8 11.5556C8 12.0296 8.04815 12.4889 8.14444 12.9333C8.24074 13.3778 8.39259 13.8074 8.6 14.2222H1.77778Z" fill="white"/>
</svg>
