<svg width="31" height="29" viewBox="0 0 31 29" fill="none" xmlns="http://www.w3.org/2000/svg">
<path d="M30.05 1.83928C29.9352 1.32253 29.6202 0.872379 29.1741 0.587461C28.728 0.302543 28.1871 0.206103 27.67 0.319277L20.09 2.00928L10.09 0.00927734L1.66998 1.87928C1.22459 1.97544 0.825687 2.22155 0.539932 2.57647C0.254176 2.93139 0.0988766 3.37362 0.0999814 3.82928V25.7793C0.0999729 25.9274 0.116747 26.075 0.149981 26.2193C0.264784 26.736 0.579759 27.1862 1.02588 27.4711C1.472 27.756 2.01288 27.8525 2.52998 27.7393L10.11 26.0493L20.11 28.0493L28.53 26.1793C28.9754 26.0831 29.3743 25.837 29.66 25.4821C29.9458 25.1272 30.1011 24.6849 30.1 24.2293V2.27928C30.0997 2.13121 30.083 1.98363 30.05 1.83928ZM11.1 2.24928L19.1 3.84928V25.8093L11.1 24.2093V2.24928ZM2.09998 25.7793V3.82928L9.09998 2.27928V24.2293L2.09998 25.7793ZM28.1 24.2293L21.1 25.7793V3.82928L28.1 2.27928V24.2293Z" fill="black"/>
</svg>
