<svg width="209" height="32" viewBox="0 0 209 32" fill="none" xmlns="http://www.w3.org/2000/svg">
<g clip-path="url(#clip0_36_440)">
<path d="M0 31.0846H24.224V0H0V31.0846ZM6.95694 11.9V29.7934H4.76965V8.41192L6.95694 11.8904V11.9ZM8.24812 23.2605H15.9855V25.4478H8.23848V23.2605H8.24812ZM15.9855 21.9693H8.23848V19.782H15.9759V21.9693H15.9855ZM15.9855 18.4908H13.1334L15.9855 13.9524V18.4908ZM8.24812 18.4908V13.9524L11.1003 18.4908H8.24812ZM8.24812 26.7293H15.9855V29.7934H8.23848V26.7293H8.24812ZM17.2767 11.8904L19.464 8.41192V29.7934H17.2767V11.8904ZM16.0048 11.4857H15.9855V11.5146L12.112 17.6718L8.23848 11.5146V11.4857H8.21921L1.8115 1.29118H4.51912L12.112 13.3743L19.7049 1.29118H22.4125L15.9952 11.4953L16.0048 11.4857ZM12.112 6.61006L15.4556 1.28154H18.1825L12.112 10.9461L6.04155 1.29118H8.76844L12.112 6.61969V6.61006ZM10.2909 1.28154H13.9332L12.112 4.18187L10.2909 1.28154ZM1.29118 2.88106L3.47847 6.35953V29.7934H1.29118V2.88106ZM20.7456 29.7934V6.35953L22.9329 2.88106V29.7934H20.7456Z" fill="#F79565"/>
<path d="M123.876 13.1143C122.816 14.0778 121.535 14.338 120.668 14.338C118.625 14.338 117.314 13.2395 117.314 11.5533C117.314 9.86704 118.769 8.97092 120.051 8.39279C119.068 7.24614 118.5 6.30185 118.5 5.2612C118.5 3.52678 119.955 2.54395 121.708 2.54395C123.154 2.54395 124.406 3.38225 124.406 4.75051C124.406 5.6659 123.886 6.71618 121.968 7.51594L125.013 11.216C125.254 10.7921 125.649 10.0694 125.852 9.51052C126.112 8.66258 125.852 8.06517 124.3 7.87246V7.6123H128.145V7.87246C126.834 8.03627 126.642 8.46024 126.314 9.30817C125.967 10.2621 125.582 10.9944 125.264 11.5051L126.594 13.1239C126.95 13.5671 127.268 13.7984 127.759 13.8947V14.1549H124.801L123.905 13.095L123.876 13.1143ZM120.273 8.66258C119.781 9.154 119.328 10.1657 119.328 11.216C119.328 12.7096 120.118 13.6924 121.439 13.6924C122.171 13.6924 123.009 13.413 123.635 12.8252L120.282 8.67222L120.273 8.66258ZM121.862 2.96791C121.024 2.96791 120.552 3.76767 120.552 4.53853C120.552 5.59845 120.928 6.25367 121.747 7.25578C122.826 6.5042 123.221 5.56954 123.221 4.75051C123.221 3.69059 122.816 2.96791 121.862 2.96791Z" fill="#231F20"/>
<path d="M35.5366 2.71729H38.119V7.49657H43.3126V2.71729H45.8949V14.1741H43.3126V9.65496H38.119V14.1741H35.5366V2.71729Z" fill="#231F20"/>
<path d="M60.1556 3.30516C61.0903 3.81585 61.8322 4.52889 62.3718 5.425C62.9114 6.32112 63.1812 7.32323 63.1812 8.43133C63.1812 9.53943 62.9114 10.5415 62.3718 11.4473C61.8322 12.353 61.0903 13.0661 60.1556 13.5864C59.2209 14.1067 58.1707 14.3669 57.024 14.3669C55.8774 14.3669 54.8367 14.1067 53.9021 13.5864C52.9674 13.0661 52.2255 12.3627 51.6859 11.4569C51.1463 10.5608 50.8765 9.54906 50.8765 8.44096C50.8765 7.33286 51.1463 6.34039 51.6859 5.43464C52.2255 4.52889 52.9674 3.82549 53.8924 3.3148C54.8271 2.80411 55.8677 2.54395 57.024 2.54395C58.1803 2.54395 59.2113 2.80411 60.1556 3.3148M55.2896 5.29011C54.7404 5.60808 54.3164 6.05132 53.9984 6.61019C53.6804 7.16906 53.5263 7.7761 53.5263 8.44096C53.5263 9.10582 53.6901 9.73214 54.0081 10.291C54.326 10.8499 54.7596 11.2931 55.2992 11.6207C55.8388 11.9483 56.4266 12.1121 57.0626 12.1121C57.6985 12.1121 58.2766 11.9483 58.8066 11.6304C59.3366 11.3124 59.7605 10.8691 60.0689 10.3006C60.3772 9.74178 60.5314 9.11546 60.5314 8.44096C60.5314 7.76647 60.3772 7.15942 60.0689 6.61019C59.7605 6.05132 59.3366 5.61772 58.8066 5.29011C58.2766 4.97213 57.6985 4.80832 57.0626 4.80832C56.4266 4.80832 55.8388 4.97213 55.2992 5.29011" fill="#231F20"/>
<path d="M68.1631 2.71729H71.0442L74.6093 9.76095L78.1456 2.71729H81.017V14.1741H78.6852V6.43665L75.4284 13.0178H73.7614L70.4853 6.43665V14.1741H68.1631V2.71729Z" fill="#231F20"/>
<path d="M86.8271 2.71729H95.557V4.8564H89.4095V7.35203H94.9307V9.49115H89.4095V12.035H95.7305V14.1741H86.8271V2.71729Z" fill="#231F20"/>
<path d="M106.715 5.04918C106.05 4.8372 105.491 4.73121 105.019 4.73121C104.547 4.73121 104.219 4.80829 103.959 4.9721C103.699 5.1359 103.564 5.3768 103.564 5.69477C103.564 6.09947 103.757 6.40781 104.133 6.61979C104.508 6.83178 105.087 7.0534 105.877 7.28465C106.667 7.51591 107.312 7.74717 107.814 7.96879C108.324 8.20004 108.758 8.53729 109.114 8.9998C109.471 9.46231 109.654 10.0597 109.654 10.8209C109.654 11.5822 109.461 12.1796 109.076 12.7095C108.69 13.2395 108.151 13.6442 107.476 13.914C106.802 14.1838 106.031 14.3187 105.164 14.3187C104.239 14.3187 103.323 14.1549 102.427 13.8273C101.531 13.4997 100.76 13.0468 100.105 12.4879L101.136 10.3777C101.714 10.898 102.379 11.322 103.131 11.64C103.882 11.9579 104.576 12.1121 105.193 12.1121C105.723 12.1121 106.147 12.0158 106.445 11.8134C106.744 11.6207 106.898 11.3316 106.898 10.9655C106.898 10.6668 106.802 10.4259 106.599 10.2332C106.397 10.0405 106.137 9.88628 105.829 9.77065C105.52 9.65503 105.087 9.51049 104.547 9.36596C103.757 9.14434 103.121 8.93235 102.62 8.71073C102.119 8.48911 101.695 8.1615 101.338 7.70862C100.982 7.26538 100.799 6.66797 100.799 5.92603C100.799 5.2419 100.982 4.63485 101.358 4.11453C101.733 3.5942 102.244 3.19914 102.909 2.9197C103.574 2.64027 104.354 2.50537 105.231 2.50537C106.021 2.50537 106.792 2.621 107.553 2.85225C108.315 3.08351 108.999 3.39185 109.586 3.76764L108.584 5.91639C107.997 5.55987 107.37 5.2708 106.705 5.05882" fill="#231F20"/>
<path d="M134.09 2.71729H136.875L140.006 11.3605L143.147 2.71729H145.816L141.259 14.1741H138.59L134.09 2.71729Z" fill="#231F20"/>
<path d="M153.043 2.71729H150.461V14.1741H153.043V2.71729Z" fill="#231F20"/>
<path d="M158.979 2.71729H161.561V11.9193H166.476V14.1741H158.979V2.71729Z" fill="#231F20"/>
<path d="M171.399 2.71729H173.991V11.9193H178.906V14.1741H171.399V2.71729Z" fill="#231F20"/>
<path d="M192.357 14.1741L191.461 11.9482H186.152L185.255 14.1741H182.586L187.568 2.71729H190.237L195.132 14.1741H192.367H192.357ZM187 9.86694H190.623L188.821 5.41527L187 9.86694Z" fill="#231F20"/>
<path d="M205.317 5.04918C204.652 4.8372 204.093 4.73121 203.621 4.73121C203.149 4.73121 202.821 4.80829 202.561 4.9721C202.301 5.1359 202.166 5.3768 202.166 5.69477C202.166 6.09947 202.358 6.40781 202.734 6.61979C203.11 6.83178 203.688 7.0534 204.478 7.28465C205.268 7.51591 205.914 7.74717 206.415 7.96879C206.926 8.20004 207.359 8.53729 207.716 8.9998C208.072 9.46231 208.255 10.0597 208.255 10.8209C208.255 11.5822 208.063 12.1796 207.677 12.7095C207.292 13.2395 206.752 13.6442 206.078 13.914C205.403 14.1838 204.632 14.3187 203.765 14.3187C202.84 14.3187 201.925 14.1549 201.029 13.8273C200.133 13.4997 199.362 13.0468 198.707 12.4879L199.738 10.3777C200.316 10.898 200.981 11.322 201.732 11.64C202.484 11.9579 203.177 12.1121 203.794 12.1121C204.324 12.1121 204.748 12.0158 205.047 11.8134C205.346 11.6207 205.5 11.3316 205.5 10.9655C205.5 10.6668 205.403 10.4259 205.201 10.2332C204.999 10.0405 204.738 9.88628 204.43 9.77065C204.122 9.65503 203.688 9.51049 203.149 9.36596C202.358 9.14434 201.723 8.93235 201.221 8.71073C200.72 8.48911 200.296 8.1615 199.94 7.70862C199.583 7.26538 199.4 6.66797 199.4 5.92603C199.4 5.2419 199.583 4.63485 199.959 4.11453C200.335 3.5942 200.846 3.19914 201.511 2.9197C202.175 2.64027 202.956 2.50537 203.833 2.50537C204.623 2.50537 205.394 2.621 206.155 2.85225C206.916 3.08351 207.6 3.39185 208.188 3.76764L207.186 5.91639C206.598 5.55987 205.972 5.2708 205.307 5.05882" fill="#231F20"/>
<path d="M95.5764 28.6758C94.1311 28.6758 92.9651 27.5003 92.9651 26.0645C92.9651 24.6288 94.1407 23.4533 95.5764 23.4533C97.0121 23.4533 98.1877 24.6288 98.1877 26.0645C98.1877 27.5003 97.0121 28.6758 95.5764 28.6758ZM95.5764 22.1621C93.4276 22.1621 91.6836 23.9062 91.6836 26.0549C91.6836 28.2037 93.4276 29.9477 95.5764 29.9477C97.7251 29.9477 99.4692 28.2037 99.4692 26.0549C99.4692 23.9062 97.7251 22.1621 95.5764 22.1621Z" fill="#231F20"/>
<path d="M163.778 22.3162L161.6 25.4188L159.422 22.3162H157.929L160.945 26.5751V29.8031H162.255V26.5751H162.265L165.271 22.3162H163.778Z" fill="#231F20"/>
<path d="M120.302 23.4051H122.508C123.115 23.4051 123.616 23.8483 123.616 24.3976C123.616 24.9468 123.115 25.3901 122.508 25.3901H120.302V23.4051ZM124.32 25.9104L124.214 25.8333L124.3 25.7466C124.657 25.3708 124.859 24.889 124.859 24.3976C124.859 23.2413 123.799 22.3066 122.498 22.3066H118.981V29.8032H122.701C124.079 29.8032 125.196 28.8107 125.196 27.5966C125.196 26.951 124.878 26.3343 124.31 25.9104M122.691 28.7047H120.282V26.4789H122.691C123.375 26.4789 123.944 26.9799 123.944 27.5966C123.944 28.2133 123.385 28.7047 122.691 28.7047Z" fill="#231F20"/>
<path d="M147.069 27.3074L144.901 22.3162H143.465L146.77 29.8031H147.377L150.682 22.3162H149.237L147.069 27.3074Z" fill="#231F20"/>
<path d="M130.428 28.6758C128.983 28.6758 127.817 27.5003 127.817 26.0645C127.817 24.6288 128.993 23.4533 130.428 23.4533C131.864 23.4533 133.04 24.6288 133.04 26.0645C133.04 27.5003 131.864 28.6758 130.428 28.6758ZM130.428 22.1621C128.28 22.1621 126.536 23.9062 126.536 26.0549C126.536 28.2037 128.28 29.9477 130.428 29.9477C132.577 29.9477 134.321 28.2037 134.321 26.0549C134.321 23.9062 132.577 22.1621 130.428 22.1621Z" fill="#231F20"/>
<path d="M140.796 27.1436L136.537 22.3162H135.892V29.8031H137.192V24.9756L141.451 29.8031H142.107V22.3162H140.796V27.1436Z" fill="#231F20"/>
<path d="M157.736 28.7144H151.155V29.8128H157.736V28.7144Z" fill="#231F20"/>
<path d="M154.44 26.2862C153.612 26.2862 152.937 25.6117 152.937 24.783C152.937 23.9543 153.612 23.2798 154.44 23.2798C155.269 23.2798 155.944 23.9543 155.944 24.783C155.944 25.6117 155.269 26.2862 154.44 26.2862ZM154.44 22.1621C152.995 22.1621 151.829 23.3377 151.829 24.7734C151.829 26.2091 153.005 27.3846 154.44 27.3846C155.876 27.3846 157.052 26.2091 157.052 24.7734C157.052 23.3377 155.876 22.1621 154.44 22.1621Z" fill="#231F20"/>
<path d="M52.7939 29.8031V22.3162H54.2971L56.6675 26.5751L59.0475 22.3162H60.541V29.8031H59.2402V24.5035L57.1493 28.3481H56.1953L54.1044 24.5035V29.8031H52.7939Z" fill="#231F20"/>
<path d="M64.8675 27.2305L66.0623 24.6577L67.2572 27.2305H64.8675ZM66.3707 22.3066H65.754L62.2852 29.8032H63.6823L64.3568 28.3386H67.7775L68.452 29.8032H69.8491L66.3803 22.3066H66.3707Z" fill="#231F20"/>
<path d="M72.8554 23.4051H75.2643C75.9581 23.4051 76.5169 23.9062 76.5169 24.5132C76.5169 25.1203 75.9581 25.6309 75.2643 25.6309H72.8554V23.4051ZM75.6208 26.7005C76.8253 26.5463 77.7599 25.6309 77.7599 24.5132C77.7599 23.2991 76.6422 22.3066 75.2643 22.3066H71.5449V29.8032H72.8554V26.7294H74.1465L76.2664 29.8032H77.7599L75.6208 26.7005Z" fill="#231F20"/>
<path d="M81.2289 23.4051H83.6378C84.3316 23.4051 84.8904 23.9062 84.8904 24.5132C84.8904 25.1203 84.3316 25.6309 83.6378 25.6309H81.2289V23.4051ZM83.9943 26.7005C85.1988 26.5463 86.1334 25.6309 86.1334 24.5132C86.1334 23.2991 85.0157 22.3066 83.6378 22.3066H79.9185V29.7935H81.2289V26.7198H82.5201L84.6399 29.7935H86.1334L83.9943 26.6909V26.7005Z" fill="#231F20"/>
<path d="M89.6601 22.3162H88.3496V29.8127H89.6601V22.3162Z" fill="#231F20"/>
<path d="M106.205 22.3162H100.414V23.511H102.659V29.8031H103.969V23.511H106.205V22.3162Z" fill="#231F20"/>
<path d="M113.296 22.3162H107.505V23.511H109.75V29.8031H111.051V23.511H113.296V22.3162Z" fill="#231F20"/>
<path d="M166.446 23.8291C166.34 23.8291 166.244 23.8098 166.148 23.7713C166.051 23.7327 165.974 23.6749 165.907 23.6075C165.839 23.54 165.781 23.4629 165.743 23.3666C165.704 23.2702 165.685 23.1739 165.685 23.0679C165.685 22.9619 165.704 22.8655 165.743 22.7692C165.781 22.6728 165.839 22.5957 165.907 22.5283C165.974 22.4608 166.051 22.403 166.148 22.3645C166.244 22.3259 166.34 22.3066 166.446 22.3066C166.552 22.3066 166.649 22.3259 166.745 22.3645C166.841 22.403 166.918 22.4608 166.986 22.5283C167.053 22.5957 167.111 22.6728 167.15 22.7692C167.188 22.8655 167.207 22.9619 167.207 23.0679C167.207 23.1739 167.188 23.2702 167.15 23.3666C167.111 23.4629 167.053 23.54 166.986 23.6075C166.918 23.6749 166.832 23.7327 166.745 23.7713C166.658 23.8098 166.552 23.8291 166.446 23.8291ZM166.446 23.6845C166.533 23.6845 166.61 23.6653 166.687 23.6364C166.764 23.6075 166.822 23.5593 166.88 23.5015C166.938 23.4436 166.976 23.3762 167.005 23.3087C167.034 23.2317 167.053 23.1546 167.053 23.0679C167.053 22.9811 167.044 22.9041 167.005 22.827C166.976 22.7499 166.938 22.6824 166.88 22.6343C166.832 22.5764 166.764 22.5379 166.687 22.4994C166.62 22.4704 166.533 22.4512 166.456 22.4512C166.379 22.4512 166.292 22.4704 166.215 22.4994C166.138 22.5283 166.08 22.5764 166.022 22.6343C165.964 22.6921 165.926 22.7595 165.897 22.827C165.868 22.9041 165.849 22.9811 165.849 23.0679C165.849 23.1546 165.859 23.2317 165.897 23.3087C165.926 23.3858 165.964 23.4533 166.022 23.5015C166.08 23.5593 166.138 23.5978 166.215 23.6364C166.292 23.6653 166.369 23.6845 166.456 23.6845M166.196 22.6824H166.494C166.494 22.6824 166.581 22.6824 166.62 22.7017C166.649 22.7113 166.678 22.7306 166.706 22.7595C166.726 22.7788 166.745 22.8077 166.755 22.8366C166.764 22.8655 166.774 22.8848 166.774 22.9137C166.774 22.9619 166.764 23.01 166.735 23.0486C166.706 23.0871 166.668 23.116 166.62 23.1353L166.812 23.4533H166.649L166.475 23.1546H166.35V23.4533H166.205V22.6824H166.196ZM166.485 23.039C166.485 23.039 166.562 23.0293 166.581 23.01C166.6 22.9908 166.61 22.9619 166.61 22.9233C166.61 22.8848 166.6 22.8559 166.581 22.8366C166.562 22.8173 166.523 22.8077 166.475 22.8077H166.34V23.039H166.485Z" fill="#231F20"/>
<path d="M36.6831 29.2346V29.7934H35.5269V22.3162H36.7602V25.072C37.0493 24.7733 37.6467 24.4938 38.3501 24.4938C39.7184 24.4938 40.8843 25.5634 40.8843 27.2014C40.8843 28.8395 39.7087 29.9091 38.3019 29.9091C37.5022 29.9091 37.0011 29.6104 36.6928 29.2442L36.6831 29.2346ZM39.6509 27.1918C39.6509 26.2668 38.9957 25.6501 38.167 25.6501C37.3384 25.6501 36.6831 26.2571 36.6831 27.1918C36.6831 28.1265 37.3384 28.7335 38.167 28.7335C38.9957 28.7335 39.6509 28.1265 39.6509 27.1918Z" fill="#231F20"/>
<path d="M43.8716 29.1286L41.771 24.5999H43.1585L44.5653 27.7314L46.0685 24.5999H47.4079L43.7848 31.9904H42.4551L43.8619 29.1286H43.8716Z" fill="#231F20"/>
</g>
<defs>
<clipPath id="clip0_36_440">
<rect width="208.255" height="32" fill="white"/>
</clipPath>
</defs>
</svg>
