<svg width="14" height="12" viewBox="0 0 14 12" fill="none" xmlns="http://www.w3.org/2000/svg">
<path d="M12.9231 3.66469e-06C13.1564 -0.000653292 13.3812 0.0870394 13.5525 0.245446C13.7237 0.403854 13.8287 0.621226 13.8461 0.853849V11.0769C13.8468 11.3102 13.7591 11.5351 13.6007 11.7063C13.4423 11.8776 13.2249 11.9825 12.9923 12H0.92308C0.689801 12.0007 0.464924 11.913 0.293673 11.7546C0.122422 11.5961 0.0174988 11.3788 3.66469e-06 11.1462V0.92308C-0.000653292 0.689801 0.0870395 0.464924 0.245447 0.293673C0.403854 0.122422 0.621226 0.0174988 0.853849 3.66469e-06H0.92308H12.9231ZM12.9231 0.92308H0.92308V11.0769H12.9231V0.92308ZM10.1538 1.84616V10.1538H1.84616V1.84616H10.1538ZM9.23077 2.76923H2.76923V9.23077H4.15385C3.87871 8.86745 3.71803 8.4304 3.69231 7.97538V6.46154H8.30769V7.84615C8.30836 8.34558 8.14634 8.83163 7.84615 9.23077H9.23077V2.76923ZM7.38461 7.38461H4.61539V7.84615C4.61533 8.18544 4.73985 8.51294 4.96532 8.76648C5.19078 9.02002 5.50149 9.18195 5.83846 9.22154L5.91692 9.22615L6 9.23077C6.35327 9.2314 6.69343 9.09698 6.95083 8.85502C7.20823 8.61306 7.36342 8.28187 7.38461 7.92923V7.84615V7.38461ZM11.5385 3.69231C11.6609 3.69231 11.7783 3.74094 11.8648 3.82749C11.9514 3.91405 12 4.03144 12 4.15385C12 4.27625 11.9514 4.39365 11.8648 4.4802C11.7783 4.56676 11.6609 4.61539 11.5385 4.61539C11.416 4.61539 11.2987 4.56676 11.2121 4.4802C11.1255 4.39365 11.0769 4.27625 11.0769 4.15385C11.0769 4.03144 11.1255 3.91405 11.2121 3.82749C11.2987 3.74094 11.416 3.69231 11.5385 3.69231ZM11.5385 1.84616C11.6609 1.84616 11.7783 1.89478 11.8648 1.98134C11.9514 2.06789 12 2.18529 12 2.30769C12 2.4301 11.9514 2.5475 11.8648 2.63405C11.7783 2.72061 11.6609 2.76923 11.5385 2.76923C11.416 2.76923 11.2987 2.72061 11.2121 2.63405C11.1255 2.5475 11.0769 2.4301 11.0769 2.30769C11.0769 2.18529 11.1255 2.06789 11.2121 1.98134C11.2987 1.89478 11.416 1.84616 11.5385 1.84616Z" fill="black"/>
</svg>
