<svg width="14" height="14" viewBox="0 0 14 14" fill="none" xmlns="http://www.w3.org/2000/svg">
<path d="M7.22824 7.049C5.59724 3.892 6.87824 1.113 7.59924 0C3.84724 0.133 0.844238 3.206 0.844238 6.993C0.844238 7.091 0.858238 7.189 0.858238 7.287C1.29224 7.098 1.76124 6.993 2.25824 6.993C3.42024 6.993 4.48424 7.574 5.12824 8.498C6.29724 8.834 7.15824 9.912 7.15824 11.193C7.15824 12.257 6.54924 13.174 5.67424 13.65C6.36024 13.874 7.09524 14 7.85124 14C10.3012 14 12.4572 12.74 13.7102 10.836C12.0582 10.997 8.82424 10.157 7.22824 7.049Z" fill="black"/>
<path d="M4.3582 9.79294H4.2322C3.9382 8.98094 3.1682 8.39294 2.2582 8.39294C1.0962 8.39294 0.158203 9.33094 0.158203 10.4929C0.158203 11.6549 1.0962 12.5929 2.2582 12.5929H4.3582C5.1282 12.5929 5.7582 11.9629 5.7582 11.1929C5.7582 10.4229 5.1282 9.79294 4.3582 9.79294Z" fill="black"/>
</svg>
