<svg width="11" height="12" viewBox="0 0 11 12" fill="none" xmlns="http://www.w3.org/2000/svg">
<path d="M3.33745 5.71798L4.08784 6.46838V7.04618L3.9265 7.15874C3.63429 7.36209 3.39447 7.63185 3.22674 7.94586C3.059 8.25988 2.96814 8.6092 2.96159 8.96515C2.95505 9.32109 3.03302 9.67352 3.18911 9.99348C3.34519 10.3135 3.57493 10.5918 3.85947 10.8058C4.14402 11.0197 4.47524 11.1632 4.82597 11.2243C5.17669 11.2854 5.53691 11.2624 5.87704 11.1573C6.21718 11.0522 6.52754 10.8679 6.78264 10.6196C7.03774 10.3713 7.23031 10.066 7.34454 9.72883L7.92234 10.3029C7.7289 10.7038 7.44872 11.0566 7.10209 11.3358C6.75547 11.6151 6.35108 11.8138 5.91821 11.9174C5.48533 12.0211 5.03482 12.0272 4.5993 11.9353C4.16378 11.8434 3.75415 11.6558 3.40007 11.3861C3.046 11.1163 2.75636 10.7712 2.55211 10.3757C2.34787 9.98023 2.23414 9.54427 2.21917 9.0994C2.2042 8.65454 2.28835 8.21192 2.46554 7.80359C2.64273 7.39526 2.90851 7.03145 3.24365 6.73852L3.33745 6.66348V5.71798ZM0.598516 0.862951L10.3536 10.618L9.82833 11.1508L0.0732422 1.39573L0.598516 0.862951ZM4.83823 7.21877L6.71421 9.09475C6.69768 9.37102 6.60507 9.63735 6.44663 9.86428C6.28819 10.0912 6.07008 10.2699 5.81641 10.3806C5.56275 10.4913 5.28341 10.5297 5.00928 10.4916C4.73515 10.4534 4.47691 10.3402 4.2631 10.1645C4.04929 9.98874 3.88825 9.75729 3.79777 9.49573C3.7073 9.23416 3.69091 8.95267 3.75043 8.68238C3.80995 8.41208 3.94306 8.16351 4.13503 7.96414C4.32701 7.76478 4.57037 7.62238 4.83823 7.55269V7.21877ZM5.21342 8.25431C5.01441 8.25431 4.82354 8.33337 4.68282 8.47409C4.54209 8.61482 4.46303 8.80568 4.46303 9.0047C4.46303 9.20371 4.54209 9.39458 4.68282 9.53531C4.82354 9.67603 5.01441 9.75509 5.21342 9.75509C5.41244 9.75509 5.6033 9.67603 5.74403 9.53531C5.88476 9.39458 5.96382 9.20371 5.96382 9.0047C5.96382 8.80568 5.88476 8.61482 5.74403 8.47409C5.6033 8.33337 5.41244 8.25431 5.21342 8.25431ZM5.21342 8.80868e-07C5.69699 -0.000467426 6.16206 0.185809 6.51159 0.519965C6.86112 0.85412 7.06813 1.31034 7.0894 1.79344V6.28828L6.33901 5.53789V4.12715H4.92828L4.83823 4.03711V3.37676H6.33901V2.62637H4.83823V1.87598H6.33901C6.34797 1.57746 6.23797 1.2876 6.03321 1.07018C5.82846 0.852758 5.54572 0.725581 5.24719 0.716625C4.94867 0.707669 4.65881 0.817668 4.44139 1.02242C4.22397 1.22718 4.09679 1.50992 4.08784 1.80844V3.28672L3.33745 2.53632V1.87598C3.3375 1.40706 3.51317 0.955157 3.82985 0.609316C4.14652 0.263474 4.58123 0.04877 5.04834 0.0075048L5.13088 0.00375284L5.21342 8.80868e-07Z" fill="black"/>
</svg>
