<svg width="13" height="12" viewBox="0 0 13 12" fill="none" xmlns="http://www.w3.org/2000/svg">
<path d="M11.2347 3.40292e-06C11.4513 -0.000606628 11.6601 0.0808223 11.8191 0.227915C11.9781 0.375007 12.0755 0.576853 12.0918 0.79286V11.1429C12.0924 11.3595 12.011 11.5683 11.8639 11.7273C11.7168 11.8863 11.5149 11.9838 11.2989 12H0.948943C0.732326 12.0006 0.523512 11.9192 0.364493 11.7721C0.205474 11.625 0.108046 11.4231 0.0918003 11.2071V0.857146C0.0911902 0.640529 0.172619 0.431715 0.319711 0.272696C0.466804 0.113678 0.66865 0.0162488 0.884657 3.40292e-06H0.948943H11.2347ZM11.2347 4.28572H0.948943V11.1429H11.2347V4.28572ZM10.3775 5.14286V10.2857H1.80609V5.14286H10.3775ZM9.52037 6H2.66323V9.42857H9.52037V6ZM11.2347 0.857146H0.948943V3.42857H11.2347V0.857146ZM9.94894 1.71429C10.0626 1.71429 10.1716 1.75944 10.252 1.83981C10.3324 1.92019 10.3775 2.0292 10.3775 2.14286C10.3775 2.25652 10.3324 2.36553 10.252 2.4459C10.1716 2.52628 10.0626 2.57143 9.94894 2.57143C9.83527 2.57143 9.72626 2.52628 9.64589 2.4459C9.56552 2.36553 9.52037 2.25652 9.52037 2.14286C9.52037 2.0292 9.56552 1.92019 9.64589 1.83981C9.72626 1.75944 9.83527 1.71429 9.94894 1.71429ZM7.37751 1.71429C7.49117 1.71429 7.60018 1.75944 7.68056 1.83981C7.76093 1.92019 7.80608 2.0292 7.80608 2.14286C7.80608 2.25652 7.76093 2.36553 7.68056 2.4459C7.60018 2.52628 7.49117 2.57143 7.37751 2.57143C7.26385 2.57143 7.15484 2.52628 7.07446 2.4459C6.99409 2.36553 6.94894 2.25652 6.94894 2.14286C6.94894 2.0292 6.99409 1.92019 7.07446 1.83981C7.15484 1.75944 7.26385 1.71429 7.37751 1.71429ZM4.80608 1.71429C4.91975 1.71429 5.02876 1.75944 5.10913 1.83981C5.1895 1.92019 5.23465 2.0292 5.23465 2.14286C5.23465 2.25652 5.1895 2.36553 5.10913 2.4459C5.02876 2.52628 4.91975 2.57143 4.80608 2.57143C4.69242 2.57143 4.58341 2.52628 4.50304 2.4459C4.42267 2.36553 4.37751 2.25652 4.37751 2.14286C4.37751 2.0292 4.42267 1.92019 4.50304 1.83981C4.58341 1.75944 4.69242 1.71429 4.80608 1.71429ZM2.23466 1.71429C2.34832 1.71429 2.45733 1.75944 2.5377 1.83981C2.61807 1.92019 2.66323 2.0292 2.66323 2.14286C2.66323 2.25652 2.61807 2.36553 2.5377 2.4459C2.45733 2.52628 2.34832 2.57143 2.23466 2.57143C2.12099 2.57143 2.01198 2.52628 1.93161 2.4459C1.85124 2.36553 1.80609 2.25652 1.80609 2.14286C1.80609 2.0292 1.85124 1.92019 1.93161 1.83981C2.01198 1.75944 2.12099 1.71429 2.23466 1.71429Z" fill="black"/>
</svg>
