<svg width="14" height="12" viewBox="0 0 14 12" fill="none" xmlns="http://www.w3.org/2000/svg">
<path d="M12 7C12 7.13261 11.9473 7.25979 11.8536 7.35355C11.7598 7.44732 11.6326 7.5 11.5 7.5C11.3674 7.5 11.2402 7.44732 11.1464 7.35355C11.0527 7.25979 11 7.13261 11 7C11 6.86739 11.0527 6.74021 11.1464 6.64645C11.2402 6.55268 11.3674 6.5 11.5 6.5C11.6326 6.5 11.7598 6.55268 11.8536 6.64645C11.9473 6.74021 12 6.86739 12 7ZM2.5 6.5C2.36739 6.5 2.24021 6.55268 2.14645 6.64645C2.05268 6.74021 2 6.86739 2 7C2 7.13261 2.05268 7.25979 2.14645 7.35355C2.24021 7.44732 2.36739 7.5 2.5 7.5C2.63261 7.5 2.75979 7.44732 2.85355 7.35355C2.94732 7.25979 3 7.13261 3 7C3 6.86739 2.94732 6.74021 2.85355 6.64645C2.75979 6.55268 2.63261 6.5 2.5 6.5ZM12.85 4L13.055 4.56C13.3482 4.79153 13.5855 5.08619 13.7491 5.42207C13.9127 5.75795 13.9985 6.1264 14 6.5V11C14 11.2652 13.8946 11.5196 13.7071 11.7071C13.5196 11.8946 13.2652 12 13 12H12C11.7348 12 11.4804 11.8946 11.2929 11.7071C11.1054 11.5196 11 11.2652 11 11V10H3V11C3 11.2652 2.89464 11.5196 2.70711 11.7071C2.51957 11.8946 2.26522 12 2 12H1C0.734784 12 0.48043 11.8946 0.292893 11.7071C0.105357 11.5196 0 11.2652 0 11V6.5C0 5.715 0.375 5.02 0.945 4.56L1.15 4H0V3H1.5V3.075L2.41 0.65C2.48121 0.459399 2.60888 0.295057 2.77594 0.178914C2.94301 0.0627719 3.14153 0.000356129 3.345 0H10.655C11.07 0 11.445 0.26 11.59 0.65L12.5 3.075V3H14V4H12.85ZM2 10H1V11H2V10ZM13 10H12V11H13V10ZM13 9V6.5C13 6.10218 12.842 5.72064 12.5607 5.43934C12.2794 5.15804 11.8978 5 11.5 5H2.5C2.10218 5 1.72064 5.15804 1.43934 5.43934C1.15804 5.72064 1 6.10218 1 6.5V9H13ZM11.5 4H11.78L10.65 1H3.345L2.22 4H11.5ZM4 7.5H10V6.5H4V7.5Z" fill="black"/>
</svg>
