<svg width="10" height="12" viewBox="0 0 10 12" fill="none" xmlns="http://www.w3.org/2000/svg">
<path d="M4.94258 9.39102e-07C5.20522 9.39102e-07 5.46529 0.0517325 5.70794 0.152242C5.9506 0.252751 6.17107 0.40007 6.35679 0.585787C6.54251 0.771505 6.68983 0.991983 6.79034 1.23463C6.89085 1.47729 6.94258 1.73736 6.94258 2C7.47301 2 7.98172 2.21071 8.35679 2.58579C8.73186 2.96086 8.94258 3.46957 8.94258 4C8.94258 4.53043 8.73186 5.03914 8.35679 5.41421C7.98172 5.78929 7.47301 6 6.94258 6C6.94267 6.46106 6.78346 6.908 6.4919 7.26516C6.20034 7.62233 5.79432 7.86779 5.34258 7.96V9.676C5.68456 9.27308 6.1107 8.95003 6.59101 8.72957C7.07131 8.50911 7.59411 8.39662 8.12258 8.4C8.63878 8.39876 9.14914 8.50929 9.61858 8.724L9.74258 8.784V9.716C9.26959 9.37928 8.70317 9.19887 8.12258 9.2C7.45417 9.18791 6.80422 9.41955 6.29411 9.85163C5.784 10.2837 5.44861 10.8867 5.35058 11.548L5.34258 11.608V11.648C5.33147 11.7371 5.29072 11.8199 5.22687 11.883C5.16302 11.9461 5.07979 11.9859 4.99058 11.996L4.94258 12C4.85271 11.9997 4.76555 11.9692 4.69516 11.9133C4.62477 11.8574 4.57525 11.7795 4.55458 11.692L4.54658 11.644C4.46345 10.9601 4.12936 10.3315 3.60907 9.87989C3.08878 9.42833 2.41936 9.18605 1.73058 9.2C1.16349 9.19844 0.609448 9.37009 0.142578 9.692V8.768C0.873989 8.41083 1.70351 8.30738 2.50024 8.47397C3.29697 8.64056 4.01555 9.0677 4.54258 9.688V7.96C4.10527 7.87118 3.71022 7.63867 3.4203 7.29946C3.13037 6.96024 2.96221 6.5338 2.94258 6.088V6H2.85458C2.32414 6 1.81544 5.78929 1.44036 5.41421C1.06529 5.03914 0.854578 4.53043 0.854578 4C0.854578 3.46957 1.06529 2.96086 1.44036 2.58579C1.81544 2.21071 2.32414 2 2.85458 2H2.94258V1.912C2.96526 1.39697 3.18595 0.910586 3.55859 0.55434C3.93123 0.198093 4.42705 -0.000498328 4.94258 9.39102e-07ZM6.08658 5.64C5.75143 5.87512 5.35197 6.00126 4.94258 6.00126C4.53318 6.00126 4.13373 5.87512 3.79858 5.64L3.77058 5.732C3.73053 5.90774 3.73058 6.09024 3.77073 6.26596C3.81088 6.44167 3.8901 6.60608 4.0025 6.74699C4.1149 6.88789 4.2576 7.00166 4.42001 7.07985C4.58241 7.15804 4.76033 7.19865 4.94058 7.19865C5.12082 7.19865 5.29875 7.15804 5.46115 7.07985C5.62355 7.00166 5.76625 6.88789 5.87865 6.74699C5.99106 6.60608 6.07028 6.44167 6.11043 6.26596C6.15058 6.09024 6.15063 5.90774 6.11058 5.732L6.08658 5.64ZM2.94258 2.8C2.77451 2.80147 2.60863 2.83823 2.45568 2.90789C2.30273 2.97756 2.16612 3.07857 2.05469 3.2044C1.94327 3.33022 1.85952 3.47805 1.80887 3.63831C1.75821 3.79856 1.74179 3.96767 1.76066 4.13468C1.77953 4.30169 1.83327 4.46287 1.9184 4.60778C2.00353 4.7527 2.11816 4.87811 2.25485 4.9759C2.39154 5.0737 2.54724 5.14169 2.71188 5.17547C2.87652 5.20925 3.04642 5.20807 3.21058 5.172L3.30258 5.144C3.06791 4.8087 2.94221 4.40926 2.94258 4C2.94258 3.576 3.07458 3.18 3.30258 2.856L3.21058 2.828C3.12257 2.80867 3.03268 2.79928 2.94258 2.8ZM6.94258 2.8C6.85058 2.8 6.76258 2.812 6.67458 2.828L6.58258 2.856C6.81058 3.176 6.94258 3.576 6.94258 4C6.94295 4.40926 6.81725 4.8087 6.58258 5.144L6.67458 5.172C6.83873 5.20807 7.00863 5.20925 7.17327 5.17547C7.33791 5.14169 7.49362 5.0737 7.63031 4.9759C7.767 4.87811 7.88162 4.7527 7.96675 4.60778C8.05188 4.46287 8.10563 4.30169 8.1245 4.13468C8.14336 3.96767 8.12694 3.79856 8.07629 3.63831C8.02564 3.47805 7.94189 3.33022 7.83046 3.2044C7.71904 3.07857 7.58243 2.97756 7.42947 2.90789C7.27652 2.83823 7.11064 2.80147 6.94258 2.8ZM4.94258 2.8C4.78499 2.8 4.62895 2.83104 4.48336 2.89135C4.33777 2.95165 4.20548 3.04004 4.09405 3.15147C3.98262 3.2629 3.89423 3.39519 3.83392 3.54078C3.77362 3.68637 3.74258 3.84241 3.74258 4C3.74258 4.15759 3.77362 4.31363 3.83392 4.45922C3.89423 4.60481 3.98262 4.7371 4.09405 4.84853C4.20548 4.95996 4.33777 5.04835 4.48336 5.10866C4.62895 5.16896 4.78499 5.2 4.94258 5.2C5.26084 5.2 5.56606 5.07357 5.79111 4.84853C6.01615 4.62349 6.14258 4.31826 6.14258 4C6.14258 3.68174 6.01615 3.37652 5.79111 3.15147C5.56606 2.92643 5.26084 2.8 4.94258 2.8ZM4.94258 0.800001C4.76202 0.799653 4.58371 0.840054 4.42094 0.918194C4.25817 0.996333 4.11513 1.1102 4.00248 1.2513C3.88983 1.3924 3.81047 1.55711 3.77032 1.73314C3.73016 1.90918 3.73025 2.09201 3.77058 2.268L3.79858 2.36C4.13373 2.12489 4.53318 1.99875 4.94258 1.99875C5.35197 1.99875 5.75143 2.12489 6.08658 2.36L6.11458 2.268C6.1549 2.09201 6.15499 1.90918 6.11484 1.73314C6.07469 1.55711 5.99533 1.3924 5.88268 1.2513C5.77003 1.1102 5.62698 0.996333 5.46421 0.918194C5.30144 0.840054 5.12313 0.799653 4.94258 0.800001Z" fill="black"/>
</svg>
