<svg width="20" height="20" viewBox="0 0 20 20" fill="none" xmlns="http://www.w3.org/2000/svg">
<path d="M4.56751 1.66C4.49372 1.56508 4.40057 1.48694 4.29426 1.43078C4.18795 1.37462 4.07091 1.34173 3.95091 1.33428C3.83091 1.32683 3.71069 1.345 3.59825 1.38758C3.48581 1.43016 3.38372 1.49618 3.29876 1.58125L2.00626 2.875C1.40251 3.48 1.18001 4.33625 1.44376 5.0875C2.53967 8.19639 4.3202 11.0193 6.65376 13.3475C8.982 15.6811 11.8049 17.4616 14.9138 18.5575C15.665 18.8213 16.5213 18.5988 17.1263 17.995L18.4188 16.7025C18.5038 16.6175 18.5698 16.5154 18.6124 16.403C18.655 16.2906 18.6732 16.1704 18.6657 16.0504C18.6583 15.9304 18.6254 15.8133 18.5692 15.707C18.5131 15.6007 18.4349 15.5075 18.34 15.4338L15.4563 13.1913C15.3548 13.1128 15.2368 13.0583 15.1112 13.0319C14.9857 13.0054 14.8558 13.0078 14.7313 13.0388L11.9938 13.7225C11.6283 13.8132 11.2457 13.8081 10.8828 13.7075C10.52 13.607 10.1892 13.4146 9.92251 13.1488L6.85251 10.0775C6.58649 9.81095 6.39378 9.48024 6.29305 9.11738C6.19231 8.75451 6.18696 8.37179 6.27751 8.00625L6.96251 5.26875C6.99346 5.14423 6.99581 5.01432 6.9694 4.88876C6.94299 4.7632 6.8885 4.64525 6.81001 4.54375L4.56751 1.66ZM2.35501 0.638753C2.57375 0.419939 2.83654 0.250166 3.12593 0.140704C3.41532 0.0312426 3.72469 -0.0154015 4.03349 0.00386883C4.34228 0.0231392 4.64345 0.107883 4.91699 0.252473C5.19052 0.397064 5.43017 0.598192 5.62001 0.842503L7.86251 3.725C8.27376 4.25375 8.41876 4.9425 8.25626 5.5925L7.57251 8.33C7.5374 8.4718 7.53944 8.62026 7.57841 8.76104C7.61738 8.90183 7.69198 9.03019 7.79501 9.13375L10.8663 12.205C10.9699 12.3082 11.0985 12.383 11.2395 12.4219C11.3806 12.4609 11.5293 12.4628 11.6713 12.4275L14.4075 11.7438C14.7283 11.664 15.063 11.658 15.3865 11.7262C15.7099 11.7944 16.0137 11.935 16.275 12.1375L19.1575 14.38C20.1938 15.1863 20.2888 16.7175 19.3613 17.6438L18.0688 18.9363C17.1438 19.8613 15.7613 20.2675 14.4725 19.8138C11.1734 18.6545 8.17818 16.7659 5.71001 14.2888C3.23297 11.8209 1.34445 8.82622 0.185009 5.5275C-0.267491 4.24 0.138759 2.85625 1.06376 1.93125L2.35501 0.638753Z" fill="white"/>
</svg>
