<svg width="19" height="24" viewBox="0 0 19 24" fill="none" xmlns="http://www.w3.org/2000/svg">
<path d="M9.05091 0C11.4514 0 13.7535 0.953575 15.4509 2.65095C17.1482 4.34833 18.1018 6.65046 18.1018 9.05091C18.1018 13.8328 15.2282 18.6675 9.54117 23.5776L9.05091 24L8.23633 23.2986C2.76807 18.4789 0 13.7423 0 9.05091C0 4.088 4.07291 0 9.05091 0ZM9.05091 1.50849C4.90258 1.50849 1.50849 4.9252 1.50849 9.05091C1.50849 13.154 3.95977 17.4381 8.92269 21.8881L9.05091 22.0013L9.48837 21.6091C14.142 17.3476 16.4953 13.237 16.5933 9.29981V9.05091C16.5933 8.06043 16.3982 7.07964 16.0192 6.16455C15.6402 5.24946 15.0846 4.41799 14.3842 3.71761C13.6838 3.01723 12.8524 2.46166 11.9373 2.08262C11.0222 1.70358 10.0414 1.50849 9.05091 1.50849ZM9.05091 5.2797C10.0511 5.2797 11.0103 5.67702 11.7176 6.38426C12.4248 7.0915 12.8221 8.05072 12.8221 9.05091C12.8221 10.0511 12.4248 11.0103 11.7176 11.7176C11.0103 12.4248 10.0511 12.8221 9.05091 12.8221C8.05072 12.8221 7.0915 12.4248 6.38426 11.7176C5.67702 11.0103 5.2797 10.0511 5.2797 9.05091C5.2797 8.05072 5.67702 7.0915 6.38426 6.38426C7.0915 5.67702 8.05072 5.2797 9.05091 5.2797ZM9.05091 6.78818C8.4508 6.78818 7.87527 7.02658 7.45092 7.45092C7.02658 7.87526 6.78818 8.4508 6.78818 9.05091C6.78818 9.65102 7.02658 10.2266 7.45092 10.6509C7.87527 11.0752 8.4508 11.3136 9.05091 11.3136C9.65102 11.3136 10.2266 11.0752 10.6509 10.6509C11.0752 10.2266 11.3136 9.65102 11.3136 9.05091C11.3136 8.4508 11.0752 7.87526 10.6509 7.45092C10.2266 7.02658 9.65102 6.78818 9.05091 6.78818Z" fill="url(#paint0_linear_258_3352)"/>
<defs>
<linearGradient id="paint0_linear_258_3352" x1="0" y1="12" x2="18.1018" y2="12" gradientUnits="userSpaceOnUse">
<stop stop-color="#006CE4"/>
<stop offset="1" stop-color="#0797FF"/>
</linearGradient>
</defs>
</svg>
