<svg width="15" height="12" viewBox="0 0 15 12" fill="none" xmlns="http://www.w3.org/2000/svg">
<path d="M13.0532 2.2223e-06C13.4022 -0.00062647 13.7382 0.13216 13.9925 0.371178C14.2467 0.610196 14.4 0.937367 14.421 1.28572V8.66261C14.4216 9.01159 14.2888 9.34761 14.0498 9.60189C13.8108 9.85616 13.4836 10.0095 13.1353 10.0304H11.1018L11.6626 11.7082L10.7964 12L10.1398 10.0304H2.11095C1.76197 10.031 1.42595 9.89824 1.17168 9.65922C0.917402 9.4202 0.764104 9.09303 0.743166 8.74468V1.36778C0.742538 1.01881 0.875324 0.682787 1.11434 0.428512C1.35336 0.174238 1.68053 0.0209403 2.02888 2.2223e-06H13.0532ZM13.0532 8.20669C12.9323 8.19943 12.8134 8.24051 12.7228 8.32088C12.6322 8.40126 12.5772 8.51434 12.5699 8.63526C12.5627 8.75618 12.6037 8.87503 12.6841 8.96566C12.7645 9.05629 12.8776 9.11129 12.9985 9.11854H13.1079C13.2288 9.11129 13.3419 9.05629 13.4223 8.96566C13.5027 8.87503 13.5437 8.75618 13.5365 8.63526C13.5292 8.51434 13.4742 8.40126 13.3836 8.32088C13.293 8.24051 13.1741 8.19943 13.0532 8.20669ZM2.11095 8.20669C1.99003 8.20669 1.87406 8.25472 1.78856 8.34023C1.70306 8.42573 1.65502 8.5417 1.65502 8.66261C1.65502 8.78353 1.70306 8.8995 1.78856 8.985C1.87406 9.07051 1.99003 9.11854 2.11095 9.11854C2.23187 9.11854 2.34783 9.07051 2.43334 8.985C2.51884 8.8995 2.56687 8.78353 2.56687 8.66261C2.56687 8.5417 2.51884 8.42573 2.43334 8.34023C2.34783 8.25472 2.23187 8.20669 2.11095 8.20669ZM11.7629 0.911856H8.94985V1.44985C8.94985 1.81261 8.80575 2.16051 8.54924 2.41702C8.29273 2.67353 7.94483 2.81763 7.58207 2.81763C7.21931 2.81763 6.87141 2.67353 6.6149 2.41702C6.3584 2.16051 6.21429 1.81261 6.21429 1.44985V0.911856H3.40122C3.48757 1.15542 3.50315 1.41846 3.44617 1.67052C3.38918 1.92258 3.26195 2.15333 3.07922 2.33606C2.8965 2.51879 2.66574 2.64601 2.41368 2.703C2.16163 2.75999 1.89858 2.74441 1.65502 2.65806V7.37234C1.89858 7.28599 2.16163 7.27041 2.41368 7.3274C2.66574 7.38438 2.8965 7.51161 3.07922 7.69434C3.26195 7.87707 3.38918 8.10782 3.44617 8.35988C3.50315 8.61193 3.48757 8.87498 3.40122 9.11854H6.21429V8.66261C6.20341 8.29986 6.33708 7.94763 6.58589 7.68343C6.8347 7.41923 7.17828 7.26468 7.54104 7.2538C7.9038 7.24292 8.25602 7.37659 8.52022 7.6254C8.78443 7.87421 8.93897 8.21779 8.94985 8.58055V9.11854H9.83891L8.37082 4.72341L9.23709 4.43617L10.7964 9.11854H11.7629C11.7197 8.99817 11.6936 8.87232 11.6854 8.74468V8.66261C11.6853 8.44374 11.7377 8.22803 11.8383 8.03361C11.9388 7.83919 12.0845 7.67173 12.2632 7.54532C12.4419 7.4189 12.6483 7.33721 12.8651 7.30711C13.0819 7.27701 13.3028 7.29938 13.5091 7.37234V2.65806C13.2656 2.74441 13.0025 2.75999 12.7505 2.703C12.4984 2.64601 12.2676 2.51879 12.0849 2.33606C11.9022 2.15333 11.775 1.92258 11.718 1.67052C11.661 1.41846 11.6766 1.15542 11.7629 0.911856ZM7.58207 8.20669C7.47006 8.20588 7.36167 8.24633 7.27758 8.32033C7.19349 8.39433 7.13958 8.4967 7.12614 8.6079V9.11854H8.038V8.66261C8.038 8.5417 7.98996 8.42573 7.90446 8.34023C7.81896 8.25472 7.70299 8.20669 7.58207 8.20669ZM8.49393 3.19149C8.61484 3.19149 8.73081 3.23953 8.81631 3.32503C8.90182 3.41053 8.94985 3.5265 8.94985 3.64742C8.94985 3.76834 8.90182 3.8843 8.81631 3.96981C8.73081 4.05531 8.61484 4.10334 8.49393 4.10334C8.37301 4.10334 8.25704 4.05531 8.17154 3.96981C8.08603 3.8843 8.038 3.76834 8.038 3.64742C8.038 3.5265 8.08603 3.41053 8.17154 3.32503C8.25704 3.23953 8.37301 3.19149 8.49393 3.19149ZM13.0532 0.911856C12.9323 0.911856 12.8163 0.959891 12.7308 1.04539C12.6453 1.1309 12.5973 1.24686 12.5973 1.36778C12.5973 1.4887 12.6453 1.60467 12.7308 1.69017C12.8163 1.77567 12.9323 1.82371 13.0532 1.82371C13.1741 1.82371 13.2901 1.77567 13.3756 1.69017C13.4611 1.60467 13.5091 1.4887 13.5091 1.36778C13.5091 1.24686 13.4611 1.1309 13.3756 1.04539C13.2901 0.959891 13.1741 0.911856 13.0532 0.911856ZM2.11095 0.911856C1.99003 0.911856 1.87406 0.959891 1.78856 1.04539C1.70306 1.1309 1.65502 1.24686 1.65502 1.36778C1.65502 1.4887 1.70306 1.60467 1.78856 1.69017C1.87406 1.77567 1.99003 1.82371 2.11095 1.82371C2.23187 1.82371 2.34783 1.77567 2.43334 1.69017C2.51884 1.60467 2.56687 1.4887 2.56687 1.36778C2.56687 1.24686 2.51884 1.1309 2.43334 1.04539C2.34783 0.959891 2.23187 0.911856 2.11095 0.911856ZM8.038 0.911856H7.12614V1.42249C7.12614 1.54341 7.17418 1.65938 7.25968 1.74488C7.34518 1.83039 7.46115 1.87842 7.58207 1.87842C7.70299 1.87842 7.81896 1.83039 7.90446 1.74488C7.98996 1.65938 8.038 1.54341 8.038 1.42249V0.911856Z" fill="black"/>
</svg>
