<svg width="24" height="23" viewBox="0 0 24 23" fill="none" xmlns="http://www.w3.org/2000/svg">
<path d="M12 0.25C13.4774 0.25 14.9403 0.54099 16.3052 1.10636C17.6701 1.67172 18.9103 2.50039 19.955 3.54505C20.9996 4.58971 21.8283 5.8299 22.3936 7.19481C22.959 8.55972 23.25 10.0226 23.25 11.5C23.25 12.9774 22.959 14.4403 22.3936 15.8052C21.8283 17.1701 20.9996 18.4103 19.955 19.455C18.9103 20.4996 17.6701 21.3283 16.3052 21.8936C14.9403 22.459 13.4774 22.75 12 22.75C9.01631 22.75 6.15483 21.5647 4.04505 19.455C1.93526 17.3452 0.75 14.4837 0.75 11.5C0.75 8.51631 1.93526 5.65483 4.04505 3.54505C6.15483 1.43526 9.01631 0.25 12 0.25ZM12 1.75C9.41414 1.75 6.93419 2.77723 5.10571 4.60571C3.27723 6.43419 2.25 8.91414 2.25 11.5C2.25 14.0859 3.27723 16.5658 5.10571 18.3943C6.93419 20.2228 9.41414 21.25 12 21.25C14.5859 21.25 17.0658 20.2228 18.8943 18.3943C20.7228 16.5658 21.75 14.0859 21.75 11.5C21.75 8.91414 20.7228 6.43419 18.8943 4.60571C17.0658 2.77723 14.5859 1.75 12 1.75ZM17.25 7.4425L18.3075 8.5L10.125 16.6825L5.6925 12.25L6.75 11.1925L10.125 14.5675L17.25 7.4425Z" fill="black"/>
</svg>
