<svg width="61" height="48" viewBox="0 0 61 48" fill="none" xmlns="http://www.w3.org/2000/svg">
<path d="M15.5 36H18.5C18.5 36.85 18.788 37.562 19.364 38.136C19.938 38.712 20.65 39 21.5 39C22.35 39 23.063 38.712 23.639 38.136C24.213 37.562 24.5 36.85 24.5 36H27.5C28.35 36 29.063 35.712 29.639 35.136C30.213 34.562 30.5 33.85 30.5 33V24C30.5 23.15 30.213 22.437 29.639 21.861C29.063 21.287 28.35 21 27.5 21H18.5V18H27.575C28.425 18 29.125 17.712 29.675 17.136C30.225 16.562 30.5 15.85 30.5 15C30.5 14.15 30.213 13.437 29.639 12.861C29.063 12.287 28.35 12 27.5 12H24.5C24.5 11.15 24.213 10.437 23.639 9.861C23.063 9.287 22.35 9 21.5 9C20.65 9 19.938 9.287 19.364 9.861C18.788 10.437 18.5 11.15 18.5 12H15.5C14.65 12 13.937 12.287 13.361 12.861C12.787 13.437 12.5 14.15 12.5 15V24C12.5 24.85 12.787 25.562 13.361 26.136C13.937 26.712 14.65 27 15.5 27H24.5V30H15.425C14.575 30 13.875 30.287 13.325 30.861C12.775 31.437 12.5 32.15 12.5 33C12.5 33.85 12.787 34.562 13.361 35.136C13.937 35.712 14.65 36 15.5 36ZM41.45 35.7C41.75 36 42.1 36.15 42.5 36.15C42.9 36.15 43.25 36 43.55 35.7L48.5 30.75H36.5L41.45 35.7ZM36.5 18H48.5L43.55 13.05C43.25 12.75 42.9 12.6 42.5 12.6C42.1 12.6 41.75 12.75 41.45 13.05L36.5 18ZM6.5 48C4.85 48 3.438 47.413 2.264 46.239C1.088 45.063 0.5 43.65 0.5 42V6C0.5 4.35 1.088 2.938 2.264 1.764C3.438 0.587999 4.85 0 6.5 0H54.5C56.15 0 57.563 0.587999 58.739 1.764C59.913 2.938 60.5 4.35 60.5 6V42C60.5 43.65 59.913 45.063 58.739 46.239C57.563 47.413 56.15 48 54.5 48H6.5Z" fill="#181818"/>
</svg>
