<svg width="12" height="12" viewBox="0 0 12 12" fill="none" xmlns="http://www.w3.org/2000/svg">
<path d="M9.85714 1.00618e-06C10.4095 -0.000533922 10.9407 0.212243 11.34 0.593935C11.7392 0.975628 11.9757 1.49675 12 2.04857V9.85714C12.0005 10.4095 11.7878 10.9407 11.4061 11.34C11.0244 11.7392 10.5032 11.9757 9.95143 12H2.14286C1.5905 12.0005 1.05927 11.7878 0.660013 11.4061C0.260754 11.0244 0.0243044 10.5032 1.00618e-06 9.95143V2.14286C-0.000533922 1.5905 0.212243 1.05927 0.593935 0.660013C0.975628 0.260754 1.49675 0.0243044 2.04857 1.00618e-06H2.14286H9.85714ZM9.85714 0.857144H2.14286C1.81482 0.856553 1.49896 0.981372 1.25994 1.20605C1.02093 1.43073 0.876826 1.73827 0.857144 2.06572V3.85714H1.71429V1.71429H10.2857V10.2857H1.71429V8.14286H0.857144V9.85714C0.856553 10.1852 0.981372 10.501 1.20605 10.7401C1.43073 10.9791 1.73827 11.1232 2.06572 11.1429H9.85714C10.1852 11.1434 10.501 11.0186 10.7401 10.794C10.9791 10.5693 11.1232 10.2617 11.1429 9.93429V2.14286C11.1434 1.81482 11.0186 1.49896 10.794 1.25994C10.5693 1.02093 10.2617 0.876826 9.93429 0.857144H9.85714ZM9.42857 2.57143H2.57143V9.42857H9.42857V2.57143ZM6 3.85714C6.56832 3.85714 7.11337 4.08291 7.51523 4.48477C7.91709 4.88663 8.14286 5.43168 8.14286 6C8.14286 6.56832 7.91709 7.11337 7.51523 7.51523C7.11337 7.91709 6.56832 8.14286 6 8.14286C5.43168 8.14286 4.88663 7.91709 4.48477 7.51523C4.08291 7.11337 3.85714 6.56832 3.85714 6C3.85714 5.43168 4.08291 4.88663 4.48477 4.48477C4.88663 4.08291 5.43168 3.85714 6 3.85714ZM6 4.71429C5.65901 4.71429 5.33198 4.84974 5.09086 5.09086C4.84974 5.33198 4.71429 5.65901 4.71429 6C4.71429 6.34099 4.84974 6.66802 5.09086 6.90914C5.33198 7.15026 5.65901 7.28571 6 7.28571C6.34099 7.28571 6.66802 7.15026 6.90914 6.90914C7.15026 6.66802 7.28571 6.34099 7.28571 6C7.28571 5.65901 7.15026 5.33198 6.90914 5.09086C6.66802 4.84974 6.34099 4.71429 6 4.71429ZM1.71429 4.71429H0.857144V7.28571H1.71429V4.71429Z" fill="black"/>
</svg>
