<svg width="25" height="25" viewBox="0 0 25 25" fill="none" xmlns="http://www.w3.org/2000/svg">
<path d="M16.25 16.25L23 23M10.25 18.5C11.3334 18.5 12.4062 18.2866 13.4071 17.872C14.4081 17.4574 15.3175 16.8497 16.0836 16.0836C16.8497 15.3175 17.4574 14.4081 17.872 13.4071C18.2866 12.4062 18.5 11.3334 18.5 10.25C18.5 9.16659 18.2866 8.0938 17.872 7.09286C17.4574 6.09193 16.8497 5.18245 16.0836 4.41637C15.3175 3.65029 14.4081 3.0426 13.4071 2.62799C12.4062 2.21339 11.3334 2 10.25 2C8.06196 2 5.96354 2.86919 4.41637 4.41637C2.86919 5.96354 2 8.06196 2 10.25C2 12.438 2.86919 14.5365 4.41637 16.0836C5.96354 17.6308 8.06196 18.5 10.25 18.5Z" stroke="url(#paint0_linear_158_1671)" stroke-width="4"/>
<defs>
<linearGradient id="paint0_linear_158_1671" x1="2" y1="12.5" x2="23" y2="12.5" gradientUnits="userSpaceOnUse">
<stop stop-color="#006CE4"/>
<stop offset="1" stop-color="#0797FF"/>
</linearGradient>
</defs>
</svg>
