<svg width="13" height="12" viewBox="0 0 13 12" fill="none" xmlns="http://www.w3.org/2000/svg">
<path d="M9.33333 3.52896e-06C9.55797 -0.000629096 9.77452 0.0838158 9.93943 0.236356C10.1043 0.388896 10.2054 0.598218 10.2222 0.822226V1.56445L12.4444 0.675559V5.99111L10.2222 5.10222V5.77778C10.2229 6.00242 10.1384 6.21897 9.98587 6.38388C9.83333 6.54878 9.62401 6.64982 9.4 6.66667H6.62222C6.53424 7.10013 6.3189 7.49748 6.00378 7.80785C5.68866 8.11823 5.28809 8.3275 4.85334 8.40889C4.76137 8.90275 4.50479 9.35088 4.12543 9.6802C3.74607 10.0095 3.26633 10.2006 2.76445 10.2222H0.888892V12H3.52896e-06V7.55556H0.888892V9.33333H2.66667C2.9527 9.33323 3.23112 9.24115 3.46081 9.07068C3.69049 8.90022 3.85928 8.66041 3.94222 8.38667C3.52753 8.29057 3.14917 8.07738 2.85213 7.77246C2.55509 7.46755 2.35188 7.08373 2.26667 6.66667H0.888892C0.664253 6.6673 0.447705 6.58286 0.282796 6.43032C0.117888 6.27778 0.0168507 6.06845 3.52896e-06 5.84445V0.888892C-0.000629096 0.664253 0.0838158 0.447705 0.236356 0.282796C0.388896 0.117888 0.598218 0.0168507 0.822226 3.52896e-06H0.888892H9.33333ZM4.44445 4.88889C4.09082 4.88889 3.75169 5.02937 3.50164 5.27942C3.25159 5.52946 3.11111 5.8686 3.11111 6.22222C3.11111 6.57585 3.25159 6.91498 3.50164 7.16503C3.75169 7.41508 4.09082 7.55556 4.44445 7.55556C4.79807 7.55556 5.13721 7.41508 5.38726 7.16503C5.6373 6.91498 5.77778 6.57585 5.77778 6.22222C5.77778 5.8686 5.6373 5.52946 5.38726 5.27942C5.13721 5.02937 4.79807 4.88889 4.44445 4.88889ZM9.33333 0.888892H0.888892V5.77778H2.26667C2.36868 5.27543 2.64122 4.82379 3.03811 4.49939C3.435 4.17499 3.93184 3.99777 4.44445 3.99777C4.95705 3.99777 5.45389 4.17499 5.85078 4.49939C6.24768 4.82379 6.52022 5.27543 6.62222 5.77778H9.33333V0.888892ZM11.5556 1.99111L10.2222 2.52445V4.14222L11.5556 4.67556V1.99111ZM2.22223 1.77778C2.3401 1.77778 2.45315 1.82461 2.53649 1.90796C2.61984 1.99131 2.66667 2.10435 2.66667 2.22223C2.66667 2.3401 2.61984 2.45315 2.53649 2.53649C2.45315 2.61984 2.3401 2.66667 2.22223 2.66667C2.10435 2.66667 1.99131 2.61984 1.90796 2.53649C1.82461 2.45315 1.77778 2.3401 1.77778 2.22223C1.77778 2.10435 1.82461 1.99131 1.90796 1.90796C1.99131 1.82461 2.10435 1.77778 2.22223 1.77778Z" fill="black"/>
</svg>
