<svg width="12" height="12" viewBox="0 0 12 12" fill="none" xmlns="http://www.w3.org/2000/svg">
<path d="M0 0.800042V0H12.0006V0.800042H11.2006V8.00042C11.2012 8.20261 11.1252 8.39751 10.9879 8.54593C10.8506 8.69436 10.6622 8.7853 10.4605 8.80046H6.40034V9.66851C6.66724 9.76287 6.89218 9.94855 7.03542 10.1927C7.17866 10.4369 7.23097 10.7239 7.18309 11.0029C7.13522 11.2819 6.99026 11.535 6.77382 11.7175C6.55738 11.8999 6.2834 12 6.00031 12C5.71723 12 5.44325 11.8999 5.22681 11.7175C5.01037 11.535 4.86541 11.2819 4.81753 11.0029C4.76966 10.7239 4.82197 10.4369 4.96521 10.1927C5.10845 9.94855 5.33339 9.76287 5.60029 9.66851V8.80046H1.60008C1.3979 8.80103 1.20299 8.72503 1.05457 8.58773C0.906143 8.45044 0.815205 8.26204 0.800042 8.06042V0.800042H0ZM6.00031 10.4005C5.89422 10.4005 5.79248 10.4427 5.71746 10.5177C5.64244 10.5927 5.60029 10.6945 5.60029 10.8006C5.60029 10.9067 5.64244 11.0084 5.71746 11.0834C5.79248 11.1584 5.89422 11.2006 6.00031 11.2006C6.10641 11.2006 6.20815 11.1584 6.28317 11.0834C6.35819 11.0084 6.40034 10.9067 6.40034 10.8006C6.40034 10.6945 6.35819 10.5927 6.28317 10.5177C6.20815 10.4427 6.10641 10.4005 6.00031 10.4005ZM10.4005 0.800042H1.60008V8.00042H10.4005V0.800042Z" fill="black"/>
</svg>
