<svg width="7" height="13" viewBox="0 0 7 13" fill="none" xmlns="http://www.w3.org/2000/svg">
<path d="M4.899 0.529297V1.3293H3.699V2.1293H4.099C4.30118 2.12873 4.49607 2.20473 4.64449 2.34201C4.7929 2.4793 4.88384 2.66769 4.899 2.8693V3.7293C5.30984 3.72878 5.70514 3.88633 6.003 4.1693C6.30086 4.45226 6.47846 4.83897 6.499 5.2493V10.9293C6.49951 11.3401 6.34197 11.7354 6.059 12.0333C5.77603 12.3312 5.38933 12.5088 4.979 12.5293H1.699C1.28816 12.5298 0.892861 12.3723 0.595 12.0893C0.297139 11.8063 0.119542 11.4196 0.0990003 11.0093V5.3293C0.0984864 4.91845 0.256032 4.52316 0.539 4.2253C0.821968 3.92744 1.20867 3.74984 1.619 3.7293H1.699V2.9293C1.69843 2.72712 1.77443 2.53223 1.91172 2.38381C2.049 2.23539 2.23739 2.14446 2.439 2.1293H2.899V1.3293H0.0990003V0.529297H4.899ZM5.699 8.9293H0.899V10.9293C0.898431 11.1315 0.974431 11.3264 1.11172 11.4748C1.249 11.6232 1.43739 11.7141 1.639 11.7293H4.899C5.10117 11.7299 5.29607 11.6539 5.44449 11.5166C5.5929 11.3793 5.68384 11.1909 5.699 10.9893V10.9293V8.9293ZM5.699 6.5293H0.899V8.1293H5.699V6.5293ZM4.899 4.5293H1.699C1.49682 4.52873 1.30193 4.60473 1.15351 4.74201C1.0051 4.8793 0.914163 5.06769 0.899 5.2693V5.7293H5.699V5.3293C5.699 5.11712 5.61471 4.91364 5.46468 4.76361C5.31466 4.61358 5.11117 4.5293 4.899 4.5293ZM4.099 2.9293H2.499V3.7293H4.099V2.9293Z" fill="black"/>
</svg>
