<svg width="12" height="20" viewBox="0 0 12 20" fill="none" xmlns="http://www.w3.org/2000/svg">
<path d="M9.54545 0H2.27273C1.01818 0 0 1.01818 0 2.27273V17.7273C0 18.9818 1.01818 20 2.27273 20H9.54545C10.8 20 11.8182 18.9818 11.8182 17.7273V2.27273C11.8182 1.01818 10.8 0 9.54545 0ZM5.90909 19.0909C5.15455 19.0909 4.54545 18.4818 4.54545 17.7273C4.54545 16.9727 5.15455 16.3636 5.90909 16.3636C6.66364 16.3636 7.27273 16.9727 7.27273 17.7273C7.27273 18.4818 6.66364 19.0909 5.90909 19.0909ZM10 15.4545H1.81818V2.72727H10V15.4545Z" fill="black"/>
</svg>
