<svg width="23" height="36" viewBox="0 0 23 36" fill="none" xmlns="http://www.w3.org/2000/svg">
<path d="M11.25 30.5C11.8467 30.5 12.419 30.2629 12.841 29.841C13.2629 29.419 13.5 28.8467 13.5 28.25C13.5 27.6533 13.2629 27.081 12.841 26.659C12.419 26.2371 11.8467 26 11.25 26C10.6533 26 10.081 26.2371 9.65901 26.659C9.23705 27.081 9 27.6533 9 28.25C9 28.8467 9.23705 29.419 9.65901 29.841C10.081 30.2629 10.6533 30.5 11.25 30.5Z" fill="white"/>
<path d="M18 2.25C18.5967 2.25 19.169 2.48705 19.591 2.90901C20.0129 3.33097 20.25 3.90326 20.25 4.5V31.5C20.25 32.0967 20.0129 32.669 19.591 33.091C19.169 33.5129 18.5967 33.75 18 33.75H4.5C3.90326 33.75 3.33097 33.5129 2.90901 33.091C2.48705 32.669 2.25 32.0967 2.25 31.5V4.5C2.25 3.90326 2.48705 3.33097 2.90901 2.90901C3.33097 2.48705 3.90326 2.25 4.5 2.25H18ZM4.5 0C3.30653 0 2.16193 0.474106 1.31802 1.31802C0.474106 2.16193 0 3.30653 0 4.5V31.5C0 32.6935 0.474106 33.8381 1.31802 34.682C2.16193 35.5259 3.30653 36 4.5 36H18C19.1935 36 20.3381 35.5259 21.182 34.682C22.0259 33.8381 22.5 32.6935 22.5 31.5V4.5C22.5 3.30653 22.0259 2.16193 21.182 1.31802C20.3381 0.474106 19.1935 0 18 0L4.5 0Z" fill="white"/>
</svg>
