<svg width="13" height="12" viewBox="0 0 13 12" fill="none" xmlns="http://www.w3.org/2000/svg">
<path d="M6.74316 0C7.5311 -1.17411e-08 8.31131 0.155195 9.03926 0.456723C9.76722 0.758251 10.4287 1.20021 10.9858 1.75736C11.543 2.31451 11.9849 2.97595 12.2864 3.7039C12.588 4.43185 12.7432 5.21207 12.7432 6C12.7432 6.78793 12.588 7.56815 12.2864 8.2961C11.9849 9.02405 11.543 9.68549 10.9858 10.2426C10.4287 10.7998 9.76722 11.2417 9.03926 11.5433C8.31131 11.8448 7.5311 12 6.74316 12C5.15187 12 3.62574 11.3679 2.50052 10.2426C1.37531 9.11742 0.743164 7.5913 0.743164 6C0.743164 4.4087 1.37531 2.88258 2.50052 1.75736C3.62574 0.632141 5.15187 2.37122e-08 6.74316 0ZM6.74316 0.8C5.36404 0.8 4.0414 1.34786 3.06621 2.32304C2.09102 3.29823 1.54316 4.62087 1.54316 6C1.54316 7.37913 2.09102 8.70177 3.06621 9.67696C4.0414 10.6521 5.36404 11.2 6.74316 11.2C8.12229 11.2 9.44493 10.6521 10.4201 9.67696C11.3953 8.70177 11.9432 7.37913 11.9432 6C11.9432 4.62087 11.3953 3.29823 10.4201 2.32304C9.44493 1.34786 8.12229 0.8 6.74316 0.8ZM4.78316 6.4C4.86155 6.78436 5.05124 7.13718 5.32861 7.41455C5.60599 7.69193 5.95881 7.88161 6.34316 7.96V8.772C5.74468 8.68576 5.1902 8.40809 4.76264 7.98053C4.33507 7.55296 4.05741 6.99848 3.97116 6.4H4.78316ZM8.70316 6.4H9.51516C9.42892 6.99848 9.15125 7.55296 8.72369 7.98053C8.29613 8.40809 7.74165 8.68576 7.14316 8.772V7.96C7.52752 7.88161 7.88034 7.69193 8.15772 7.41455C8.43509 7.13718 8.62478 6.78436 8.70316 6.4ZM6.74316 4.8C7.06142 4.8 7.36665 4.92643 7.59169 5.15147C7.81674 5.37652 7.94316 5.68174 7.94316 6C7.94316 6.31826 7.81674 6.62348 7.59169 6.84853C7.36665 7.07357 7.06142 7.2 6.74316 7.2C6.4249 7.2 6.11968 7.07357 5.89464 6.84853C5.66959 6.62348 5.54316 6.31826 5.54316 6C5.54316 5.68174 5.66959 5.37652 5.89464 5.15147C6.11968 4.92643 6.4249 4.8 6.74316 4.8ZM6.74316 5.6C6.63708 5.6 6.53534 5.64214 6.46032 5.71716C6.38531 5.79217 6.34316 5.89391 6.34316 6C6.34316 6.10609 6.38531 6.20783 6.46032 6.28284C6.53534 6.35786 6.63708 6.4 6.74316 6.4C6.84925 6.4 6.95099 6.35786 7.02601 6.28284C7.10102 6.20783 7.14316 6.10609 7.14316 6C7.14316 5.89391 7.10102 5.79217 7.02601 5.71716C6.95099 5.64214 6.84925 5.6 6.74316 5.6ZM7.14316 3.228C7.74165 3.31424 8.29613 3.59191 8.72369 4.01947C9.15125 4.44704 9.42892 5.00152 9.51516 5.6H8.70316C8.62478 5.21564 8.43509 4.86282 8.15772 4.58545C7.88034 4.30807 7.52752 4.11839 7.14316 4.04V3.228ZM6.34316 3.228V4.04C5.95881 4.11839 5.60599 4.30807 5.32861 4.58545C5.05124 4.86282 4.86155 5.21564 4.78316 5.6H3.97116C4.05741 5.00152 4.33507 4.44704 4.76264 4.01947C5.1902 3.59191 5.74468 3.31424 6.34316 3.228ZM9.54316 2.8C9.64925 2.8 9.75099 2.84214 9.82601 2.91716C9.90102 2.99217 9.94316 3.09391 9.94316 3.2C9.94316 3.30609 9.90102 3.40783 9.82601 3.48284C9.75099 3.55786 9.64925 3.6 9.54316 3.6C9.43708 3.6 9.33534 3.55786 9.26032 3.48284C9.18531 3.40783 9.14316 3.30609 9.14316 3.2C9.14316 3.09391 9.18531 2.99217 9.26032 2.91716C9.33534 2.84214 9.43708 2.8 9.54316 2.8Z" fill="black"/>
</svg>
