<svg width="35" height="36" viewBox="0 0 35 36" fill="none" xmlns="http://www.w3.org/2000/svg">
<path d="M18 32.1839V35.9999H21.816L31.122 26.6939L27.306 22.8779L18 32.1839Z" fill="white"/>
<path d="M28.8 10.8L18 0H3.6C1.62 0 0.0180004 1.62 0.0180004 3.6L0 32.4C0 34.38 1.602 36 3.582 36H14.4V30.69L28.8 16.29V10.8ZM16.2 12.6V2.7L26.1 12.6H16.2Z" fill="white"/>
<path d="M33.6785 21.5999L32.4005 20.3219C31.6985 19.6199 30.5645 19.6199 29.8625 20.3219L28.5845 21.5999L32.4005 25.4159L33.6785 24.1379C34.3805 23.4359 34.3805 22.3019 33.6785 21.5999Z" fill="white"/>
</svg>
