<svg width="11" height="12" viewBox="0 0 11 12" fill="none" xmlns="http://www.w3.org/2000/svg">
<path d="M9.18899 10.4153C9.63722 10.4153 10.0719 10.5738 10.3978 10.8681C10.5337 10.9994 10.7193 11.0718 10.914 11.0944H11V11.9999H10.8959C10.4867 11.9797 10.0969 11.8199 9.79115 11.5472C9.62535 11.3998 9.41081 11.3192 9.18899 11.3208C8.96261 11.3208 8.74529 11.3978 8.58682 11.5472C8.25361 11.8422 7.823 12.0035 7.37797 11.9999C6.93293 12.0035 6.50233 11.8422 6.16911 11.5472C6.00331 11.3998 5.78876 11.3192 5.56695 11.3208C5.34057 11.3208 5.12325 11.3978 4.96478 11.5472C4.63157 11.8422 4.20096 12.0035 3.75592 11.9999C3.31089 12.0035 2.88028 11.8422 2.54707 11.5472C2.38127 11.3998 2.16672 11.3192 1.9449 11.3208C1.71852 11.3208 1.5012 11.3978 1.34274 11.5472C1.03703 11.8199 0.647166 11.9797 0.238014 11.9999H0.133881V11.0944H0.219904C0.412063 11.0774 0.593351 10.9979 0.736045 10.8681C1.06926 10.573 1.49987 10.4118 1.9449 10.4153C2.39313 10.4153 2.82778 10.5738 3.15376 10.8681C3.31222 11.0175 3.52955 11.0944 3.75592 11.0944C3.9823 11.0944 4.19962 11.0175 4.35809 10.8681C4.69108 10.5727 5.12183 10.4113 5.56695 10.4153C6.01517 10.4153 6.44982 10.5738 6.7758 10.8681C6.93427 11.0175 7.15159 11.0944 7.37797 11.0944C7.60434 11.0944 7.82167 11.0175 7.98013 10.8681C8.31335 10.573 8.74395 10.4118 9.18899 10.4153ZM9.18899 8.15152C9.63722 8.15152 10.0719 8.30999 10.3978 8.60428C10.5337 8.73558 10.7193 8.80802 10.914 8.83066H11V9.73617H10.8959C10.4867 9.71589 10.0969 9.5561 9.79115 9.28341C9.62535 9.13605 9.41081 9.05539 9.18899 9.05703C8.96261 9.05703 8.74529 9.134 8.58682 9.28341C8.25361 9.57843 7.823 9.73971 7.37797 9.73617C6.93293 9.73971 6.50233 9.57843 6.16911 9.28341C6.00331 9.13605 5.78876 9.05539 5.56695 9.05703C5.34057 9.05703 5.12325 9.134 4.96478 9.28341C4.63157 9.57843 4.20096 9.73971 3.75592 9.73617C3.31089 9.73971 2.88028 9.57843 2.54707 9.28341C2.38127 9.13605 2.16672 9.05539 1.9449 9.05703C1.71852 9.05703 1.5012 9.134 1.34274 9.28341C1.03703 9.5561 0.647166 9.71589 0.238014 9.73617H0.133881V8.83066H0.219904C0.412063 8.81361 0.593351 8.7341 0.736045 8.60428C1.06926 8.30925 1.49987 8.14798 1.9449 8.15152C2.39313 8.15152 2.82778 8.30999 3.15376 8.60428C3.31222 8.75369 3.52955 8.83066 3.75592 8.83066C3.9823 8.83066 4.19962 8.75369 4.35809 8.60428C4.69108 8.30888 5.12183 8.14755 5.56695 8.15152C6.01517 8.15152 6.44982 8.30999 6.7758 8.60428C6.93427 8.75369 7.15159 8.83066 7.37797 8.83066C7.60434 8.83066 7.82167 8.75369 7.98013 8.60428C8.31335 8.30925 8.74395 8.14798 9.18899 8.15152ZM7.37797 0.00192517C7.843 0.00134354 8.29043 0.179668 8.62757 0.499956C8.96472 0.820244 9.16574 1.25795 9.18899 1.7224V2.71846H11V3.62397H9.18899V5.88775C9.59951 5.88549 9.99862 6.02279 10.3209 6.27712L10.3978 6.34503C10.5337 6.46727 10.7193 6.54424 10.914 6.56235L11 6.56688V7.47239H10.8959C10.4867 7.45211 10.0969 7.29233 9.79115 7.01963C9.62535 6.87227 9.41081 6.79162 9.18899 6.79326C8.96261 6.79326 8.74529 6.87022 8.58682 7.01963C8.25361 7.31466 7.823 7.47593 7.37797 7.47239C6.93293 7.47593 6.50233 7.31466 6.16911 7.01963C6.00331 6.87227 5.78876 6.79162 5.56695 6.79326C5.34057 6.79326 5.12325 6.87022 4.96478 7.01963C4.63157 7.31466 4.20096 7.47593 3.75592 7.47239C3.31089 7.47593 2.88028 7.31466 2.54707 7.01963C2.38127 6.87227 2.16672 6.79162 1.9449 6.79326C1.71852 6.79326 1.5012 6.87022 1.34274 7.01963C1.03703 7.29233 0.647166 7.45211 0.238014 7.47239H0.133881V6.56688H0.219904C0.412063 6.54984 0.593351 6.47032 0.736045 6.3405C1.06926 6.04548 1.49987 5.8842 1.9449 5.88775C2.39313 5.88775 2.82778 6.04621 3.15376 6.3405C3.31222 6.48991 3.52955 6.56688 3.75592 6.56688C3.9823 6.56688 4.19962 6.48991 4.35809 6.3405C4.66379 6.06781 5.05366 5.90803 5.46281 5.88775H5.56695V3.62397H0.133881V2.71846H5.56695V1.81295C5.5714 1.69403 5.5524 1.57541 5.51101 1.46384C5.46963 1.35227 5.40667 1.24995 5.32574 1.16271C5.16229 0.986524 4.93555 0.882485 4.69539 0.873479C4.57648 0.86902 4.45785 0.888026 4.34628 0.929413C4.23471 0.970799 4.13239 1.03376 4.04515 1.11469C3.86897 1.27813 3.76493 1.50488 3.75592 1.74503V1.81295H2.85041C2.85002 1.44493 2.96176 1.08552 3.17075 0.782594C3.37974 0.47967 3.67606 0.247605 4.02024 0.117307C4.36442 -0.0129914 4.74014 -0.0353379 5.09734 0.0532432C5.45454 0.141824 5.77628 0.337129 6.0197 0.613145C6.18945 0.420335 6.39847 0.266048 6.63273 0.16063C6.86699 0.0552129 7.12108 0.00110163 7.37797 0.00192517ZM6.47246 6.12318L6.68072 6.26353L6.7758 6.34503C6.93427 6.48538 7.15159 6.56688 7.37797 6.56688C7.57287 6.5695 7.76341 6.50916 7.92127 6.39483L7.98013 6.34503C8.07068 6.25901 8.17482 6.18656 8.28348 6.12318V3.62397H6.47246V6.12318ZM7.37797 0.907436C7.14913 0.906792 6.92853 0.992815 6.76054 1.14821C6.59255 1.3036 6.48962 1.51684 6.47246 1.74503V2.71846H8.28348V1.81295C8.28348 1.57279 8.18808 1.34247 8.01826 1.17265C7.84844 1.00284 7.61812 0.907436 7.37797 0.907436Z" fill="black"/>
</svg>
