<svg width="24" height="24" viewBox="0 0 24 24" fill="none" xmlns="http://www.w3.org/2000/svg">
<path d="M18.6667 21.3333H21.3333V2.66667H18.6667V21.3333ZM5.33333 14.6667C5.71111 14.6667 6.02778 14.5389 6.28333 14.2833C6.53889 14.0278 6.66667 13.7111 6.66667 13.3333C6.66667 12.9556 6.53889 12.6389 6.28333 12.3833C6.02778 12.1278 5.71111 12 5.33333 12C4.95556 12 4.63889 12.1278 4.38333 12.3833C4.12778 12.6389 4 12.9556 4 13.3333C4 13.7111 4.12778 14.0278 4.38333 14.2833C4.63889 14.5389 4.95556 14.6667 5.33333 14.6667ZM5.33333 18.6667C5.71111 18.6667 6.02778 18.5389 6.28333 18.2833C6.53889 18.0278 6.66667 17.7111 6.66667 17.3333C6.66667 16.9556 6.53889 16.6389 6.28333 16.3833C6.02778 16.1278 5.71111 16 5.33333 16C4.95556 16 4.63889 16.1278 4.38333 16.3833C4.12778 16.6389 4 16.9556 4 17.3333C4 17.7111 4.12778 18.0278 4.38333 18.2833C4.63889 18.5389 4.95556 18.6667 5.33333 18.6667ZM5.33333 10.6667H13.3333C13.7111 10.6667 14.0278 10.5389 14.2833 10.2833C14.5389 10.0278 14.6667 9.71111 14.6667 9.33333V6.66667C14.6667 6.28889 14.5389 5.97222 14.2833 5.71667C14.0278 5.46111 13.7111 5.33333 13.3333 5.33333H5.33333C4.95556 5.33333 4.63889 5.46111 4.38333 5.71667C4.12778 5.97222 4 6.28889 4 6.66667V9.33333C4 9.71111 4.12778 10.0278 4.38333 10.2833C4.63889 10.5389 4.95556 10.6667 5.33333 10.6667ZM9.33333 14.6667C9.71111 14.6667 10.0278 14.5389 10.2833 14.2833C10.5389 14.0278 10.6667 13.7111 10.6667 13.3333C10.6667 12.9556 10.5389 12.6389 10.2833 12.3833C10.0278 12.1278 9.71111 12 9.33333 12C8.95556 12 8.63889 12.1278 8.38333 12.3833C8.12778 12.6389 8 12.9556 8 13.3333C8 13.7111 8.12778 14.0278 8.38333 14.2833C8.63889 14.5389 8.95556 14.6667 9.33333 14.6667ZM9.33333 18.6667C9.71111 18.6667 10.0278 18.5389 10.2833 18.2833C10.5389 18.0278 10.6667 17.7111 10.6667 17.3333C10.6667 16.9556 10.5389 16.6389 10.2833 16.3833C10.0278 16.1278 9.71111 16 9.33333 16C8.95556 16 8.63889 16.1278 8.38333 16.3833C8.12778 16.6389 8 16.9556 8 17.3333C8 17.7111 8.12778 18.0278 8.38333 18.2833C8.63889 18.5389 8.95556 18.6667 9.33333 18.6667ZM13.3333 14.6667C13.7111 14.6667 14.0278 14.5389 14.2833 14.2833C14.5389 14.0278 14.6667 13.7111 14.6667 13.3333C14.6667 12.9556 14.5389 12.6389 14.2833 12.3833C14.0278 12.1278 13.7111 12 13.3333 12C12.9556 12 12.6389 12.1278 12.3833 12.3833C12.1278 12.6389 12 12.9556 12 13.3333C12 13.7111 12.1278 14.0278 12.3833 14.2833C12.6389 14.5389 12.9556 14.6667 13.3333 14.6667ZM13.3333 18.6667C13.7111 18.6667 14.0278 18.5389 14.2833 18.2833C14.5389 18.0278 14.6667 17.7111 14.6667 17.3333C14.6667 16.9556 14.5389 16.6389 14.2833 16.3833C14.0278 16.1278 13.7111 16 13.3333 16C12.9556 16 12.6389 16.1278 12.3833 16.3833C12.1278 16.6389 12 16.9556 12 17.3333C12 17.7111 12.1278 18.0278 12.3833 18.2833C12.6389 18.5389 12.9556 18.6667 13.3333 18.6667ZM18.6667 24C18.1556 24 17.7056 23.8778 17.3167 23.6333C16.9278 23.3889 16.6111 23.0667 16.3667 22.6667H2.66667C1.93333 22.6667 1.30556 22.4056 0.783333 21.8833C0.261111 21.3611 0 20.7333 0 20V4C0 3.26667 0.261111 2.63889 0.783333 2.11667C1.30556 1.59444 1.93333 1.33333 2.66667 1.33333H16.3667C16.6111 0.933333 16.9278 0.611111 17.3167 0.366667C17.7056 0.122222 18.1556 0 18.6667 0H21.3333C22.0667 0 22.6944 0.261111 23.2167 0.783333C23.7389 1.30556 24 1.93333 24 2.66667V21.3333C24 22.0667 23.7389 22.6944 23.2167 23.2167C22.6944 23.7389 22.0667 24 21.3333 24H18.6667Z" fill="url(#paint0_linear_258_3380)"/>
<defs>
<linearGradient id="paint0_linear_258_3380" x1="0" y1="12" x2="24" y2="12" gradientUnits="userSpaceOnUse">
<stop stop-color="#006CE4"/>
<stop offset="1" stop-color="#0797FF"/>
</linearGradient>
</defs>
</svg>
