<svg width="18" height="20" viewBox="0 0 18 20" fill="none" xmlns="http://www.w3.org/2000/svg">
<path fill-rule="evenodd" clip-rule="evenodd" d="M12.3725 0.0167968C12.3736 0.321874 12.4627 4.73084 17.0896 5.00584C17.0896 6.27732 17.0912 7.19919 17.0912 8.41247C16.7408 8.43278 14.0451 8.23708 12.3674 6.7406L12.3623 13.3726C12.426 17.9757 9.0385 20.7769 4.61078 19.8093C-3.02435 17.5253 -0.48725 6.20115 7.17913 7.41326C7.17913 11.0691 7.18108 7.41208 7.18108 11.0691C4.01391 10.6031 2.95453 13.2378 3.79633 15.1242C4.56195 16.8417 7.71546 17.214 8.81545 14.791C8.94006 14.3167 9.00217 13.7761 9.00217 13.1691V0L12.3725 0.0167968Z" fill="white"/>
</svg>
