<svg width="21" height="24" viewBox="0 0 21 24" fill="none" xmlns="http://www.w3.org/2000/svg">
<path fill-rule="evenodd" clip-rule="evenodd" d="M14.847 0.0201562C14.8484 0.386249 14.9552 5.67701 20.5076 6.00701C20.5076 7.53279 20.5094 8.63903 20.5094 10.095C20.089 10.1193 16.8541 9.8845 14.8409 8.08872L14.8348 16.0471C14.9112 21.5709 10.8462 24.9323 5.53293 23.7712C-3.62922 21.0304 -0.5847 7.44138 8.61495 8.89591C8.61495 13.2829 8.6173 8.8945 8.6173 13.2829C4.81669 12.7237 3.54544 15.8854 4.55559 18.149C5.47434 20.2101 9.25855 20.6568 10.5785 17.7492C10.7281 17.1801 10.8026 16.5313 10.8026 15.8029V0L14.847 0.0201562Z" fill="url(#paint0_linear_664_3234)"/>
<defs>
<linearGradient id="paint0_linear_664_3234" x1="0" y1="12" x2="20.5094" y2="12" gradientUnits="userSpaceOnUse">
<stop stop-color="#006CE4"/>
<stop offset="1" stop-color="#0797FF"/>
</linearGradient>
</defs>
</svg>
