<svg width="13" height="12" viewBox="0 0 13 12" fill="none" xmlns="http://www.w3.org/2000/svg">
<path d="M8.63323 0C9.07993 0 9.50833 0.177451 9.82419 0.493316C10.1401 0.809181 10.3175 1.23759 10.3175 1.68429C10.3175 2.05714 10.1932 2.41286 9.9618 2.71286L9.94894 2.73V3.42857C10.5013 3.42804 11.0325 3.64081 11.4318 4.02251C11.831 4.4042 12.0675 4.92532 12.0918 5.47714V10.7143C12.0924 10.9309 12.011 11.1397 11.8639 11.2987C11.7168 11.4578 11.5149 11.5552 11.2989 11.5714H10.8061V12H9.94894V11.5714H3.0918V12H2.23465V11.5714H1.80608C1.58947 11.572 1.38065 11.4906 1.22163 11.3435C1.06261 11.1964 0.965185 10.9946 0.94894 10.7786V6.42857H0.0917969V5.57143H0.94894C0.948405 5.01907 1.16118 4.48784 1.54287 4.08858C1.92457 3.68932 2.44569 3.45287 2.99751 3.42857H3.0918V2.73429C2.85396 2.43599 2.72445 2.06579 2.72445 1.68429C2.72445 1.30278 2.85396 0.932581 3.0918 0.634286L3.1518 0.561429L3.21608 0.492857C3.50933 0.200714 3.8999 0.0267902 4.31323 0.00428571L4.40751 0H8.63323ZM9.94894 4.28571H3.0918C2.76376 4.28512 2.4479 4.40994 2.20888 4.63462C1.96986 4.8593 1.82576 5.16684 1.80608 5.49429V10.7143H11.2347V5.57143C11.2352 5.24339 11.1104 4.92753 10.8857 4.68851C10.6611 4.4495 10.3535 4.3054 10.0261 4.28571H9.94894ZM3.0918 9C3.20546 9 3.31447 9.04515 3.39484 9.12553C3.47522 9.2059 3.52037 9.31491 3.52037 9.42857C3.52037 9.54224 3.47522 9.65125 3.39484 9.73162C3.31447 9.81199 3.20546 9.85714 3.0918 9.85714C2.97813 9.85714 2.86912 9.81199 2.78875 9.73162C2.70838 9.65125 2.66323 9.54224 2.66323 9.42857C2.66323 9.31491 2.70838 9.2059 2.78875 9.12553C2.86912 9.04515 2.97813 9 3.0918 9ZM8.63323 0.857143H4.40751C4.24362 0.857093 4.08341 0.90573 3.94721 0.996882C3.81101 1.08803 3.70496 1.21759 3.64251 1.36912C3.58007 1.52064 3.56404 1.6873 3.59647 1.84795C3.6289 2.0086 3.70832 2.15599 3.82465 2.27143C3.89013 2.33766 3.93226 2.42341 3.94465 2.51571L3.94894 2.57143V3.42857H9.0918V2.57143C9.09144 2.49963 9.10912 2.4289 9.14323 2.36571L9.17323 2.32286L9.20751 2.28L9.25894 2.22429C9.35823 2.10848 9.42356 1.96748 9.44771 1.81686C9.47187 1.66624 9.4539 1.51188 9.3958 1.37084C9.3377 1.2298 9.24172 1.10757 9.11849 1.01767C8.99525 0.927765 8.84956 0.873693 8.69751 0.861429L8.63323 0.857143Z" fill="black"/>
</svg>
