<svg width="14" height="12" viewBox="0 0 14 12" fill="none" xmlns="http://www.w3.org/2000/svg">
<path d="M3.84615 12V11.0769H4.76922V10.1538H2.46153C1.86669 10.1544 1.2946 9.92528 0.864623 9.51423C0.434651 9.10317 0.180013 8.54196 0.15384 7.94769V2.30769C0.153264 1.71285 0.382408 1.14076 0.793462 0.710784C1.20451 0.280812 1.76572 0.026174 2.35999 1.08358e-06H11.6923C12.2871 -0.000574993 12.8592 0.228569 13.2892 0.639623C13.7192 1.05068 13.9738 1.61189 14 2.20615V7.84615C14.0006 8.441 13.7714 9.01309 13.3604 9.44306C12.9493 9.87304 12.3881 10.1277 11.7938 10.1538H9.38461V11.0769H10.3077V12H3.84615ZM8.46153 10.1538H5.6923V11.0769H8.46153V10.1538ZM11.6923 0.923078H2.46153C2.10826 0.922442 1.76811 1.05686 1.5107 1.29882C1.2533 1.54078 1.09811 1.87198 1.07692 2.22462V7.84615C1.07628 8.19943 1.2107 8.53958 1.45266 8.79699C1.69462 9.05439 2.02582 9.20957 2.37846 9.23077H11.6923C12.0456 9.23141 12.3857 9.09699 12.6431 8.85503C12.9005 8.61307 13.0557 8.28187 13.0769 7.92923V2.30769C13.0776 1.95442 12.9431 1.61427 12.7012 1.35686C12.4592 1.09946 12.128 0.944274 11.7754 0.923078H11.6923Z" fill="black"/>
</svg>
