<svg width="24" height="24" viewBox="0 0 24 24" fill="none" xmlns="http://www.w3.org/2000/svg">
<g clip-path="url(#clip0_258_3345)">
<path d="M24 3V21C24 21.7956 23.6839 22.5587 23.1213 23.1213C22.5587 23.6839 21.7956 24 21 24H3C2.20435 24 1.44129 23.6839 0.87868 23.1213C0.316071 22.5587 0 21.7956 0 21V3C0 2.20435 0.316071 1.44129 0.87868 0.87868C1.44129 0.316071 2.20435 0 3 0L21 0C21.7956 0 22.5587 0.316071 23.1213 0.87868C23.6839 1.44129 24 2.20435 24 3Z" fill="url(#paint0_linear_258_3345)"/>
<path d="M13.995 5.99245C13.3533 6.33645 12.8401 6.87873 12.5319 7.53835C12.2237 8.19797 12.1371 8.93956 12.285 9.65245C10.9683 9.59442 9.67934 9.25516 8.5047 8.6575C7.33007 8.05983 6.29701 7.21761 5.47498 6.18745C5.25131 6.54437 5.10061 6.94209 5.03158 7.35761C4.96255 7.77313 4.97656 8.19822 5.0728 8.60829C5.16904 9.01836 5.34561 9.40529 5.59229 9.74672C5.83897 10.0881 6.15087 10.3773 6.50998 10.5974C5.99248 10.5974 5.47498 10.4999 5.00998 10.2674C5.02816 11.0208 5.29573 11.7468 5.77075 12.3317C6.24578 12.9167 6.90142 13.3275 7.63498 13.4999C7.14547 13.6327 6.63156 13.6481 6.13498 13.5449C6.36205 14.2068 6.78338 14.7849 7.34397 15.2036C7.90456 15.6224 8.57838 15.8625 9.27748 15.8924C8.59826 16.4533 7.80811 16.8642 6.9589 17.0981C6.10968 17.3321 5.22059 17.3838 4.34998 17.2499C5.79964 18.2181 7.49153 18.7607 9.23384 18.8163C10.9762 18.8719 12.6992 18.4383 14.2077 17.5646C15.7161 16.6909 16.9496 15.4121 17.7684 13.8732C18.5871 12.3342 18.9584 10.5966 18.84 8.85745C19.4992 8.39952 20.056 7.80953 20.475 7.12495C19.8836 7.41016 19.2507 7.60001 18.6 7.68745C19.304 7.25725 19.8348 6.59373 20.1 5.81245C19.4475 6.18745 18.7425 6.46495 17.9925 6.60745C17.4823 6.08401 16.8161 5.74032 16.0938 5.62806C15.3716 5.5158 14.6324 5.64104 13.9875 5.98495L13.995 5.99245Z" fill="white"/>
</g>
<defs>
<linearGradient id="paint0_linear_258_3345" x1="0" y1="12" x2="24" y2="12" gradientUnits="userSpaceOnUse">
<stop stop-color="#006CE4"/>
<stop offset="1" stop-color="#0797FF"/>
</linearGradient>
<clipPath id="clip0_258_3345">
<rect width="24" height="24" rx="8" fill="white"/>
</clipPath>
</defs>
</svg>
