<svg width="29" height="29" viewBox="0 0 29 29" fill="none" xmlns="http://www.w3.org/2000/svg">
<path d="M14.3699 0.0293052C15.0979 0.0275888 15.8016 0.290593 16.3499 0.769305L16.4899 0.909305L27.4899 11.9093C28.0295 12.4472 28.3443 13.1702 28.3703 13.9316C28.3963 14.6931 28.1316 15.4359 27.6299 16.0093L27.4899 16.1493L16.3199 27.3293C15.7821 27.8689 15.0591 28.1836 14.2976 28.2096C13.5362 28.2356 12.7934 27.971 12.2199 27.4693L12.0799 27.3293L1.07995 16.3293C0.561377 15.8146 0.248469 15.1283 0.199946 14.3993L0.189946 14.1993V3.02931C0.188567 2.26388 0.479812 1.52688 1.00406 0.969171C1.52831 0.411461 2.2459 0.0752294 3.00995 0.0293052H14.3599H14.3699ZM14.3699 2.02931H3.19995C2.95427 2.02753 2.71653 2.11626 2.5321 2.27857C2.34766 2.44087 2.22942 2.6654 2.19995 2.90931V14.1993C2.19776 14.4191 2.26805 14.6335 2.39995 14.8093L2.49995 14.9093L13.4999 25.9093C13.6719 26.0784 13.8993 26.1796 14.14 26.1943C14.3807 26.209 14.6187 26.1362 14.8099 25.9893L14.9099 25.9093L26.0799 14.7293C26.2517 14.5567 26.3546 14.3274 26.3693 14.0844C26.384 13.8414 26.3096 13.6014 26.1599 13.4093L26.0799 13.3093L15.0799 2.30931C14.9228 2.15456 14.7189 2.05612 14.4999 2.02931H14.3699ZM7.19995 4.02931C7.9956 4.02931 8.75866 4.34538 9.32127 4.90799C9.88388 5.47059 10.1999 6.23366 10.1999 7.02931C10.1999 7.82495 9.88388 8.58802 9.32127 9.15063C8.75866 9.71323 7.9956 10.0293 7.19995 10.0293C6.4043 10.0293 5.64124 9.71323 5.07863 9.15063C4.51602 8.58802 4.19995 7.82495 4.19995 7.02931C4.19995 6.23366 4.51602 5.47059 5.07863 4.90799C5.64124 4.34538 6.4043 4.02931 7.19995 4.02931ZM7.19995 6.02931C6.93473 6.02931 6.68038 6.13466 6.49284 6.3222C6.3053 6.50974 6.19995 6.76409 6.19995 7.02931C6.19995 7.29452 6.3053 7.54888 6.49284 7.73641C6.68038 7.92395 6.93473 8.02931 7.19995 8.02931C7.46516 8.02931 7.71952 7.92395 7.90705 7.73641C8.09459 7.54888 8.19995 7.29452 8.19995 7.02931C8.19995 6.76409 8.09459 6.50974 7.90705 6.3222C7.71952 6.13466 7.46516 6.02931 7.19995 6.02931Z" fill="black"/>
</svg>
