<svg width="149" height="48" viewBox="0 0 149 48" fill="none" xmlns="http://www.w3.org/2000/svg">
<mask id="mask0_46_249" style="mask-type:luminance" maskUnits="userSpaceOnUse" x="0" y="5" width="148" height="38">
<path d="M147.783 5.23755H0V42.6098H147.783V5.23755Z" fill="white"/>
</mask>
<g mask="url(#mask0_46_249)">
<path d="M29.678 42.6099H7.67789C3.44521 42.6099 0 39.1647 0 34.9155V12.9155C0 8.68276 3.44521 5.23755 7.67789 5.23755H29.678C33.9271 5.23755 37.3559 8.68276 37.3559 12.9155V34.9155C37.3723 39.1647 33.9271 42.6099 29.678 42.6099Z" fill="#0E214B"/>
<path fill-rule="evenodd" clip-rule="evenodd" d="M115.952 16.8375C118.364 17.1656 119.988 18.9538 119.66 22.4811C118.856 31.1432 111.342 40.0024 100.219 39.7563L99.8745 39.7399L99.9072 39.6742C110.801 39.7071 117.625 30.5527 118.364 22.4318C118.659 19.2491 117.199 17.625 115.066 17.3296C111.916 16.8867 108.11 18.8062 105.813 22.0544L105.731 22.1693L105.698 22.1201C108.127 18.4452 112.408 16.3453 115.952 16.8375ZM138.313 16.7226C145.696 17.1492 147.828 22.5466 147.779 25.4997C147.648 33.4237 141.48 38.9852 130.93 39.7235L130.602 39.7399L130.619 39.6907C140.446 38.936 146.5 32.5869 146.631 24.7287C146.68 22.0381 144.843 17.428 138.461 16.8046L138.264 16.7882L138.313 16.7226ZM99.3003 8.126C100.399 9.56971 99.0378 12.5064 98.2667 14.4751L98.2339 14.557L92.1473 30.3722C91.7372 31.4222 91.2615 32.6034 91.1466 33.883C90.8841 36.8525 93.4927 39.4117 98.6441 39.6742L98.8081 39.6907L98.7917 39.7399C92.8036 39.5595 89.9325 36.6064 90.2115 33.3416C90.3263 32.0619 90.72 31.0285 91.0973 30.0441L91.1466 29.9128L97.2004 14.2126C97.2659 14.0156 97.3316 13.8352 97.4136 13.6383L97.4792 13.4415C97.512 13.343 97.5448 13.2609 97.5941 13.1626L97.6597 12.9821C98.3159 11.2431 98.8573 9.63533 97.9549 8.55255L97.9058 8.50333V8.42131L99.3003 8.126ZM137.231 16.657L137.213 16.7062C128.026 17.4444 121.334 23.8591 121.186 31.6683C121.136 34.3588 123.023 39.0673 129.372 39.6087L129.569 39.6251L129.553 39.6742C122.153 39.2477 120.021 33.801 120.07 30.8479C120.201 22.8912 126.944 17.2968 137.231 16.657ZM114.148 17.9039C116.1 18.1827 117.346 19.6101 117.084 22.4154C116.379 29.9621 109.652 39.3462 100.235 39.5923H99.9565L99.9729 39.543C108.569 39.018 115.197 29.3878 115.854 22.3826C116.083 19.9217 114.951 18.642 113.278 18.4124C110.85 18.0843 107.864 19.6592 105.961 22.235L105.879 22.3333L105.846 22.2842C107.913 19.2491 111.342 17.5101 114.148 17.9039ZM138.247 16.8539C143.923 17.3132 145.663 21.3982 145.63 23.8919C145.499 31.537 139.675 38.7884 130.964 39.5759L130.701 39.5923L130.717 39.543C138.576 38.7391 144.416 30.7003 144.548 23.1044C144.58 20.8732 142.956 17.4608 138.362 16.9194L138.231 16.9031L138.247 16.8539ZM102.171 7.53539C103.106 8.79863 101.417 12.5391 100.793 14.1305L100.76 14.1962L94.1653 31.2417C93.7552 32.2425 93.1645 33.7518 93.0497 35.0314C92.8365 37.4595 94.9199 39.297 98.7424 39.543H98.8573L98.8409 39.5923C94.2145 39.4117 91.8684 37.1971 92.0981 34.4737C92.213 33.194 92.7052 31.9307 93.1153 30.9136L93.1645 30.7824L99.5464 14.229C100.235 12.5228 101.63 9.47128 100.711 7.99475L100.662 7.92913V7.8471L102.171 7.53539ZM137.165 16.8046L137.148 16.8539C129.52 17.6578 123.482 25.8442 123.351 33.2924C123.318 35.5236 124.679 38.9852 129.486 39.4938L129.634 39.5102L129.618 39.5595C123.941 39.1821 122.186 34.9659 122.236 32.4722C122.351 24.8106 128.617 17.4444 137.165 16.8046ZM105.124 6.92838C105.6 8.32287 103.648 12.818 103.254 13.8516L103.238 13.8844L96.1996 32.0785C95.7894 33.1284 95.1332 34.851 95.0183 36.1306C94.9035 37.4759 95.5761 38.4274 96.9379 38.9196C97.8238 39.2477 98.6112 39.3626 98.9066 39.3953H98.9393L98.923 39.4446C95.609 39.2149 93.8371 37.722 94.0341 35.54C94.1324 34.3424 94.7395 32.7839 95.166 31.7339L95.2153 31.619L102.089 13.8352C102.549 12.654 104.403 8.50333 103.73 7.33852L103.697 7.28931V7.20727L105.124 6.92838ZM138.182 17.0015C142.152 17.4444 143.464 20.2663 143.432 22.2842C143.3 29.6503 137.821 38.5423 130.964 39.4282L130.75 39.4446L130.783 39.3953C136.771 38.5915 142.218 28.7973 142.349 21.4967C142.382 19.7249 141.299 17.5593 138.264 17.0507L138.149 17.0343L138.182 17.0015ZM112.408 18.9866C113.819 19.1835 114.771 20.2827 114.574 22.3662C114 28.6331 108.176 38.2798 100.285 39.3953L100.038 39.4282L100.055 39.379C107.306 37.8533 112.753 28.0262 113.294 22.2842C113.458 20.5943 112.704 19.6592 111.49 19.4952C109.8 19.2655 107.651 20.4303 106.092 22.4154L106.01 22.5139L105.977 22.4646C107.602 20.135 110.259 18.6913 112.408 18.9866ZM47.2776 10.4228C47.294 10.4392 47.3104 10.4392 47.3268 10.4556L47.3761 10.4884C48.1472 11.0626 49.0166 11.8993 49.8369 15.6563L49.8698 15.7875L54.9555 39.379H53.8071C53.8071 39.379 48.7705 16.0007 48.7541 15.9679C48.0323 12.6704 47.1136 11.2431 45.2925 10.4884L45.2104 10.4556V10.4064L47.2776 10.4228ZM51.1001 10.4228C51.1165 10.5541 51.1329 10.6689 51.1493 10.8001L51.1658 10.8986C51.2971 11.8665 51.4775 12.8344 52.068 15.3774L52.1009 15.5086L57.2523 39.3953H56.1039L50.9689 15.5906C50.2963 12.8344 50.0502 11.5548 49.2299 10.5212L49.1806 10.472V10.4228H51.1001ZM137.1 16.9358L137.066 16.9851C131.292 17.789 125.615 27.7637 125.484 34.8838C125.451 36.6556 126.534 38.9033 129.569 39.3298L129.668 39.3462L129.634 39.3953C125.714 39.0673 124.352 36.0814 124.384 34.0471C124.549 26.7957 130.323 17.6578 137.1 16.9358ZM72.887 20.2006C73.5269 20.2006 73.9042 20.5616 73.937 21.2506C73.9698 21.8576 73.5596 23.1044 73.0674 24.3841L72.9855 24.5974L72.887 24.8435C72.5097 25.795 72.1159 26.7301 71.837 27.4191L71.7878 27.5176L67.0465 39.379H65.8653L70.6558 27.4355C71.2957 25.877 72.887 22.2678 72.8377 21.2999C72.8213 20.8404 72.5752 20.66 72.2144 20.66C71.3612 20.66 69.8684 22.7927 68.9003 24.9583L68.8512 25.0567H68.7856C69.7699 22.5794 71.394 20.2006 72.887 20.2006ZM74.1502 19.3312C75.3314 19.3312 76.0042 20.0694 76.0697 21.1193C76.1518 22.6943 74.8557 25.6802 74.0846 27.5668L74.0353 27.6653L69.4253 39.379H68.2441L72.9526 27.5668C73.6252 25.7786 75.0525 22.5794 74.987 21.1521C74.9377 20.2827 74.4127 19.7741 73.5105 19.7741C71.4597 19.7741 69.7535 22.3498 68.7363 24.9419L68.7035 25.0403H68.6379C69.5895 22.1037 71.5909 19.3312 74.1502 19.3312ZM76.6932 17.5429C78.9735 17.5429 80.2204 19.003 80.3188 20.8897C80.4336 23.0389 79.6789 25.1224 78.8587 27.2059L78.7274 27.5176L78.629 27.7473L78.5306 27.9769L74.1667 39.379H72.9855L77.4313 27.895C78.2681 25.6474 79.3181 23.1865 79.2032 20.9389C79.1212 19.2491 78.0056 18.0023 76.004 18.0023C71.8207 18.0023 69.4253 21.2834 68.359 24.9419L68.3262 25.0567H68.277C69.2613 21.0702 71.9847 17.5429 76.6932 17.5429ZM75.4299 18.4124C77.1525 18.4124 78.1205 19.5116 78.2024 20.9717C78.3009 22.9896 77.1852 25.5653 76.3814 27.6489L76.3322 27.7801L71.837 39.3626H70.6065L75.1838 27.7309C75.9876 25.7129 77.2018 22.8255 77.1033 21.0538C77.0376 19.7741 76.2173 18.8554 74.7572 18.8554C71.7058 18.8554 69.5895 21.792 68.5395 24.9255L68.5066 25.0239H68.4574C69.4582 21.6279 71.7222 18.4124 75.4299 18.4124ZM89.0467 16.6733C90.556 16.6733 91.7865 17.6414 91.8848 19.7413C92.1145 24.0395 88.2428 27.5504 83.9937 28.2394L83.8624 28.2559L83.8296 28.2066C87.4717 27.3864 91.081 24.0888 90.8678 20.2006C90.7693 18.3632 89.6865 17.4937 88.3576 17.4937C85.9132 17.4937 83.7805 19.5608 82.4516 22.3005C82.4351 22.4318 82.4351 22.5794 82.4187 22.7271C83.6328 20.2006 85.5194 18.2648 87.6358 18.2648C88.817 18.2648 89.7193 19.0358 89.8013 20.6436C89.9818 23.9904 86.8483 27.2551 83.8296 28.0754L83.7312 28.0918L83.682 28.0426C86.1757 27.1239 88.9318 24.0067 88.7842 21.0865C88.7185 19.7577 87.9474 19.0687 86.9468 19.0687C85.1093 19.0687 83.4687 20.9225 82.3368 23.2686C82.3039 23.449 82.2875 23.613 82.2547 23.7935C83.2555 21.6115 84.7156 19.8562 86.2248 19.8562C87.1272 19.8562 87.7178 20.4467 87.767 21.5459C87.8983 23.9904 85.6999 26.9598 83.6656 27.9277L83.5999 27.9605L83.5507 27.9114C85.0436 26.9435 86.8483 24.0231 86.7498 22.0053C86.7007 21.185 86.2741 20.6764 85.5522 20.6764C84.3382 20.6764 83.0585 22.399 82.1234 24.4169C82.0414 24.7451 81.9594 25.0567 81.8445 25.3849C82.7141 23.3669 83.8788 21.4639 84.7975 21.4639C85.3882 21.4639 85.6343 21.874 85.6671 22.4646C85.7492 23.9576 84.5679 26.7629 83.5016 27.7637L83.4523 27.8129L83.4031 27.7637C84.3382 26.0903 84.7647 24.1216 84.6828 22.9404C84.6499 22.6287 84.535 22.2678 84.1249 22.2678C83.6328 22.2678 82.7633 23.7115 81.9758 25.27L81.8937 25.4505L81.8118 25.631C81.7789 25.6966 81.7461 25.7457 81.7297 25.8114L81.6805 25.8935C81.4672 26.5168 81.2211 27.1567 80.975 27.8293L80.8766 28.0918L76.5947 39.3462H75.4135L79.7282 27.9934C80.6469 25.5653 81.5329 23.4654 81.4016 20.7585C81.2868 18.6913 79.8922 17.1 77.3494 17.1C72.0832 17.1 69.327 20.7749 68.277 24.8927L68.2441 25.0239H68.1949C69.1628 20.578 72.0995 16.657 78.0056 16.657C80.8274 16.657 82.3695 18.4452 82.5008 20.7256C82.5172 21.0865 82.5172 21.4311 82.5172 21.7592C83.9281 18.839 86.3069 16.6733 89.0467 16.6733ZM108.11 6.32137C108.504 6.74791 105.781 13.4087 105.551 14.0156V14.032L98.2174 32.9643C97.8566 33.9323 97.0362 36.065 96.9215 37.2462C96.823 38.4602 97.7253 39.0509 98.923 39.2805L98.9885 39.297L98.9557 39.3462C97.1676 39.0673 95.8222 38.2305 95.9535 36.7049C96.0519 35.5072 96.7409 33.6862 97.1511 32.6034L97.184 32.505L104.353 13.9337C104.534 13.4251 105.075 12.129 105.567 10.7181L105.649 10.472C106.141 9.06112 106.584 7.60101 106.584 6.76433V6.6987V6.63308L108.11 6.32137ZM138.117 17.1492C140.413 17.5265 141.299 19.1342 141.266 20.6928C141.135 27.7801 136.016 38.3783 130.98 39.297L130.833 39.3134L130.865 39.2641C134.95 38.5095 140.036 26.9106 140.167 19.9217C140.184 18.6257 139.642 17.6578 138.198 17.2476L138.117 17.2312V17.1492ZM110.604 20.053C111.555 20.1842 112.13 20.9553 112.015 22.2514C111.555 27.2715 106.125 37.443 100.301 39.2149L100.121 39.2641L100.153 39.1985C105.256 36.9837 110.358 26.681 110.768 22.235C110.85 21.267 110.407 20.66 109.734 20.578C108.717 20.4303 107.29 21.3163 106.207 22.5958L106.141 22.6779L106.109 22.6287C107.388 20.9389 109.193 19.8562 110.604 20.053ZM137.033 17.0836L137.001 17.1328C133.047 17.9366 127.765 29.7488 127.65 36.4751C127.633 37.7876 128.109 38.8704 129.668 39.1821L129.749 39.1985L129.717 39.2477C127.322 38.9852 126.534 37.2134 126.566 35.6549C126.698 28.7316 132.129 17.8054 137.033 17.0836ZM111.194 5.71436L100.235 33.8502C99.8253 34.9002 98.8902 37.0493 98.7917 38.247C98.7589 38.7063 98.9066 39.0509 99.0542 39.1492L99.0706 39.1657L99.0378 39.2477C98.9393 39.2149 98.8737 39.1821 98.7917 39.1492C98.2831 38.9033 97.8894 38.2798 97.9058 37.7712C97.9549 36.6064 98.7917 34.5228 99.2018 33.4893L99.2346 33.4073L106.699 14.0977C106.765 13.9008 107.602 11.8337 108.373 9.8322L108.455 9.60252C109.111 7.87992 109.718 6.27215 109.702 6.04247V6.02606L111.194 5.71436ZM54.2501 10.4228C53.9548 11.3908 53.7742 12.8016 54.4962 15.8367L54.5289 15.9843L58.7945 36.1799L58.0398 37.7712L53.2493 15.4593C52.7572 13.2938 52.6259 12.1782 52.593 11.1611V11.0298C52.593 10.8986 52.593 10.7673 52.593 10.6361V10.5048V10.4392L54.2501 10.4228ZM57.5968 10.4228V10.472C56.5468 11.4072 56.2679 13.0641 56.875 16.1977L56.9078 16.3289L60.3366 32.9479L59.5655 34.5556L55.6938 16.0171C55.0539 12.8837 55.2179 11.6532 55.7593 10.472L55.7758 10.4228H57.5968ZM62.3381 10.4228V10.472C59.4014 11.0298 58.5484 12.6704 59.2702 16.4109L61.8623 29.716L61.0912 31.3401L58.1218 16.4438C57.203 12.0962 58.778 10.8658 59.582 10.4556L59.6311 10.4392L62.3381 10.4228ZM76.529 10.4228V10.472C72.0831 11.8172 70.0816 14.393 66.6692 20.7913L66.5708 20.9881L66.4887 20.9389C69.491 14.5242 70.9347 11.8829 73.2971 10.4556L73.3627 10.4064C73.3627 10.4228 76.529 10.4228 76.529 10.4228ZM71.1972 10.4228V10.472C70.8199 11.0298 70.4918 11.604 70.1145 12.3587L70.0488 12.5064C69.2777 14.0649 68.3262 16.3617 66.4887 20.742L66.4232 20.9061L66.3411 20.8568C68.1622 15.7711 69.0973 13.2775 68.884 10.6033V10.5048V10.4392C68.8676 10.4228 71.1972 10.4228 71.1972 10.4228ZM67.0629 10.4228C68.6544 12.0306 68.0965 14.6883 66.3247 20.6107L66.2754 20.7913L66.1935 20.742C67.8833 14.0484 67.3419 11.4236 64.8646 10.5048L64.7825 10.472V10.4228H67.0629Z" fill="#0E214B"/>
<path d="M23.3453 20.8554L23.4108 20.9046C24.9858 15.6877 25.4944 13.3908 24.0998 11.98H22.1147V12.0292C24.3295 12.8002 24.8381 15.0314 23.3453 20.8554Z" fill="#8EC089"/>
<path fill-rule="evenodd" clip-rule="evenodd" d="M29.6107 11.98C27.5108 13.194 26.2639 15.4579 23.6226 21.0359L23.6882 21.0851C26.7233 15.4416 28.4459 13.194 32.3669 12.0292V11.98H29.6107Z" fill="#2474DE"/>
<path d="M23.4771 20.9539L23.5427 21.0031C26.0364 15.1463 26.6761 13.5549 27.7097 12.0292V11.98H25.6918V12.0455C25.9052 14.3752 25.0848 16.5243 23.4771 20.9539Z" fill="#E85F24"/>
<path fill-rule="evenodd" clip-rule="evenodd" d="M6.87416 11.98H5.08594V12.0292C6.72652 12.669 7.51399 13.8994 8.17022 16.7704C8.17022 16.8032 12.567 36.9167 12.567 36.9167H13.5678L9.13816 16.6064C8.36709 13.1283 7.5632 12.4885 6.87416 11.98Z" fill="#76C5F7"/>
<path fill-rule="evenodd" clip-rule="evenodd" d="M16.2435 35.5057L16.8997 34.1441L13.192 16.754C12.5358 14.047 12.6834 12.8166 12.9623 11.98H11.5187C11.5023 13.0791 11.5515 13.9815 12.0765 16.2946L16.2435 35.5057Z" fill="#2474DE"/>
<path d="M10.2061 11.98H8.53271V12.0292C9.28739 12.9315 9.50066 14.0306 10.0913 16.4424L14.5536 36.933H15.5544L11.092 16.3603C10.4522 13.7354 10.3538 12.9971 10.2061 11.98Z" fill="#318EEE"/>
<path d="M17.569 32.7497L18.2416 31.3715L15.2558 17.0657C14.698 14.2931 14.9441 12.8494 15.8628 12.0292V11.98H14.2714C13.7792 13.0134 13.6316 14.047 14.1895 16.8032L17.569 32.7497Z" fill="#E85F24"/>
<path d="M16.3079 17.1646C15.504 13.3421 16.9477 12.325 17.6203 11.9968H19.9828V12.046C17.4235 12.5382 16.6852 13.9327 17.3087 17.1646L19.5726 28.6158L18.9 30.0103L16.3079 17.1646Z" fill="#8EC089"/>
</g>
</svg>
