<svg width="20" height="20" viewBox="0 0 20 20" fill="none" xmlns="http://www.w3.org/2000/svg">
<path d="M17.0503 2.91C15.1803 1.03 12.6903 0 10.0403 0C4.58029 0 0.130293 4.45 0.130293 9.91C0.130293 11.66 0.590293 13.36 1.45029 14.86L0.050293 20L5.30029 18.62C6.75029 19.41 8.38029 19.83 10.0403 19.83C15.5003 19.83 19.9503 15.38 19.9503 9.92C19.9503 7.27 18.9203 4.78 17.0503 2.91ZM10.0403 18.15C8.56029 18.15 7.11029 17.75 5.84029 17L5.54029 16.82L2.42029 17.64L3.25029 14.6L3.05029 14.29C2.23029 12.98 1.79029 11.46 1.79029 9.91C1.79029 5.37 5.49029 1.67 10.0303 1.67C12.2303 1.67 14.3003 2.53 15.8503 4.09C17.4103 5.65 18.2603 7.72 18.2603 9.92C18.2803 14.46 14.5803 18.15 10.0403 18.15ZM14.5603 11.99C14.3103 11.87 13.0903 11.27 12.8703 11.18C12.6403 11.1 12.4803 11.06 12.3103 11.3C12.1403 11.55 11.6703 12.11 11.5303 12.27C11.3903 12.44 11.2403 12.46 10.9903 12.33C10.7403 12.21 9.94029 11.94 9.00029 11.1C8.26029 10.44 7.77029 9.63 7.62029 9.38C7.48029 9.13 7.60029 9 7.73029 8.87C7.84029 8.76 7.98029 8.58 8.10029 8.44C8.22029 8.3 8.27029 8.19 8.35029 8.03C8.43029 7.86 8.39029 7.72 8.33029 7.6C8.27029 7.48 7.77029 6.26 7.57029 5.76C7.37029 5.28 7.16029 5.34 7.01029 5.33C6.86029 5.33 6.70029 5.33 6.53029 5.33C6.36029 5.33 6.10029 5.39 5.87029 5.64C5.65029 5.89 5.01029 6.49 5.01029 7.71C5.01029 8.93 5.90029 10.11 6.02029 10.27C6.14029 10.44 7.77029 12.94 10.2503 14.01C10.8403 14.27 11.3003 14.42 11.6603 14.53C12.2503 14.72 12.7903 14.69 13.2203 14.63C13.7003 14.56 14.6903 14.03 14.8903 13.45C15.1003 12.87 15.1003 12.38 15.0303 12.27C14.9603 12.16 14.8103 12.11 14.5603 11.99Z" fill="white"/>
</svg>
