<svg width="17" height="12" viewBox="0 0 17 12" fill="none" xmlns="http://www.w3.org/2000/svg">
<path d="M8.10283 8.22622C8.60326 8.22622 9.0832 8.42502 9.43706 8.77888C9.79092 9.13274 9.98972 9.61268 9.98972 10.1131C9.98972 10.6135 9.79092 11.0935 9.43706 11.4473C9.0832 11.8012 8.60326 12 8.10283 12C7.60239 12 7.12246 11.8012 6.7686 11.4473C6.41473 11.0935 6.21594 10.6135 6.21594 10.1131C6.21594 9.61268 6.41473 9.13274 6.7686 8.77888C7.12246 8.42502 7.60239 8.22622 8.10283 8.22622ZM8.10283 9.2545C7.87511 9.2545 7.65672 9.34496 7.4957 9.50598C7.33468 9.667 7.24422 9.88539 7.24422 10.1131C7.24422 10.3408 7.33468 10.5592 7.4957 10.7202C7.65672 10.8813 7.87511 10.9717 8.10283 10.9717C8.33055 10.9717 8.54894 10.8813 8.70996 10.7202C8.87098 10.5592 8.96144 10.3408 8.96144 10.1131C8.96144 9.88539 8.87098 9.667 8.70996 9.50598C8.54894 9.34496 8.33055 9.2545 8.10283 9.2545ZM8.10283 5.48586C8.96049 5.48608 9.80122 5.72466 10.5312 6.17497C11.2611 6.62528 11.8515 7.26959 12.2365 8.03599L11.4602 8.81234C11.1984 8.1345 10.7376 7.55176 10.1383 7.1408C9.53907 6.72983 8.82946 6.50988 8.10283 6.50988C7.3762 6.50988 6.66658 6.72983 6.06733 7.1408C5.46808 7.55176 5.00727 8.1345 4.7455 8.81234L3.96915 8.03599C4.35415 7.26959 4.94457 6.62528 5.6745 6.17497C6.40444 5.72466 7.24517 5.48608 8.10283 5.48586ZM8.10283 2.7455C10.6632 2.7455 12.9203 4.05141 14.2416 6.03599L13.4961 6.77635C12.9281 5.85682 12.1344 5.09778 11.1905 4.57135C10.2465 4.04492 9.18365 3.76857 8.10283 3.76857C7.022 3.76857 5.95913 4.04492 5.01517 4.57135C4.07121 5.09778 3.27753 5.85682 2.70951 6.77635L1.96401 6.03085C2.63618 5.01831 3.54855 4.18792 4.6197 3.61377C5.69086 3.03961 6.8875 2.73955 8.10283 2.74036V2.7455ZM8.10283 0C11.419 0 14.365 1.59383 16.2057 4.0617L15.4704 4.80206C14.6307 3.63226 13.5245 2.67924 12.2433 2.02184C10.9621 1.36444 9.54282 1.02155 8.10283 1.02155C6.66283 1.02155 5.24354 1.36444 3.96236 2.02184C2.68119 2.67924 1.57496 3.63226 0.735218 4.80206L0 4.06684C1.84062 1.59897 4.78149 0.00514151 8.10283 0.00514151V0Z" fill="black"/>
</svg>
