<svg width="9" height="12" viewBox="0 0 9 12" fill="none" xmlns="http://www.w3.org/2000/svg">
<path d="M1.7878 0.8L1.7078 0.96C1.39465 1.59686 1.16605 2.27191 1.0278 2.968V2.98C1.39182 2.86035 1.77261 2.79959 2.1558 2.8C3.0598 2.8 3.9318 3.136 4.6038 3.76L4.6998 3.856C4.95956 4.11635 5.2682 4.32282 5.60799 4.46354C5.94778 4.60426 6.31202 4.67646 6.6798 4.676C7.17584 4.67683 7.66317 4.54568 8.0918 4.296V4.204C8.05614 3.07786 7.7778 1.97269 7.2758 0.964L7.1958 0.8H1.7878ZM2.1558 3.6C1.72417 3.60015 1.29841 3.70008 0.911798 3.892C0.891798 4.06 0.891797 4.228 0.891797 4.4C0.891797 5.35478 1.27108 6.27045 1.94621 6.94558C2.62134 7.62072 3.53702 8 4.4918 8C6.1158 8 7.5718 6.744 7.9798 5.232C7.56499 5.39156 7.12423 5.47293 6.6798 5.472C5.77041 5.47392 4.89414 5.13085 4.2278 4.512L4.1358 4.42C3.87617 4.15947 3.56755 3.95289 3.22773 3.81215C2.88791 3.67142 2.52361 3.59932 2.1558 3.6ZM7.6758 0L7.7918 0.208C8.50572 1.49037 8.8841 2.93232 8.8918 4.4C8.8918 6.56 7.0798 8.56 4.8918 8.78V11.2H7.2918V12H1.6918V11.2H4.0918V8.784C2.99826 8.68417 1.98156 8.17906 1.24143 7.36788C0.501307 6.5567 0.0912435 5.49809 0.0917974 4.4C0.0917974 2.96 0.459797 1.564 1.1918 0.208L1.3078 0H7.6758Z" fill="black"/>
</svg>
