<svg width="13" height="12" viewBox="0 0 13 12" fill="none" xmlns="http://www.w3.org/2000/svg">
<path d="M10.3448 0C10.4261 6.61974e-05 10.5055 0.0240356 10.5732 0.0689207C10.6409 0.113806 10.6938 0.177621 10.7255 0.252414L10.7421 0.302069L11.5697 3.19862C11.5856 3.25622 11.5888 3.3166 11.5792 3.37558C11.5696 3.43457 11.5473 3.49076 11.5139 3.54031C11.4804 3.58986 11.4367 3.63157 11.3856 3.66259C11.3345 3.69361 11.2773 3.7132 11.2179 3.72L11.1724 3.72414H9.93104V5.7931H12.4138V6.62069H11.5862V12H10.7586V10.949C10.54 11.0761 10.2951 11.1511 10.0428 11.1683L9.93104 11.1724H2.48276C2.19201 11.1723 1.90647 11.0952 1.65517 10.949V12H0.827586V6.62069H0V5.7931H2.06897V4.13793C2.06823 4.03627 2.10495 3.9379 2.17211 3.86158C2.23927 3.78526 2.33218 3.73633 2.4331 3.72414H2.58207L2.10621 2.64828L2.85931 2.31724L3.48828 3.72414H4.55172C4.65338 3.7234 4.75176 3.76012 4.82808 3.82728C4.9044 3.89444 4.95332 3.98735 4.96552 4.08828V5.7931H9.10345V3.72414H7.86207C7.80203 3.72431 7.74267 3.71142 7.68811 3.68635C7.63355 3.66128 7.5851 3.62464 7.54613 3.57897C7.50715 3.5333 7.47858 3.47969 7.4624 3.42187C7.44621 3.36405 7.44281 3.30341 7.45241 3.24414L7.46483 3.19862L8.29241 0.302069C8.31461 0.223717 8.35942 0.153654 8.42125 0.100657C8.48308 0.0476602 8.55918 0.0140854 8.64 0.00413793L8.68966 0H10.3448ZM10.7586 6.62069H1.65517V9.51724C1.65491 9.71541 1.72577 9.90709 1.85486 10.0574C1.98394 10.2078 2.1627 10.3068 2.35862 10.3366L2.42069 10.3407L2.48276 10.3448H9.93104C10.1402 10.3454 10.3418 10.2668 10.4953 10.1248C10.6489 9.98275 10.7429 9.78787 10.7586 9.57931V6.62069ZM4.13793 4.55172H2.89655V5.7931H4.13793V4.55172ZM10.0303 0.827586H9L8.40828 2.89655H10.6221L10.0303 0.827586Z" fill="black"/>
</svg>
