<svg width="21" height="20" viewBox="0 0 21 20" fill="none" xmlns="http://www.w3.org/2000/svg">
<path d="M10.5264 20C9.14303 20 7.84303 19.7375 6.62637 19.2125C5.4097 18.6875 4.35137 17.975 3.45137 17.075C2.55137 16.175 1.83887 15.1167 1.31387 13.9C0.788867 12.6833 0.526367 11.3833 0.526367 10C0.526367 8.61667 0.788867 7.31667 1.31387 6.1C1.83887 4.88333 2.55137 3.825 3.45137 2.925C4.35137 2.025 5.4097 1.3125 6.62637 0.7875C7.84303 0.2625 9.14303 0 10.5264 0C11.9097 0 13.2097 0.2625 14.4264 0.7875C15.643 1.3125 16.7014 2.025 17.6014 2.925C18.5014 3.825 19.2139 4.88333 19.7389 6.1C20.2639 7.31667 20.5264 8.61667 20.5264 10C20.5264 11.3833 20.2639 12.6833 19.7389 13.9C19.2139 15.1167 18.5014 16.175 17.6014 17.075C16.7014 17.975 15.643 18.6875 14.4264 19.2125C13.2097 19.7375 11.9097 20 10.5264 20ZM10.5264 18C12.7597 18 14.6514 17.225 16.2014 15.675C17.7514 14.125 18.5264 12.2333 18.5264 10C18.5264 9.88333 18.5222 9.7625 18.5139 9.6375C18.5055 9.5125 18.5014 9.40833 18.5014 9.325C18.418 9.80833 18.193 10.2083 17.8264 10.525C17.4597 10.8417 17.0264 11 16.5264 11H14.5264C13.9764 11 13.5055 10.8042 13.1139 10.4125C12.7222 10.0208 12.5264 9.55 12.5264 9V8H8.52637V6C8.52637 5.45 8.7222 4.97917 9.11387 4.5875C9.50553 4.19583 9.97637 4 10.5264 4H11.5264C11.5264 3.61667 11.6305 3.27917 11.8389 2.9875C12.0472 2.69583 12.3014 2.45833 12.6014 2.275C12.268 2.19167 11.9305 2.125 11.5889 2.075C11.2472 2.025 10.893 2 10.5264 2C8.29303 2 6.40137 2.775 4.85137 4.325C3.30137 5.875 2.52637 7.76667 2.52637 10H7.52637C8.62637 10 9.56803 10.3917 10.3514 11.175C11.1347 11.9583 11.5264 12.9 11.5264 14V15H8.52637V17.75C8.8597 17.8333 9.18887 17.8958 9.51387 17.9375C9.83887 17.9792 10.1764 18 10.5264 18Z" fill="#181818"/>
</svg>
